<svg
    xmlns="http://www.w3.org/2000/svg"
    viewBox="0 0 428.34 349.93"
>
    <path
        d="m395.06,166.52c1.07-1.61,2.61-1.61,4.24-1.48.75.06,1.29.55,1.35,1.19.1.99.48,2.18-.61,2.9-1.31.86-2.01,2.21-2.85,3.43-2.46,3.58,0,7.82,2.43,9.44.97.65,2.07.95,3.1,1.3,2.19.75,2.53,2.27,1.99,4.36-.39,1.51-1.59,2.74-1.34,4.49.23,1.56,1.42,3.16,2.95,3.57,1.4.37,1.82,1.57,1.83,2.74.01,1.18-.42,2.41-1.73,2.87-1.33.48-2.59.58-3.86-.49-2.94-2.46-4.91-5.36-4.94-9.87-.11-.76.86-2.18.43-3.15-.42-.94-2.04-1.27-2.94-2.15-5.05-4.89-6.08-12.08-.83-17.73.36-.39.47-.95.78-1.42Z"
        fill="#090608"
    />
    <path
        d="m375.45,147.33c.48,1.8.51,3.6.01,5.4,0-1.8-.01-3.6-.01-5.4Z"
        fill="#ddabd0"
    />
    <path
        d="m374.52,86.02c1.28-.17,2.41.12,2.82,1.6.33,1.22,1.22,2.16,1.71,3.31,1.55,3.66,1.49,7.38.21,11.08-.4,1.15-.4,1.82.78,2.53,3.77,2.26,5.56,6.03,7.06,9.93,1.09,2.84,2.04,5.74,1.88,9.01.14,1.52-.15,3.15-.7,4.71-.27.77-.21,1.34.42,1.87,4.43,3.72,5.62,8.86,6.33,14.26.34,2.58.4,5.07-.64,7.48-.77,1.79-2.19,2.4-3.86,1.79-1.53-.56-2.49-2.03-1.75-3.44,1.03-1.96.79-3.86.48-5.82-.4-2.56-.76-5.14-2.16-7.41-.85-1.39-1.94-2.5-3.42-3.25-2.31-1.15-3.05-2.63-1.87-4.82,2.91-5.39.87-10.23-1.29-15.13-1.24-2.82-3.39-4.6-6.11-5.87-1.98-.92-2.43-2.16-1.73-4.31.6-1.84,1.62-3.51,1.97-5.48.38-2.08.1-3.94-.84-5.79-.62-1.23-1.53-2.36-1.37-3.89.13-1.33.77-2.19,2.08-2.36Z"
        fill="#ddabd0"
    />
    <path
        d="m369.77,234.18c1.89-.43,3.78-.52,5.66,0h-5.66Z"
        fill="#ddabd0"
    />
    <path
        d="m363.42,258.13c-5.78.37-11.56.12-17.33.01.07-.02.1-.06.09-.13,5.62-.03,11.24-.06,16.85-.07.13,0,.26.12.39.19Z"
        fill="#ddabd0"
    />
    <path
        d="m346.09,258.14c-2.38-.01-4.75-.01-7.11-.02,2.39-.5,4.8-.09,7.2-.11.01.07-.02.11-.09.13Z"
        fill="#3c6bb1"
    />
    <path
        d="m345.45,64.95c.42,1.5.42,3.01-.01,4.52,0-1.51,0-3.02.01-4.52Z"
        fill="#ddabd0"
    />
    <path
        d="m339.5,27.47c1.38-.03,2.77-.11,4.14.13-1.4,0-2.79.02-4.19.03-.01-.06.01-.11.05-.16Z"
        fill="#3c6bb1"
    />
    <path
        d="m340.59,180.67c-1.29.04-2.16-.49-2.66-1.51-.57-1.16-.41-2.31.57-3.14,1.45-1.22,3.01-2.29,4.49-3.47,1.28-1.03,2.51-2.14,3.42-3.53,1.07-1.63,1.16-3.45,1.1-5.33-.07-1.97.88-3.14,2.4-3.13,1.42,0,2.48,1.3,2.71,3.07.75,5.68-1.92,9.76-6.08,13.14-1.38,1.14-2.84,2.18-4.27,3.27-.53.4-1.1.7-1.68.63Z"
        fill="#ddabd0"
    />
    <path
        d="m317.44,105.59c.05-1.6,1.33-2.47,4.31-2.47,4.94.39,9.69,2.46,13.36,6.92,1.88,2.27,3.29,4.74,4.41,7.43.94,2.27.88,4.57.34,6.89-.3,1.31-1.68,2.31-2.85,2.16-1.58-.21-2.81-1.76-2.73-3.43.35-6.7-4.99-13.4-11.61-14.56-.59-.1-1.18-.25-1.77-.28-2.35-.15-3.5-1.01-3.46-2.66Z"
        fill="#ddabd0"
    />
    <path
        d="m339.05,242.6c-2.4,0-4.81-.02-7.21-.03,2.41-.52,4.81-.47,7.21.03Z"
        fill="#ddabd0"
    />
    <polygon
        points="338.08 264.21 338 264.26 337.92 264.22 338 264.15 338.08 264.21"
        fill="#bccdeb"
    />
    <path
        d="m337.98,301.47c.09,1.42-.25,1.99-1.22,2.69-4.27,3.04-8.55,6.09-12.66,9.36-.3.24-.66.41-1.08.66-1.3-5.61-3.12-10.96-4.73-16.38-.28-.93-.4-1.91-.55-2.88-.2-1.31.21-2.24,1.35-3.15,5.26-4.16,10.41-8.45,15.59-12.7.75-.61,1.32-1.44,1.46.45.19,2.54.74,5.04.87,7.61.23,4.78.66,9.56.97,14.34Z"
        fill="#fff"
    />
    <path
        d="m339.45,27.63c-1.53-.01-3.08.33-4.58-.21,1.54.02,3.09.04,4.63.05-.04.05-.06.1-.05.16Z"
        fill="#ddabd0"
    />
    <path
        d="m330.71,49.79c.58-.62,2.63-.78,3.35-.14,2.39,2.14,5.09,3.91,7.37,6.19,2.53,2.53,3.34,5.78,4.02,9.11-.01,1.5-.01,3.01-.01,4.52-.63,1.95-.79,4.02-1.52,5.95-.17.46.25.56.62.62,5.32.92,9.79,3.61,13.96,6.86,3.64,2.85,5.45,6.73,6.2,11.24.53,3.14.03,6.09-1.03,9-.25.71-.08.9.51,1.22,6.61,3.56,9.47,9.31,9.81,16.62.16,3.2-.75,6.09-2.01,8.91-.42.94-.49,1.44.55,1.97,4.38,2.24,6.42,6.2,7.76,10.69.84,2.82,1.33,5.67,1.17,8.61-.28,4.75-1.63,9.18-4.21,13.2-.94,1.47-2.56,1.91-3.78,1.18-1.59-.95-2.01-2.3-1.1-4.02,1.47-2.79,2.75-5.62,3.09-8.79.5-1.8.47-3.6-.01-5.4-.26-2.56-1.18-4.9-2.32-7.18-.84-1.65-2.25-2.67-3.79-3.51-4.99-2.73-5.5-3.45-2.75-8.81,1.18-2.28,1.95-4.71,1.64-7.35-.52-4.53-2.04-8.47-6.32-10.82-.85-.47-1.78-.55-2.67-.83-2.98-.91-3.82-2.82-2.13-5.37,3.84-5.79,1.91-13.79-3.75-17.29-3.98-2.46-7.95-4.62-12.8-4.75-2.67-.08-4.19-2.63-3.13-5.05,1.29-2.96,2.24-6.09,2.44-9.24.2-3.2-.62-6.37-3.43-8.59-1.53-1.21-2.98-2.51-4.44-3.8-.56-.5-1.14-1.02-1.53-1.65-.7-1.11-.71-2.27.24-3.3Z"
        fill="#090608"
    />
    <path
        d="m327.1,337.32c3.99-3.91,7.14-8.55,10.67-12.86,2.1-2.57,4.36-5.03,6.28-8.12.27,2.45.48,4.51.72,6.58.08.76.07,1.4-.6,2.01-5.77,5.31-11.5,10.67-17.25,16-.17.17-.37.31-.6.49-.73-1.63-.56-2.78.78-4.1Z"
        fill="#3c6bb1"
    />
    <path
        d="m321.66,228.08c.28-1.29,2.06-2.29,3.62-1.95,5.82,1.26,11.13-.02,15.88-3.42,2.51-1.79,4.75-3.95,7.09-5.98,1.88-1.63,4.02-2,6.28-1.09,6.34,2.54,12.18,1.14,17.57-2.44,2.95-1.96,5.39-4.59,7.31-7.64,1.21-1.91,1.94-3.94,2.05-6.18.1-2.18.92-3.13,2.79-3.09,1.61.04,2.32.99,2.33,3.15v.6c-.11,4.07-1.75,7.6-4.18,10.7-3,3.83-6.36,7.33-10.88,9.46-2.92,1.39-6.04,1.9-9.23,2.31-3.23.41-6.25-.03-9.19-1.28-.88-.37-1.45.06-2.01.53-1.75,1.49-3.45,3.02-5.18,4.53-3.85,3.37-8.41,5.04-13.4,5.8-2.82.44-5.56.26-8.32-.32-1.93-.4-2.93-1.8-2.53-3.69Z"
        fill="#ddabd0"
    />
    <path
        d="m317.71,251.15c-1.34-.42-1.95-2.52-1.2-3.93,2.85-5.38,7.1-8.91,13.2-10.06,6.68-1.26,13.17-.26,19.57,1.59.99.29,1.47.12,2.13-.63,4.29-4.91,9.46-8.47,16.02-9.52,3.82-.62,7.71-.93,11.46.53.83.33.94-.18,1.2-.62,1.45-2.41,3.23-4.57,5.1-6.66,1.99-2.2,4.4-3.74,7.18-4.74,1.02-.37,1.99-.76,2.87-1.48,1.13-.94,3.09-.53,3.98.69,1.03,1.41.84,3.22-.47,4.3-.75.61-1.63.98-2.55,1.23-6.03,1.64-9.31,6.19-12.01,11.36-.27.53-.45,1.12-.77,1.62-.92,1.41-2.53,1.8-4.04,1.04-1.28-.65-2.41-1.64-3.95-1.69-1.88-.52-3.77-.43-5.66,0-2.08-.03-4.02.53-5.85,1.46-3.7,1.88-7.01,4.22-9.3,7.8-1.21,1.88-2.63,2.37-4.77,1.57-3.5-1.3-7.09-2.09-10.8-2.41-2.4-.5-4.8-.55-7.21-.03-4.86.26-8.39,2.64-10.52,6.92-1.01,2.03-2.29,2.07-3.61,1.66Z"
        fill="#090608"
    />
    <path
        d="m312.91,176.31c.04-1.28.94-2.31,2.23-2.23,1.8.11,3.26-.59,4.77-1.42,2.64-1.45,3.71-3.77,3.84-6.62.15-3.3.78-4.03,4.06-4.68,2.03-.41,3.86-1.31,5.55-2.51,2.25-1.6,2.3-3.88,2.02-6.29-.15-1.3-.69-2.47-1.22-3.64-.72-1.6.52-3.24,1.45-3.63,1.54-.65,2.88.09,3.49,1.84.47,1.36,1.13,2.67,1.42,4.06.24,1.14.58,2.32.36,3.33.16,3.74-1.41,6.46-4.06,8.65-1.71,1.41-3.62,2.55-5.74,3.15-1.36.38-1.75,1.17-1.92,2.36-.31,2.16-1.01,4.24-2.55,5.77-2.73,2.72-5.84,4.87-9.84,5.34-2.33.27-3.92-1.14-3.86-3.48Z"
        fill="#090608"
    />
    <path
        d="m310.7,294.27c-.06-.07-.11-.14-.17-.21.22-.06.23.05.17.21Z"
        fill="#bccdeb"
    />
    <path
        d="m309.9,288c-.03.14-.07.27-.26.16.09-.05.18-.11.26-.16Z"
        fill="#bccdeb"
    />
    <path
        d="m308.09,294.08c-.27.28-.56.29-.85.02.29,0,.57,0,.85-.02Z"
        fill="#bccdeb"
    />
    <path
        d="m306.59,294.16c-.15.18-.34.16-.54.12.13-.28.32-.24.54-.12Z"
        fill="#bccdeb"
    />
    <path
        d="m306.02,39.1h-5.13c1.71-.46,3.42-.48,5.13,0Z"
        fill="#ddabd0"
    />
    <path
        d="m303.63,288.46c.24-.27.54-.23.84-.17-.21.36-.53.22-.84.17Z"
        fill="#bccdeb"
    />
    <path
        d="m322.16,333.68c-6.39.15-12.79.33-19.18.49,2.52-1.95,5.53-2.78,8.29-4.13,2.43-1.18,5-2.11,7.19-3.74,6.47-4.8,13.37-9.04,19.3-14.56,1.27-1.19,1.37-1.1,3.45-.82-1.33,2.12-2.68,4.13-4.28,5.98-3.79,4.39-7.6,8.76-11.12,13.38-.78,1.03-1.72,1.95-2.6,2.9-.28.31-.61.48-1.05.5Z"
        fill="#3c6bb1"
    />
    <path
        d="m301.81,21.67h-7.22c2.41-.49,4.82-.44,7.22,0Z"
        fill="#ddabd0"
    />
    <polygon
        points="300.13 294.44 300.12 294.49 300.12 294.43 300.12 294.38 300.13 294.44"
        fill="#3c6bb1"
    />
    <path
        d="m297.36,288.68c.1.18.12.28.08.33.03-.05.02-.15-.09-.33h.01Z"
        fill="#3c6bb1"
    />
    <path
        d="m297,289.06c-.21,0-.66.13-.36-.38.24-.14.47-.14.71,0,.11.18.12.28.09.33-.06.11-.31.05-.44.05Z"
        fill="#3c6bb1"
    />
    <path
        d="m291.88,80.5c-1.26.35-2.34-.21-2.92-1.32-2.43-4.7-2.16-11.22,1.57-15.43,2.39-2.7,5.3-4.53,8.86-5.25.71-.15,1.23-.3,1.24-1.3.06-5.23,2.61-8.73,7.57-10.46,2.16-.76,4.24-1.8,6.63-1.62,2.46.2,3.93,1.91,3.35,3.92-.43,1.45-1.51,2.06-3.16,1.72-3.12-.63-5.53,1.03-7.74,2.72-1.3.99-.99,2.93-.97,4.54v.6c-.08,1.54.44,3.19-1.16,4.39-1.09.82-2.31.93-3.53,1.01-4.07.3-8.2,3.24-8.53,8.29-.07,1.23.42,2.35.69,3.51.16.7.23,1.38.2,2.08-.05,1.37-.84,2.26-2.1,2.6Z"
        fill="#ddabd0"
    />
    <path
        d="m285.28,276.16c1.67-.49,3.38-.12,5.08-.22-1.68.52-3.38.21-5.08.22Z"
        fill="#ddabd0"
    />
    <polygon
        points="287.25 294.44 287.25 294.49 287.24 294.43 287.25 294.39 287.25 294.44"
        fill="#3c6bb1"
    />
    <path
        d="m279.25,186.68c1.97-.4,2.68.47,3.41,2.35,1.13,2.92,2.79,5.56,5.72,7.23,3.89,2.21,8.07,3.47,12.42,4.16,2.2.36,4.31-.33,6.23-1.46.56-.33,1.06-.75,1.62-1.08,1.88-1.12,3.3-.93,4.86.61,1.07,1.06,2.15,2.1,3.22,3.16,2.5,2.48,5.67,3.29,9.04,3.65,6.62.72,12.14-1.89,17.3-5.65,2.58-1.89,3.78-1.79,5.97.45.65.66,1.4,1.07,2.27,1.4,4.51,1.69,8.87,1.38,13.08-.94,2.64-1.46,4.81-3.27,5.45-6.51.38-1.92,2.22-2.64,4.18-1.94,1.48.53,2.18,2.32,1.53,4.03-2.12,5.58-6.23,9.03-11.76,10.97-2.35.82-4.77,1.21-7.9,1.25-2.97-.38-6.57-.85-9.62-3.04-.7-.5-1.08-.14-1.58.19-3.78,2.53-7.77,4.61-12.32,5.31-7.78,1.2-14.91-.05-20.61-5.99-.9-.94-1.53-1.07-2.74-.43-3.13,1.64-6.47,2.16-10.02,1.53-4.69-.83-9.12-2.28-13.11-4.88-4.03-2.62-6.85-6.25-8.36-10.84-.45-1.39.49-3.27,1.72-3.53Z"
        fill="#090608"
    />
    <path
        d="m278.99,334.76c.18-.24.36-.27.54.01-.18,0-.36,0-.54-.01Z"
        fill="#bccdeb"
    />
    <polygon
        points="276.68 348.24 276.69 348.31 276.68 348.31 276.68 348.24"
        fill="#3c6bb1"
    />
    <path
        d="m274.01,77.23c-3.41-1.16-5.96-3.17-7.26-6.75-2.27-6.23-.78-11.32,3.95-15.81,4.37-4.14,9.54-6.37,15.43-7.12.69-.09.89-.3.95-.99.58-6.59,4.75-11.62,11.21-13.03,2.56-.55,5.29-.91,7.96-.17.33.09.7,0,1.05,0,2.49-.03,3.6,1.2,3.27,3.66-.12.94-.77,1.65-1.63,1.72-.98.08-1.91.58-2.92.36-1.71-.48-3.42-.46-5.13,0-5.41.26-7.63,4.1-8.07,8.03-.08.75.02,1.51-.04,2.25-.16,2.11-1.64,3.37-3.72,3.59-4.89.53-9.6,1.57-13.44,5.02-.95.86-1.82,1.76-2.7,2.68-2.79,2.94-1.79,6.67-.35,9.52.57,1.14,1.73,1.67,2.89,1.94,2.03.48,2.7,1.32,2.3,3.19-.28,1.29-2.31,2.39-3.75,1.91Z"
        fill="#090608"
    />
    <path
        d="m278.31,342.64c-2.3-.12-4.6-.21-6.9-.28l.06-1.71c1.61.05,3.23.05,4.85.01,3.7-.08,7.35-.46,10.97-1.25.42-.1.9-.18,1.32.08,2.18,1.31,4.51.77,6.82.57.4-.04.8-.06,1.2-.07,7.19-.11,14.39-.22,21.59-.32,2.44-.03,2.37,0,2.71,2.43.19,1.39-.22,1.74-1.59,1.62-1.59-.15-3.2-.04-4.8-.04-5.05-.03-10.09-.37-15.13-.49-3.44-.09-6.9.03-10.33-.27-3.59-.31-7.19-.09-10.77-.28Z"
        fill="#3c6bb1"
    />
    <path
        d="m269.31,334.76c-.28.01-.56.01-.84.01.28-.32.56-.29.84-.01Z"
        fill="#bccdeb"
    />
    <path
        d="m267.71,348.16c.21-.08.13.09.14.18l-.06.05-.08-.05c0-.06-.02-.17,0-.18Z"
        fill="#3c6bb1"
    />
    <path
        d="m262.16,168.34c.46,2.51.47,5.02,0,7.53v-7.53Z"
        fill="#ddabd0"
    />
    <path
        d="m257.85,347.82c.03.07.05.15.08.22l-.06.05-.08-.05c.02-.07.04-.15.06-.22Z"
        fill="#3c6bb1"
    />
    <path
        d="m193.36,334.26c2.98.27,5.97.21,8.96.31,13.51.47,27.02.17,40.53.28,4.14.04,8.03,1.11,11.85,2.62,5.42,2.15,11.04,2.99,16.77,3.18l-.06,1.71c-3.83-.12-7.66-.21-11.49-.36-3.59-.13-7.19-.07-10.78-.26-6.53-.34-13.06-.42-19.6-.62-6.68-.2-13.36-.39-20.04-.63-3.24-.11-6.49-.02-9.72-.27-2.25-.17-4.48-.27-6.73-.25-.83.01-1.01-.37-.98-1.1.05-1.15.09-2.3.02-3.45-.06-1,.43-1.23,1.27-1.16Z"
        fill="#3c6bb1"
    />
    <path
        d="m251.01,104.03c1.89-.5,3.78-.45,5.66.01-1.88,0-3.77-.01-5.66-.01Z"
        fill="#ddabd0"
    />
    <path
        d="m253.09,117.91c-.97.54-2.06.41-2.87-.5-.86-.96-1.03-2.05-.24-3.14.75-1.04,1.76-1.76,3.04-2.05,4.46-1,8.89-.82,13.29.37,1.69.46,2.39,1.62,2.11,3.25-.23,1.34-1.21,2.03-3.33,2.01-2.26-.38-4.92-1.08-7.69-.91-1.5.09-2.94.21-4.31.97Z"
        fill="#ddabd0"
    />
    <path
        d="m247.66,249.89c.73-1.16,2.35-1.47,3.88-.55,2.12,1.28,4.36,1.91,6.81,1.98,3.87.11,7.06-1.53,10.04-3.76,2.54-1.91,4.12-1.65,6,.94.74,1,1.42,2.03,2.44,2.81,2.37,1.8,7.85,2.37,11.62-.29,2.07-1.47,3.84-1.24,5,.39.98,1.39.81,3.08-.67,3.88-3.2,1.71-6.34,3.73-9.81,3.23-5.02.18-8.87-1.41-11.91-4.83-.53-.6-.86-.44-1.37-.14-3.49,2.12-7.21,3.38-11.36,3.17-3.45-.19-6.69-.98-9.54-3.06-1.66-1.22-2.03-2.35-1.13-3.77Z"
        fill="#ddabd0"
    />
    <path
        d="m244.7,266.02c.57.31.23.61-.01.91,0-.3,0-.61.01-.91Z"
        fill="#ddabd0"
    />
    <path
        d="m244.69,49.91c-1.92,0-3.83,0-5.75-.01,1.92-.42,3.83-.45,5.75.01Z"
        fill="#ddabd0"
    />
    <path
        d="m244.69,266.93c.01.34.04.69-.28.92-.04-.34-.06-.69.28-.92Z"
        fill="#ddabd0"
    />
    <path
        d="m244.41,267.85c.07.48-.16.75-.61.87.12-.35.29-.67.61-.87Z"
        fill="#ddabd0"
    />
    <path
        d="m262.95,242.61c-9.17,1.51-18.77-1.98-22.36-12.11-.53-1.5-.8-3.07.39-4.49.83-.97,1.84-1.46,3.06-1.06,1.18.38,1.61,1.29,1.58,2.57-.05,2.78,1.51,4.82,3.49,6.5,5.44,4.63,16.32,4.78,21.15-2.72.11-.17.23-.32.34-.49.88-1.3,1.92-2.34,3.68-2.07,1.92.29,2.71,1.62,3.09,3.35.68,3.11,2.68,4.27,5.49,4.75,6.64,1.13,12.42-1,17.32-5.28,1.66-1.45,3.5-3.22,3.49-5.99-.01-1.7,1.45-2.4,3.83-2.22,1.36.09,2.09,1.07,2.14,2.71.03,1.29-.33,2.36-1.08,3.45-1.03,1.47-1.73,3.11-2.95,4.53-3.82,4.46-8.67,6.96-14.26,8.26-4.02.93-8.04.9-11.95-.36-2.61-.83-4.81-2.4-6.27-5.01-2.94,2.99-6.21,5.03-10.18,5.68Z"
        fill="#090608"
    />
    <path
        d="m238.61,44.45c1.65-.42,3.3-.23,4.94.01-1.65-.01-3.3-.01-4.94-.01Z"
        fill="#3c6bb1"
    />
    <path
        d="m243.23,269.66c-1.52.64-3.03,1.02-4.54-.01,1.51,0,3.02.01,4.54.01Z"
        fill="#ddabd0"
    />
    <path
        d="m239.26,275.9c2.67.38,5.47-.23,7.64-1.6,1.9-1.19,2.62-3.2,3.37-5.34,1.84,1.11,3.62,2.19,5.41,3.26,4.03,2.4,8,4.95,12.44,6.54,3.45,1.24,7.02,2.06,10.66,2.7,2.68.47,5.33.48,7.99.48,5.7.01,11.3-.79,16.82-2.22,5.18-1.34,10.05-3.37,14.64-6.09.54-.32,1.1-.56,1.69-.34,2.75,1.07,5.69,1.33,8.51,2.05.34.09.89-.33.99.3.07.46-.45.62-.74.86-2.47,2.04-4.95,4.07-7.43,6.09-.77.64-1.61,1.21-2.31,1.91-2.51,2.5-5.26,4.3-9.04,3.5-.08.05-.17.11-.26.16-1.72.04-3.44.08-5.17.13-.3-.06-.6-.1-.84.17-2.09.07-4.17.15-6.27.22h-.01c-.24-.14-.47-.14-.71,0-3.75-.04-7.52.09-11.26-.16-3.18-.21-6.27-1.12-9.36-1.93-5.58-1.47-11.09-3.23-16.62-4.88-6.67-1.97-13.37-3.91-20.28-4.81l.14-1Z"
        fill="#fff"
    />
    <path
        d="m237.19,76.37c.19-1.19,1.56-2.12,3.52-2.09,2.05.21,3.78,1.75,5.53,3.35,2.24,2.06,3.99,4.44,5.23,7.2.26.58.74.66,1.25.52,3.84-1.06,7.62-.43,11.38.38,3.95.85,7.87,1.84,11.5,3.69,1.75.9,2.41,2.13,1.97,3.57-.53,1.72-2.05,2.45-3.96,1.76-2.34-.85-4.59-1.97-7.04-2.52-2.82-.64-5.61-1.45-8.49-1.66-2.24-.16-4.46.3-6.64.85-2.48.62-3.95-.25-4.59-2.7-.9-3.45-2.67-6.31-5.57-8.45-.58-.42-1.13-.76-1.84-.93-1.77-.42-2.5-1.46-2.25-2.97Z"
        fill="#ddabd0"
    />
    <path
        d="m239.8,178.26c.03.19-.09.24-.25.25l.25-.25Z"
        fill="#bccdeb"
    />
    <path
        d="m237.79,180.38c.1-.11.18-.21.28-.32,0,.18-.1.3-.29.33h.01Z"
        fill="#bccdeb"
    />
    <polygon
        points="237.3 347.07 237.31 347.13 237.3 347.12 237.3 347.07"
        fill="#3c6bb1"
    />
    <path
        d="m220.02,188.93c-1.14.76-2.06.95-3-.13-.92-1.05-.92-2.24-.14-3.31s1.77-2,2.66-3c2.86-3.23,5.7-6.47,8.57-9.69,2-2.24,4.02-4.47,6.05-6.68.75-.81,1.5-1.68,2.74-1.36,1.22-.21,2.14.27,2.51,1.28.39,1.07.5,2.29-.36,3.26-2.45,2.76-4.9,5.51-7.59,8.04-1.52,1.43-2.96,2.93-4.32,4.52-2.17,2.54-4.28,5.16-7.12,7.07Z"
        fill="#090608"
    />
    <path
        d="m235.96,265.78c-.7-.5-1.4-1.01-2.1-1.51,1.17-.15,1.76.51,2.1,1.51Z"
        fill="#ddabd0"
    />
    <path
        d="m231.07,191.97c-1.08-.77-1.39-1.81-.99-3.02.28-.88,1.03-1.44,1.74-2,2.34-1.87,4.27-4.11,5.96-6.56.19-.03.28-.15.29-.33.08-.11.17-.21.26-.31l.02-.04c.08-.09.17-.18.25-.27l.05-.05c.08-.08.17-.17.26-.25l.04-.05c.09-.08.17-.17.26-.25l.04-.04c.09-.09.18-.18.27-.26l.03-.03c.16-.01.28-.06.25-.25.07-.07.11-.15.11-.25.5-.01.99,0,1.48-.05,1.13-.11,1.96.36,2.46,1.33.49.97.49,2-.21,2.83-2.88,3.38-5.57,6.94-9.32,9.46-.97.65-2.03,1.27-3.25.39Z"
        fill="#090608"
    />
    <path
        d="m210.77,73.09c-1.84-.11-3.25-1.88-2.33-3.42,2.03-3.4,3.66-7.09,6.87-9.7,3.55-2.88,7.64-3.39,11.95-3.11.86.06,1.07-.09,1.28-1,.49-2.06.87-4.18,1.94-6.08,1.79-3.2,4.54-4.89,8.13-5.33,1.64,0,3.29,0,4.94.01,1.17.12,2.38.12,3.51.41,1.39.36,2.02.72,1.86,3-.1,1.34-.86,1.82-2.07,1.75-.75-.04-1.4.52-2.16.29-1.92-.46-3.83-.43-5.75-.01-2.52.44-3.99,2.15-4.47,5.08-.26,1.57-.34,3.08-.03,4.68.48,2.49-1.47,4.2-4.03,3.72-1.71-.32-3.36-.82-5.13-.88-4.44-.15-7.32,2.12-9.41,5.73-.53.9-.91,1.89-1.43,2.79-.8,1.41-1.95,2.18-3.67,2.07Z"
        fill="#090608"
    />
    <path
        d="m216.39,264.75c-.77,0-1.15-.04-1.16-.83,0-1.05-.07-2.11.02-3.15.1-1.15.58-1.98,1.92-2.22,3.32-.6,6.64-.53,9.93-.01,6.46,1.03,12.26,3.75,17.6,7.48-.01.3-.01.61-.01.91-.34.23-.32.58-.28.92-.32.2-.49.52-.61.87.06.47-.19.74-.57.94-1.52,0-3.03-.01-4.54-.01-1.79-.68-2.04-2.43-2.73-3.87-.34-1-.93-1.66-2.1-1.51-1.54-.24-2.73.26-3.77,1.45-1.22,1.37-2.07,1.2-2.94-.41-.24-.43-.44-.89-.68-1.33-1.37-2.56-3.65-3.06-5.94-1.28-1.24.97-2.37,2.04-4.14,2.05Z"
        fill="#f3d2e6"
    />
    <path
        d="m228.46,209.27c-2.5.44-5.01.47-7.52-.01,2.51,0,5.02.01,7.52.01Z"
        fill="#ddabd0"
    />
    <path
        d="m228.17,134.62h-6.03c2.01-.4,4.02-.41,6.03,0Z"
        fill="#ddabd0"
    />
    <path
        d="m227.1,140.61c-1.52,0-3.03,0-4.54-.02,1.51-.25,3.03-.26,4.54.02Z"
        fill="#3c6bb1"
    />
    <path
        d="m226.92,281.64c-.3.06-.6.11-.84-.16.3-.06.62-.19.84.16Z"
        fill="#bccdeb"
    />
    <path
        d="m226.36,275.7c.56-.49,1.08-.63,1.47.19-.5-.01-1.03.29-1.47-.19Z"
        fill="#bccdeb"
    />
    <path
        d="m226.91,130.5c-1.53.45-2.8.1-3.78-1.15-2.54-3.28-.9-8.27,1.82-10.07,2.49-1.63,5.49-.01,5.9,3.14.05.4,0,.8,0,1.2-.07,3.34-1.58,6.19-3.94,6.88Z"
        fill="#090608"
    />
    <path
        d="m224.22,346.87h-.13s-.09-.07-.09-.07c.12-.16.16-.02.22.07Z"
        fill="#bccdeb"
    />
    <path
        d="m233.64,329.13h-40.18c2.62-1.81,5.49-2.88,8.49-3.57,4.21-.96,8.45-.97,12.78-.7,6.27.39,12.18,2.18,18.17,3.71.27.07.52.23.74.56Z"
        fill="#3c6bb1"
    />
    <path
        d="m196.71,76.07c-1.32-.15-2.25-1.51-2.22-3.83.99-4.02,2.07-8.62,5.04-12.41,3.31-4.21,7.23-7.72,12.4-9.55.54-.2.8-.48.96-1.01.94-3.16,3.37-5.12,5.8-7.04,1.14-.9,3.07-.56,3.93.5.77.95.6,2.59-.41,3.68-.51.55-1.02,1.12-1.6,1.58-1.55,1.24-2.38,2.69-2.11,4.77.16,1.18-1.02,2.48-2.26,2.53-4.01.15-6.83,2.56-9.65,4.95-4.12,3.5-6.03,8.21-7.03,13.37-.32,1.66-1.44,2.61-2.85,2.46Z"
        fill="#ddabd0"
    />
    <path
        d="m233.69,176.58c-1.58,1.51-.85,4.01,1.14,4.56,1.12.32,1.94-.65,2.96-.76h-.01c-1.69,2.46-3.62,4.7-5.96,6.57-.71.56-1.46,1.12-1.74,2-.4,1.21-.09,2.25.99,3.02,1.22.88,2.28.26,3.25-.39,3.75-2.52,6.44-6.08,9.32-9.46.7-.83.7-1.86.21-2.83-.5-.97-1.33-1.44-2.46-1.33-.49.05-.98.04-1.48.05.9-1.56,2.57-2.32,3.72-3.63,1.23-1.41,1.51-2.92.55-4-1.01-1.14-2.62-1.23-4,.01-2.22,2-4.33,4.13-6.49,6.19Zm-9.65,27.19c-13.82-.99-25.14-9.03-29.5-22.87-1.28-4.07-1.6-8.26-1.14-12.38.68-6.05,3.01-11.59,6.91-16.38,5.76-7.05,13.21-10.83,22.25-11.55,1.51.01,3.02.01,4.54.02,2.35.47,4.78.51,7.09,1.23,4.14,1.29,7.91,3.29,11.19,6.13,4.23,3.67,7.42,8.1,9.25,13.43,2.09,6.11,2.5,12.31.76,18.58-3.3,11.89-11.02,19.38-22.84,22.64-2.76.77-5.63,1.36-8.51,1.15Zm-7.34-21.57c.94.2,1.68-.38,2.2-1.35.45-.84.97-1.62,1.61-2.34,2.33-2.6,4.64-5.21,6.95-7.82,1.22-1.39,2.51-2.72,3.6-4.2,1.05-1.42.48-3.16-1.08-3.86-1.42-.64-3.12.04-4.42,1.61-2.45,2.95-4.71,6.05-7.34,8.86-1.63,1.73-3.27,3.52-3.97,5.9-.52,1.74.48,3.16,2.45,3.2Zm2.84.29c-.89,1-1.88,1.93-2.66,3s-.78,2.26.14,3.31c.94,1.08,1.86.89,3,.13,2.84-1.91,4.95-4.53,7.12-7.07,1.36-1.59,2.8-3.09,4.32-4.52,2.69-2.53,5.14-5.28,7.59-8.04.86-.97.75-2.19.36-3.26-.37-1.01-1.29-1.49-2.51-1.28-1.24-.32-1.99.55-2.74,1.36-2.03,2.21-4.05,4.44-6.05,6.68-2.87,3.22-5.71,6.46-8.57,9.69Z"
        fill="#bccdeb"
    />
    <path
        d="m215.48,17.68c1.72-.22,3.45-.42,5.17.02-1.72-.01-3.45-.01-5.17-.02Z"
        fill="#3c6bb1"
    />
    <path
        d="m220.02,281.47c-.77.25-1.54.45-2.35.21.77-.26,1.55-.33,2.35-.21Z"
        fill="#bccdeb"
    />
    <path
        d="m218.54,275.73c-.12.3-.35.22-.57.16,0-.2.04-.41.27-.41.1,0,.2.16.3.25Z"
        fill="#bccdeb"
    />
    <polygon
        points="216.56 346.43 216.57 346.49 216.56 346.49 216.56 346.43"
        fill="#3c6bb1"
    />
    <path
        d="m214.64,319c.4-.51.7-.49.86.18-.31.02-.65.22-.86-.18Z"
        fill="#bccdeb"
    />
    <path
        d="m211.2,94.34c-1.02.06-1.62-.93-2.05-1.91-.28-.65-.31-1.16.02-1.79,1.8-3.36,4.44-5.48,8.2-6.56,3.34-.95,6.72-1.18,9.97-.66,5.53.9,10.29,3.54,13.8,8.09,1.62,2.1,3.15,4.26,4.41,6.59.5.92.94,1.06,1.95.81,8.34-2.1,15.92-.6,22.58,4.95,1.22,1.01,1.49,2.73.7,3.9-.82,1.2-2.45,1.57-3.88.78-.87-.49-1.65-1.12-2.46-1.71-2.32-1.69-4.89-2.66-7.77-2.79-1.88-.46-3.77-.51-5.66-.01-1.03-.1-1.92.4-2.84.72-3.54,1.23-5.28.38-6.78-2.37-1.33-2.46-2.82-4.84-4.57-7.03-3.48-4.33-7.99-6.59-13.61-6.68-3-.04-5.75.39-8.04,2.47-.45.41-.95.82-1.08,1.41-.36,1.6-1.76,1.73-2.89,1.79Z"
        fill="#090608"
    />
    <path
        d="m212.2,318.81c-.39.09-.77.1-1.15-.05.4-.24.78-.26,1.15.05Z"
        fill="#bccdeb"
    />
    <path
        d="m185.19,328.09c-1.25-.75-2.65-.3-3.96-.5-1.14-.97-2.35-.61-3.56-.2-.92-.05-1.83-.09-2.75-.14-1.67-.55-3.36-.8-5.07-.16-.91-.05-1.82-.1-2.74-.15-.07-.05-.13-.11-.2-.17.18-2.24.3-4.49.55-6.73.37-3.28.5-6.57.63-9.86.77-.28.65-.7.18-1.16.06-.82.11-1.63.17-2.44.36-.62.23-1.27.11-1.91,0-2.6.02-5.2-.02-7.8-.01-.67.24-1.12.7-1.56,3.07-2.94,6.68-4.97,10.59-6.56,3.85-1.57,7.77-2.92,11.68-4.29,2.71-.94,5.54-1.38,8.38-1.58,4.79-.33,9.57-.7,14.34-1.19,1.14-.12,2.3-.02,3.45,0,.81.24,1.58.04,2.35-.21,2.02,0,4.04.01,6.06.01.24.27.54.22.84.16,5.12.47,10.25.81,15.34,1.76,6.2,1.17,12.2,3,18.23,4.81,6.05,1.82,12.15,3.46,18.25,5.07,2.2.59,4.48.9,6.74,1.27.56.1,1.19.18,1.76-.12v.06s.01-.05.01-.05c4.29,0,8.58,0,12.87,0v.06-.05c1.97-.37,3.96-.05,5.93-.16.2.04.39.06.54-.12.22-.02.44-.04.65-.06.29.27.58.26.85-.02.82,0,1.63,0,2.44-.02.06.07.11.14.17.21.71,6.96,2.36,13.77,3.41,20.67.27,1.73.66,3.45.85,5.18.14,1.34-.99,2.24-2.07,2.77-2.73,1.32-5.49,2.56-8.3,3.69-1.48.59-2.96,1.22-4.25,2.1-4.51,3.07-9.66,4.19-14.86,5.24-1.97.4-3.95.69-5.95.85-.18-.28-.36-.25-.54-.01-3.23.27-6.45.17-9.68,0-.28-.28-.56-.31-.84.01-2.42-.06-4.77-.65-7.1-1.21-4.72-1.13-9.12-3.13-13.51-5.13-4.66-2.14-9.34-4.3-14.3-5.62-4.32-1.16-8.6-2.57-13.1-3.03-1.65-.17-3.29-.58-4.96-.6-.16-.67-.46-.69-.86-.18-.82-.06-1.63-.13-2.44-.19-.37-.31-.75-.29-1.15-.05-.42.01-.83.02-1.25.03-.2-.23-.39-.22-.56.03-6.74.27-13.02,2.16-18.86,5.52-1.57.9-3.05,1.91-4.26,3.27-.24.26-.4.8-.93.48Z"
        fill="#fff"
    />
    <path
        d="m209.24,318.82c.17-.25.36-.26.56-.03-.19.01-.37.02-.56.03Z"
        fill="#bccdeb"
    />
    <path
        d="m207.72,346.25c.21-.05.35.03.28.28h-.37c-.16-.15-.05-.25.09-.28Z"
        fill="#3c6bb1"
    />
    <path
        d="m197.97,345.96c-.08,0-.16,0-.24-.02.09-.1.18-.12.24.02Z"
        fill="#3c6bb1"
    />
    <path
        d="m135.58,332.43c-.04-.88.58-.86,1.22-.89,2.3-.1,4.56.4,6.87.33,3.49-.11,6.98.22,10.46.35,5.27.2,10.54.37,15.81.6,3.87.17,7.75.27,11.62.5,1.24.07,2.46.1,3.67-.45.81-.36,1.52.07,1.41,1.09-.17,1.54-.34,3.08-.27,4.64.04.81-.42.86-1.04.85-1.65-.02-3.3,0-4.96,0-14.66-1.35-29.36-.89-44.05-.98-.9,0-1.17-.28-1.04-1.1.25-1.64.37-3.28.3-4.94Z"
        fill="#3c6bb1"
    />
    <path
        d="m184.82,104.04c-1.59-.09-2.09-1.18-2.34-2.47-.45-2.26-.77-4.53-.59-6.87-.23-2.39.21-4.75.89-7.05.5-1.69,1.57-2.3,3.03-1.9,1.59.43,2.3,1.62,1.87,3.34-.93,3.7-.73,7.39.06,11.08.54,2.5-.61,4-2.92,3.87Z"
        fill="#ddabd0"
    />
    <path
        d="m194.16,277.8c-2.57.38-5.12,1.16-7.54,2.11-4.09,1.59-8.28,2.94-12.22,4.89-.61.3-1.18.77-2.1.77.94-1.56,1.81-3.01,2.67-4.46.87-1.47,1.94-2.77,3.25-3.87.11.15.24.18.38.03,1.08.19,2.17.17,3.25.08.13.11.24.14.33-.05,7.61.04,13.04-4.61,18.69-8.74,2.5-1.83,4.91-3.8,7.35-5.71.4-.31.8-.68,1.34-.41.52.27.26.81.24,1.2-.27,5.35,4.57,7.31,8.68,6.48,1.07-.22,2.12-.51,3.03-1.14.52-.36.86-.24,1.24.27,2.23,2.99,5.25,3.68,8.7,2.76.83-.22,1.2-.03,1.71.57,1.63,1.94,3.82,2.99,6.1,3.32l-.14,1s-.05,0-.08,0c-3.72-.48-7.44-1.1-11.21-1-.39-.82-.91-.68-1.47-.19-2.61-.13-5.22-.15-7.82.03-.1-.09-.2-.25-.3-.25-.23,0-.27.21-.27.41-3.74-.15-7.43.47-11.15.69-4.23.25-8.47.6-12.66,1.22Z"
        fill="#fff"
    />
    <path
        d="m182.18,277.3c-.09.19-.2.16-.33.05.09-.19.21-.15.33-.05Z"
        fill="#3c6bb1"
    />
    <path
        d="m178.22,277.24c.13.01.25.02.38.03-.14.15-.27.12-.38-.03Z"
        fill="#3c6bb1"
    />
    <path
        d="m176.01,255.71c.75-.26,1.49-.24,2.23-.19,3.62.25,6.56-1.25,8.95-3.73,3.95-4.09,8.58-6.97,13.97-8.66,1.06-.34,2.17-.57,3.16.14,1.85,1.34,1.7,3.7-.35,4.76-1.55.8-3.16,1.52-4.81,2.1-3.06,1.08-5.4,3.16-7.72,5.28-2.58,2.35-5.39,4.25-8.87,5.03-1.15.27-2.29.08-3.19.18-1.09,0-1.95.04-2.79,0-1.28-.09-2.49-1.21-2.51-2.38-.02-1.31.7-2.11,1.93-2.52Z"
        fill="#ddabd0"
    />
    <path
        d="m181.23,327.59c-1.19-.01-2.4.31-3.56-.2,1.21-.41,2.42-.77,3.56.2Z"
        fill="#bccdeb"
    />
    <path
        d="m176.17,95.27c.01-2.21-.31-4.44.26-6.64,0,3.43.01,6.86.02,10.29-.55-1.18-.28-2.43-.28-3.65Z"
        fill="#ddabd0"
    />
    <path
        d="m175.56,165.64c-2.12-.01-4.25-.02-6.38-.02,2.13-.45,4.26-.47,6.38.02Z"
        fill="#ddabd0"
    />
    <path
        d="m172.49,218.51c-2.21.2-4.3-.27-6.01-1.79-2-1.8-2.31-3.63-1.17-6.04.54-1.14,1.35-2.11,2.34-2.89,1.85-1.45,3.71-2.89,5.61-4.28,1.37-1,2.9-.87,3.76.21.73.93.5,2.88-.56,3.79-1.76,1.49-3.58,2.89-5.36,4.36-.23.2-.79.34-.59.73.19.35.66.64,1.12.5,1.35-.41,2.78-.42,4.09-1.09,1.22-.63,2.65-.8,3.83.07,1.35.99,1.26,2.49,1,3.96-.21,1.21-.55,2.41-.48,3.65.02.32-.21.73.24.91.38.15.67-.11.95-.32,1.43-1.1,2.34-2.56,2.99-4.23.53-1.38,1.31-2.45,3.06-2.33,1.64.11,2.77,1.33,2.57,2.93-.52,4.31-4.6,8.93-8.79,9.94-2.31.56-4.75-.43-5.93-2.52-.68-1.2-1.29-2.47-1.04-4.37.22-.88-.29-1.3-1.63-1.19Z"
        fill="#090608"
    />
    <path
        d="m169.53,159.59c1.91-.36,3.81-.57,5.7.1-1.9-.03-3.8-.07-5.7-.1Z"
        fill="#ddabd0"
    />
    <path
        d="m170.73,88.69c-.01,2.21-.03,4.41-.04,6.62-.38-2.21-.45-4.41.04-6.62Z"
        fill="#ddabd0"
    />
    <path
        d="m169.85,327.09c1.71-.64,3.4-.39,5.07.16-1.69-.08-3.39.42-5.07-.16Z"
        fill="#bccdeb"
    />
    <path
        d="m171.63,276.43c-2.5,3.48-4.18,7.51-7.36,10.6-4.16-3.51-8.06-7.36-13.26-9.9,1.94-.92,3.5-2.29,5.65-2.39.31.06.6.07.83-.2,1.72-.12,3.44-.13,5.16,0,.14.21.34.22.55.18,2.77.42,5.56.69,8.43,1.71Z"
        fill="#fff"
    />
    <path
        d="m168.55,304.67c.12.64.25,1.29-.11,1.91-.09-.65-.14-1.29.11-1.91Z"
        fill="#bccdeb"
    />
    <path
        d="m168.27,309.02c.47.46.59.88-.18,1.16,0-.4-.26-.83.18-1.16Z"
        fill="#bccdeb"
    />
    <path
        d="m167.11,326.94c-.19.09-.24.02-.2-.17.07.06.13.12.2.17Z"
        fill="#bccdeb"
    />
    <path
        d="m100.84,88.97c-1.25-.16-1.86-1.11-2.21-2.15-.71-2.12-.19-4.24.21-6.36,1.7-9.05,8.32-13.26,16.13-15.95,3.89-1.35,8.08-1.65,12.32-1.14,2.85.34,5.66.79,8.38,1.52,1.14-8.25,5.58-13.99,13.02-17.45,2.99-1.4,6.19-2.12,9.48-2.31.52-.03.97-.18,1.45-.31,1.51.01,3.03.02,4.54.03.44,0,.95.09.83-.63,2.63-7.33,7.95-11.76,15.21-14.07,3.13-1,6.22-2.22,9.6-2.18,1.76.02,2.63.71,2.85,2.33.19,1.42-.85,2.78-2.43,3.09-3.29.65-6.5,1.58-9.64,2.75-4.61,1.72-8.09,4.65-9.9,9.38-.29.77-.24,1.53-.45,2.28-.65,2.41-1.35,3.09-3.81,3.05-.55,0-1.1-.03-1.65-.04-1.72-.41-3.43-.46-5.15,0-6.88.34-12.73,2.6-16.34,8.9-.71,1.23-1.48,2.48-1.41,4-.6,1.89-.14,3.83-.24,5.75-1.17,2.77-2.82,3.34-5.51,1.94-3-1.54-6.23-2.14-9.57-2.25-1.69-.5-3.39-.4-5.08.01-5.96.52-11.17,2.74-15.13,7.27-2.1,2.38-2.73,5.46-2.66,8.64.01.78.27,1.62-.19,2.35-.61.95-1.41,1.69-2.65,1.54Z"
        fill="#090608"
    />
    <path
        d="m159.62,50.82c1.72-.47,3.43-.42,5.15,0-1.71,0-3.43,0-5.15,0Z"
        fill="#ddabd0"
    />
    <path
        d="m163.2,274.72c-.21.04-.41.03-.55-.18.23-.07.44-.09.55.18Z"
        fill="#bccdeb"
    />
    <path
        d="m163.12,301.83c.04.68.27,1.39-.18,2.03.01-.68-.2-1.39.18-2.03Z"
        fill="#bccdeb"
    />
    <path
        d="m162.91,294.08c.05.06.1.12.14.18-.1,0-.15-.07-.14-.18Z"
        fill="#bccdeb"
    />
    <path
        d="m159.62,44.82c1.01-.62,2.13-.18,3.2-.29.73-.09,1.5.15,2.17-.31.12.72-.39.63-.83.63-1.51-.01-3.03-.02-4.54-.03Z"
        fill="#ddabd0"
    />
    <path
        d="m157.49,274.54c-.23.27-.52.26-.83.2.23-.25.52-.28.83-.2Z"
        fill="#bccdeb"
    />
    <path
        d="m158.08,326.69c-1.09-.02-2.2.32-3.26-.19,1.11-.43,2.22-.75,3.26.19Z"
        fill="#bccdeb"
    />
    <path
        d="m151.78,326.35l-.13.05-.13-.06c.09-.15.18-.15.26,0Z"
        fill="#bccdeb"
    />
    <path
        d="m150.88,326.32c-1.2.1-2.4.35-3.58-.11,1.21-.59,2.4-.51,3.58.11Z"
        fill="#bccdeb"
    />
    <path
        d="m151.06,40.55c-1.85.78-3.73-.4-3.77-2.51-.06-.6.11-1.24.57-1.73,2.38-2.52,4.7-5.36,8.11-6.21,2.79-.7,3.98-2.27,5.14-4.62,2.03-4.14,5.74-6.26,10.19-7.08,2.18-.4,3.96.86,3.95,2.58-.01,1.43-.84,2.36-2.26,2.49-4.1.37-6.65,2.65-7.96,6.46-.23.66-.42,1.33-.65,1.99-.55,1.63-1.63,2.56-3.4,2.69-2.55.19-4.65,1.33-6.46,3.12-1.06,1.05-2.01,2.21-3.46,2.82Z"
        fill="#ddabd0"
    />
    <path
        d="m143.71,326.04c.09-.15.17-.15.25.01l-.13.05-.12-.06Z"
        fill="#bccdeb"
    />
    <path
        d="m143.06,326.01c-.18.02-.36.03-.55.04.17-.28.35-.28.55-.04Z"
        fill="#bccdeb"
    />
    <path
        d="m143.98,127.12c-1.43,1.11-3.05.88-4.39.48-1.43-.43-2.15-1.94-2.22-3.56-.08-1.72.37-3.34.9-4.93.76-2.28,2.71-3.25,5.26-2.77,1.68.31,2.88,2.07,2.88,4.19v.75c-.02,2.27-.47,4.31-2.43,5.84Z"
        fill="#090608"
    />
    <path
        d="m141.87,63.72c-.12,1.91.33,3.85-.24,5.75.1-1.92-.36-3.86.24-5.75Z"
        fill="#ddabd0"
    />
    <path
        d="m134.66,275.35c1.99,0,3.98,0,5.97-.02-1.99.5-3.98.59-5.97.02Z"
        fill="#ddabd0"
    />
    <path
        d="m141.85,326.09c-.69-.01-1.41.29-2.07-.17.74-.49,1.45-.7,2.07.17Z"
        fill="#bccdeb"
    />
    <path
        d="m135.55,325.75c-.19.08-.24-.03-.27-.19.09.06.18.13.27.19Z"
        fill="#bccdeb"
    />
    <path
        d="m134.68,37.59c-2.9,0-5.8.01-8.7.02,2.9-.51,5.8-.49,8.7-.02Z"
        fill="#ddabd0"
    />
    <path
        d="m132.76,97.51c-1.16-.54-1.76-2.29-1.28-3.78.5-1.54,1.61-2.63,2.82-3.58,3.7-2.95,8.03-2.81,12.29-1.98,3.03.59,5.5,2.44,7.36,5,.65.89.95,1.8.9,2.91-.07,1.31-.78,2.07-1.85,2.47-1.37.52-2.6.04-3.3-1.3-1.12-2.13-2.85-3.43-5.17-3.89-.97-.2-1.98-.15-2.97-.21-2.52-.3-4.33.59-5.56,2.88-.75,1.42-2.22,1.96-3.24,1.48Z"
        fill="#090608"
    />
    <path
        d="m126.25,31.85c1.98-.53,4-.22,6-.15.11,0,.21.28.32.44-2.09-.48-4.22-.15-6.32-.29Z"
        fill="#ddabd0"
    />
    <path
        d="m126.55,69.16c-1.69,0-3.39.01-5.08.01,1.69-.41,3.39-.51,5.08-.01Z"
        fill="#ddabd0"
    />
    <path
        d="m126.55,23.23c-2.4.4-4.81.42-7.21-.02,2.4.01,4.81.01,7.21.02Z"
        fill="#ddabd0"
    />
    <path
        d="m128.6,327.05c-34.65.72-68.82,1.42-103.16,2.13.46-.61,1-.73,1.47-.96,9.49-4.7,18.99-9.4,28.49-14.1,1.12-.55,2.28-1.07,2.85-2.3.26-.58.83-.57,1.28-.6,3.86-.3,7.71-.78,11.58-1.05,2.49-.18,4.98-.32,7.47-.25,11.36.29,22.27,2.61,32.61,7.38,3.99,1.83,7.91,3.83,11.83,5.8,1.92.96,3.64,2.22,5.58,3.95Z"
        fill="#3c6bb1"
    />
    <path
        d="m121.61,230.44c-2.17.34-3.31-.44-3.45-2.23-.12-1.49,1.49-3.01,3.24-3.06h.6c3.22.3,5.9,1.78,8.24,3.88.75.67,1.32.91,2.36.62,4.65-1.28,9.19-.63,13.62,1.14,1.62.65,3.24,1.31,4.85,1.98,2.55,1.07,3.05,3.55,1.03,5.15-1.02.81-2.18.6-3.26.16-2.82-1.16-5.59-2.41-8.58-3.11-2.6-.61-5.11-.51-7.59.48-2.2.87-3.34.53-4.82-1.29-1.29-1.59-2.89-2.77-4.8-3.51-.44-.17-.89-.3-1.44-.21Z"
        fill="#ddabd0"
    />
    <path
        d="m120.02,135.51c-1.86,0-3.7,0-5.55,0,1.86-.35,3.7-.36,5.55,0Z"
        fill="#3c6bb1"
    />
    <path
        d="m120.24,213.45c-2.2.46-4.41.48-6.62-.01,2.21.01,4.42.01,6.62.01Z"
        fill="#ddabd0"
    />
    <path
        d="m103.78,187.01c-1.08,0-1.8-.62-2.08-1.42-.27-.76-.39-1.71.34-2.52,2.06-2.28,4.41-4.22,6.7-6.25,1.29-1.14,2.42-2.46,3.87-3.43.74-.49,1.39-1.2,2.25-.83,1.57-.19,2.44.49,2.82,1.77.39,1.27-.11,2.36-1.14,3.09-2.29,1.64-4.32,3.57-6.47,5.37-1.27,1.06-2.5,2.16-3.71,3.29-.74.69-1.57.94-2.58.93Z"
        fill="#090608"
    />
    <path
        d="m94.11,184.28c-2.45-.02-3.65-2.06-2.49-4.07.22-.39.48-.77.79-1.08,5.84-5.84,11.7-11.67,17.55-17.5.28-.28.6-.55.94-.74,1.23-.67,2.41-.61,3.45.36.98.91,1.15,2.41.39,3.57-.32.5-.75.94-1.17,1.36-3.04,3.05-6.02,6.16-9.16,9.1-2.91,2.73-5.8,5.45-8.47,8.42-.48.54-1.2.69-1.83.58Z"
        fill="#090608"
    />
    <path
        d="m106.22,279.88c-.9-.53-1.53-1.24-1.14-2.57.98-3.34,2.55-6.31,4.92-8.85.73-.76,1.71-.06,2.31-.31,2.54-.18,4.72.41,6.89,1.12,1.34.43,2.41,1.18,3.19,2.36.63.96,1.27,1.91,1.9,2.88,2.41,3.7,5.7,6.14,10.14,6.75,1.03.14,1.15.54,1.15,1.41,0,3.41-.8,4.86-3.33,5.86-1.56.62-3.1.21-4.1-1.17-.61-.83-1.04-1.77-1.3-2.79-.36-1.46-.97-2.82-2.58-3.19-1.77-.4-3.06.34-3.97,1.93-.47.81-.88,2.15-2.06,1.83-1.06-.28-1.23-1.54-1.41-2.58-.21-1.26-.46-2.52-.68-3.78-.31-1.78-1.5-2.58-3.15-2.83-1.3-.2-1.94.78-2.64,1.61-.52.61-.98,1.26-1.47,1.89-.76.97-1.77.97-2.67.43Z"
        fill="#f3d2e6"
    />
    <path
        d="m102.27,245.05c-1.28.74-2.72.2-3.39-.95-.69-1.17-.35-2.47.89-3.43,2-1.54,4.38-2.14,6.77-2.56,3.94-.68,7.81-.15,11.58,1.15,2.83.98,5.14,2.68,6.77,5.19.51.78.83.8,1.62.38,3.3-1.79,6.74-3.18,10.6-3.19,4.03-.02,7.69,1.02,10.88,3.56,1.47,1.17,3.12,2.13,4.34,3.59,1.61,1.91.81,4.38-1.57,4.88-.82.18-1.52-.05-2.18-.61-1.22-1.02-2.39-2.11-3.63-3.11-2.29-1.85-4.92-2.39-7.82-2.61-3.41.26-6.58,1.46-9.37,3.55-2.69,2.03-4.86,1.81-6.32-1.16-2.28-4.61-6.13-6.16-10.93-6.26-2.87-.05-5.65.08-8.24,1.58Z"
        fill="#090608"
    />
    <path
        d="m115.21,168.76c-.43,1.03.42,1.88,1.22,2.53.72.58,1.6.56,2.24.06,1.66-1.28,3.3-2.64,4.27-4.54.81-1.61-.59-3.57-2.48-3.54-.08.02-.24.02-.37.08-2.33,1.16-3.9,3.08-4.88,5.41Zm-11.43,18.25c1.01.01,1.84-.24,2.58-.93,1.21-1.13,2.44-2.23,3.71-3.29,2.15-1.8,4.18-3.73,6.47-5.37,1.03-.73,1.53-1.82,1.14-3.09-.38-1.28-1.25-1.96-2.82-1.77-.86-.37-1.51.34-2.25.83-1.45.97-2.58,2.29-3.87,3.43-2.29,2.03-4.64,3.97-6.7,6.25-.73.81-.61,1.76-.34,2.52.28.8,1,1.42,2.08,1.42Zm-9.3-16.38c1.26.88,2.79.46,3.98-1.18.6-.81,1.33-1.45,2.09-2.11,3.12-2.74,6.25-5.46,9.16-8.42.88-.89.81-1.98.48-2.94s-1.16-1.63-2.35-1.46c-1.25-.19-2.07.56-2.87,1.32-2.43,2.31-4.7,4.77-7.24,6.97-1.28,1.1-2.56,2.25-3.51,3.69-1.07,1.64-.98,3.26.26,4.13Zm22.66,37.06c-19.45-.1-32.31-15.51-33.17-30.72-1.21-21.36,14.74-33.87,28.59-35.4,10.79-1.2,20.39,1.57,28.2,9.41,5.33,5.34,8.39,11.81,9.31,19.34,1.21,9.89-1.38,18.76-7.87,26.12-6.75,7.66-15.55,11.34-25.06,11.25Zm-23.03-23.41c.63.11,1.35-.04,1.83-.58,2.67-2.97,5.56-5.69,8.47-8.42,3.14-2.94,6.12-6.05,9.16-9.1.42-.42.85-.86,1.17-1.36.76-1.16.59-2.66-.39-3.57-1.04-.97-2.22-1.03-3.45-.36-.34.19-.66.46-.94.74-5.85,5.83-11.71,11.66-17.55,17.5-.31.31-.57.69-.79,1.08-1.16,2.01.04,4.05,2.49,4.07Z"
        fill="#bccdeb"
    />
    <path
        d="m97.1,124.49c-1.22-.09-2.29.19-3.25-.46-1.14-.77-1.6-1.86-1.19-3.1.37-1.13,1.29-1.62,2.58-1.6,5.72.1,10.64-1.83,14.62-5.99.79-.83,1.49-1.74,2.28-2.57,1.22-1.26,2.8-1.42,3.99-.46,1.03.83,1.24,2.63.29,3.94-1.8,2.48-4,4.59-6.55,6.29-3.91,2.63-8.26,3.86-12.77,3.95Z"
        fill="#ddabd0"
    />
    <path
        d="m96.19,18.06h-7.52c2.51-.46,5.01-.46,7.52,0Z"
        fill="#ddabd0"
    />
    <path
        d="m96.2,113.71c-1.51.43-3.02.39-4.53,0h4.53Z"
        fill="#ddabd0"
    />
    <path
        d="m85.1,267.33c.49-.03,1.01-.25,1.44.18-.49.01-1,.17-1.44-.18Z"
        fill="#bccdeb"
    />
    <path
        d="m80.51,255.81c-.3.06-.59.09-.82-.17.3-.09.58-.04.82.17Z"
        fill="#bccdeb"
    />
    <path
        d="m79.03,304.08h-2.66c.89-.32,1.77-.32,2.66,0Z"
        fill="#bccdeb"
    />
    <path
        d="m78.02,68.78c-1.56.42-2.5-.47-3.11-1.67-1.67-3.29-1.9-6.74-.15-10.01,4.01-7.49,10.27-12.26,18.47-14.39,4.6-1.2,9.18-1.1,13.49,1.25.73.39.93.07,1.24-.45,1.34-2.19,2.96-4.15,4.87-5.88,3.37-3.07,7.36-4.8,11.84-5.46.53-.08,1.05-.21,1.58-.32,2.1.14,4.23-.19,6.32.29,2.02-.04,4.02.18,5.98.66,1.6.4,2.41,1.62,2.12,3.09-.26,1.32-1.9,2.4-3.35,1.96-.9-.28-1.76-.18-2.64-.26-2.9-.47-5.8-.49-8.7.02-5.55.64-9.53,3.72-12.62,8.16-.81,1.15-1.53,2.37-1.95,3.7-.67,2.11-3.83,2.78-5.41,1.19-3.88-3.89-8.59-3.36-13.21-1.86s-8.36,4.41-11.33,8.28c-1.78,2.32-2.75,4.7-1.41,7.69.88,1.97-.06,3.48-2.03,4.01Z"
        fill="#090608"
    />
    <path
        d="m74.88,267.36l.84-.03c-.27.28-.55.28-.84.03Z"
        fill="#bccdeb"
    />
    <path
        d="m74.58,255.79c.22-.37.54-.21.84-.17-.23.27-.54.22-.84.17Z"
        fill="#bccdeb"
    />
    <path
        d="m61.71,269.1c3.94-.62,7.87-1.46,11.9-1.33.27.03.52,0,.64-.28.21-.04.42-.08.63-.13.29.25.57.25.84-.03,3.13-.2,6.25-.19,9.38,0,.44.35.95.19,1.44.18,4.01.59,8.12.05,12.09,1.19.92.26,2.08.34,2.93-.63.44-.49,1.13-.18,1.73-.21.25.66-.27,1.04-.51,1.47-1.17,2.1-2.24,4.22-2.98,6.53-1.23,3.88,1.06,7.56,3.86,9.13,2.5,1.41,4.85,1.42,7.69.04.72,1.75,1.51,3.45,3.06,4.67,2.29,1.79,4.75,1.75,7.2.5.85-.43,1.14-.42,1.73.38,2.15,2.9,5.04,4.62,8.73,3.95,3.79-.69,6.84-2.55,8.37-6.41.63-1.58.9-3.11.88-4.77-.01-.74-.47-1.85.43-2.17,1.09-.39,2.18-.93,3.52-.56,3.77,1.05,6.8,3.24,9.67,5.74,2.67,2.34,5.36,4.66,7.69,7.36.07.09.15.18.22.28l.06.08c-.01.11.04.17.14.18.43,2.52.09,5.04.07,7.57-.38.64-.17,1.35-.18,2.03-.4,4.19-.89,8.38-1.15,12.59-.15,2.45-.47,4.87-.63,7.31-.21,3.07-.11,3.08-3.08,2.93-1.04-.94-2.15-.62-3.26-.19-1.01-.05-2.03-.1-3.04-.15-.08-.16-.17-.16-.26,0-.21-.01-.43-.01-.64-.02-1.18-.62-2.37-.7-3.58-.11-1.11-.06-2.22-.11-3.34-.16-.08-.16-.16-.16-.25-.01-.22,0-.43-.02-.65-.03-.2-.24-.38-.24-.55.04-.22,0-.44.02-.66.04-.62-.87-1.33-.66-2.07-.17-1.41-.06-2.82-.11-4.23-.17-.09-.06-.18-.13-.27-.19-6.66-7.54-15.94-10.77-24.7-14.81-5.79-2.67-12.03-4.02-18.26-5.26-4.37-.88-8.83-1.19-13.29-1.41-.89-.32-1.77-.32-2.66,0-2.68.14-5.37.16-8.03.44-4.7.48-9.4.86-14.06,1.68-2.16.38-4.26.9-6.38,1.4-.59.14-.95.15-1.02-.54-.3-2.53-.57-5.06-.88-7.59-.32-2.68-.71-5.36-.99-8.05-.39-3.96-1.7-7.77-2-11.74,0-.25-.1-.48-.16-.72-.65-2.42-.32-3.32,1.84-4.37,3.02-1.48,5.89-3.25,9.21-4.1,2.58-.65,5.21-.97,7.81-1.39Z"
        fill="#fff"
    />
    <path
        d="m74.58,255.79c.3.05.61.1.84-.17,1.43-.12,2.85-.15,4.27.02.23.26.52.23.82.17,3.9.07,6.32,2.52,8.54,5.29.21.26.33.53.18.82-.17.34-.53.2-.79.18-2.96-.21-5.9-.64-8.88-.64-5.8-.02-11.5.84-17.2,1.77-2.03.33-4.08.59-6.1.97-.29.06-.69.2-1.09-.36,1.78-1.17,3.53-2.34,5.3-3.48,1.47-.94,3.05-1.72,4.11-3.19.57-.8,1.56-.59,2.32-.69,2.54-.36,5.11-.48,7.68-.69Z"
        fill="#fff"
    />
    <path
        d="m216.39,264.75c1.77-.01,2.9-1.08,4.14-2.05,2.29-1.78,4.57-1.28,5.94,1.28.24.44.44.9.68,1.33.87,1.61,1.72,1.78,2.94.41,1.04-1.19,2.23-1.69,3.77-1.45.7.5,1.4,1.01,2.1,1.51.69,1.44.94,3.19,2.73,3.87,1.51,1.03,3.02.65,4.54.01.38-.2.63-.47.57-.94.45-.12.68-.39.61-.87.32-.23.29-.58.28-.92.24-.3.58-.6.01-.91-5.34-3.73-11.14-6.45-17.6-7.48-3.29-.52-6.61-.59-9.93.01-1.34.24-1.82,1.07-1.92,2.22-.09,1.04-.03,2.1-.02,3.15.01.79.39.84,1.16.83Zm-24.3,70.67c.07,1.15.03,2.3-.02,3.45-.03.73.15,1.11.98,1.1,2.25-.02,4.48.08,6.73.25,3.23.25,6.48.16,9.72.27,6.68.24,13.36.43,20.04.63,6.54.2,13.07.28,19.6.62,3.59.19,7.19.13,10.78.26,3.83.15,7.66.24,11.49.36,2.3.07,4.6.16,6.9.28,3.58.19,7.18-.03,10.77.28,3.43.3,6.89.18,10.33.27,5.04.12,10.08.46,15.13.49,1.6,0,3.21-.11,4.8.04,1.37.12,1.78-.23,1.59-1.62-.34-2.43-.27-2.46-2.71-2.43-7.2.1-14.4.21-21.59.32-.4.01-.8.03-1.2.07-2.31.2-4.64.74-6.82-.57-.42-.26-.9-.18-1.32-.08-3.62.79-7.27,1.17-10.97,1.25-1.62.04-3.24.04-4.85-.01-5.73-.19-11.35-1.03-16.77-3.18-3.82-1.51-7.71-2.58-11.85-2.62-13.51-.11-27.02.19-40.53-.28-2.99-.1-5.98-.04-8.96-.31-.84-.07-1.33.16-1.27,1.16Zm-10.24-58.07c-1.08.09-2.17.11-3.25-.08-.13-.01-.25-.02-.38-.03-1.31,1.1-2.38,2.4-3.25,3.87-.86,1.45-1.73,2.9-2.67,4.46.92,0,1.49-.47,2.1-.77,3.94-1.95,8.13-3.3,12.22-4.89,2.42-.95,4.97-1.73,7.54-2.11,4.19-.62,8.43-.97,12.66-1.22,3.72-.22,7.41-.84,11.15-.69.22.06.45.14.57-.16,2.6-.18,5.21-.16,7.82-.03.44.48.97.18,1.47.19,3.77-.1,7.49.52,11.21,1,.03,0,.05,0,.08,0,6.91.9,13.61,2.84,20.28,4.81,5.53,1.65,11.04,3.41,16.62,4.88,3.09.81,6.18,1.72,9.36,1.93,3.74.25,7.51.12,11.26.16-.3.51.15.38.36.38.13,0,.38.06.44-.05.04-.05.02-.15-.08-.33,2.1-.07,4.18-.15,6.27-.22.31.05.63.19.84-.17,1.73-.05,3.45-.09,5.17-.13.19.11.23-.02.26-.16,3.78.8,6.53-1,9.04-3.5.7-.7,1.54-1.27,2.31-1.91,2.48-2.02,4.96-4.05,7.43-6.09.29-.24.81-.4.74-.86-.1-.63-.65-.21-.99-.3-2.82-.72-5.76-.98-8.51-2.05-.59-.22-1.15.02-1.69.34-4.59,2.72-9.46,4.75-14.64,6.09-5.52,1.43-11.12,2.23-16.82,2.22-2.66,0-5.31,0-7.99-.48-3.64-.64-7.21-1.46-10.66-2.7-4.44-1.59-8.41-4.14-12.44-6.54-1.79-1.07-3.57-2.15-5.41-3.26-.75,2.14-1.47,4.15-3.37,5.34-2.17,1.37-4.97,1.98-7.64,1.6-2.28-.33-4.47-1.38-6.1-3.32-.51-.6-.88-.79-1.71-.57-3.45.92-6.47.23-8.7-2.76-.38-.51-.72-.63-1.24-.27-.91.63-1.96.92-3.03,1.14-4.11.83-8.95-1.13-8.68-6.48.02-.39.28-.93-.24-1.2-.54-.27-.94.1-1.34.41-2.44,1.91-4.85,3.88-7.35,5.71-5.65,4.13-11.08,8.78-18.69,8.74-.12-.1-.24-.14-.33.05Zm-14.94,49.42c-.04.19,0,.26.2.17.92.05,1.83.1,2.74.15,1.68.58,3.38.08,5.07.16.92.05,1.83.09,2.75.14,1.16.51,2.37.19,3.56.2,1.31.2,2.71-.25,3.96.5.53.32.69-.22.93-.48,1.21-1.36,2.69-2.37,4.26-3.27,5.84-3.36,12.12-5.25,18.86-5.52.19-.01.37-.02.56-.03.42,0,.83-.02,1.25-.03.38.15.76.14,1.15.05.81.06,1.62.13,2.44.19.21.4.55.2.86.18,1.67.02,3.31.43,4.96.6,4.5.46,8.78,1.87,13.1,3.03,4.96,1.32,9.64,3.48,14.3,5.62,4.39,2,8.79,4,13.51,5.13,2.33.56,4.68,1.15,7.1,1.21.28,0,.56,0,.84-.01,3.23.17,6.45.27,9.68,0,.18.01.36.01.54.01,2-.16,3.98-.45,5.95-.85,5.2-1.05,10.35-2.17,14.86-5.24,1.29-.88,2.77-1.51,4.25-2.1,2.81-1.13,5.57-2.37,8.3-3.69,1.08-.53,2.21-1.43,2.07-2.77-.19-1.73-.58-3.45-.85-5.18-1.05-6.9-2.7-13.71-3.41-20.67.06-.16.05-.27-.17-.21-.81.01-1.62.02-2.44.02-.28.01-.56.02-.85.02-.21.02-.43.04-.65.06-.22-.12-.41-.16-.54.12-1.97.11-3.96-.21-5.92.16v-.06s-.01.05-.01.05c-4.29,0-8.58,0-12.87,0v-.05.04c-.58.3-1.21.22-1.77.12-2.26-.37-4.54-.68-6.74-1.27-6.1-1.61-12.2-3.25-18.25-5.07-6.03-1.81-12.03-3.64-18.23-4.81-5.09-.95-10.22-1.29-15.34-1.76-.22-.35-.54-.22-.84-.16-2.02,0-4.04-.01-6.06-.01-.8-.12-1.58-.05-2.35.21-1.15-.01-2.31-.11-3.45,0-4.77.49-9.55.86-14.34,1.19-2.84.2-5.67.64-8.38,1.58-3.91,1.37-7.83,2.72-11.68,4.29-3.91,1.59-7.52,3.62-10.59,6.56-.46.44-.71.89-.7,1.56.04,2.6.02,5.2.02,7.8-.25.62-.2,1.26-.11,1.91-.06.81-.11,1.62-.17,2.44-.44.33-.19.76-.18,1.16-.13,3.29-.26,6.58-.63,9.86-.25,2.24-.37,4.49-.55,6.73Zm-23.24,5.1c-2.31.07-4.57-.43-6.87-.33-.64.03-1.26.01-1.22.89.07,1.66-.05,3.3-.3,4.94-.13.82.14,1.1,1.04,1.1,14.69.09,29.39-.37,44.05.98,1.66,0,3.31-.02,4.96,0,.62,0,1.08-.04,1.04-.85-.07-1.56.1-3.1.27-4.64.11-1.02-.6-1.45-1.41-1.09-1.21.55-2.43.52-3.67.45-3.87-.23-7.75-.33-11.62-.5-5.27-.23-10.54-.4-15.81-.6-3.48-.13-6.97-.46-10.46-.35Zm-37.45-51.99c.9.54,1.91.54,2.67-.43.49-.63.95-1.28,1.47-1.89.7-.83,1.34-1.81,2.64-1.61,1.65.25,2.84,1.05,3.15,2.83.22,1.26.47,2.52.68,3.78.18,1.04.35,2.3,1.41,2.58,1.18.32,1.59-1.02,2.06-1.83.91-1.59,2.2-2.33,3.97-1.93,1.61.37,2.22,1.73,2.58,3.19.26,1.02.69,1.96,1.3,2.79,1,1.38,2.54,1.79,4.1,1.17,2.53-1,3.33-2.45,3.33-5.86,0-.87-.12-1.27-1.15-1.41-4.44-.61-7.73-3.05-10.14-6.75-.63-.97-1.27-1.92-1.9-2.88-.78-1.18-1.85-1.93-3.19-2.36-2.17-.71-4.35-1.3-6.89-1.12-.6.25-1.58-.45-2.31.31-2.37,2.54-3.94,5.51-4.92,8.85-.39,1.33.24,2.04,1.14,2.57Zm-31.34-12.52c-.21.05-.42.09-.63.13-.3-.11-.55-.09-.64.28-4.03-.13-7.96.71-11.9,1.33-2.6.42-5.23.74-7.81,1.39-3.32.85-6.19,2.62-9.21,4.1-2.16,1.05-2.49,1.95-1.84,4.37.06.24.15.47.16.72.3,3.97,1.61,7.78,2,11.74.28,2.69.67,5.37.99,8.05.31,2.53.58,5.06.88,7.59.07.69.43.68,1.02.54,2.12-.5,4.22-1.02,6.38-1.4,4.66-.82,9.36-1.2,14.06-1.68,2.66-.28,5.35-.3,8.03-.44h2.66c4.46.22,8.92.53,13.29,1.41,6.23,1.24,12.47,2.59,18.26,5.26,8.76,4.04,18.04,7.27,24.7,14.81.03.16.08.27.27.19,1.41.06,2.82.11,4.23.17.66.46,1.38.16,2.07.17.22-.02.44-.03.66-.04.19-.01.37-.02.55-.04.22.01.43.02.65.03l.12.06.13-.05c1.12.05,2.23.1,3.34.16,1.18.46,2.38.21,3.58.11.21,0,.43,0,.64.02l.13.06.13-.05c1.01.05,2.03.1,3.04.15,1.06.51,2.17.17,3.26.19,2.97.15,2.87.14,3.08-2.93.16-2.44.48-4.86.63-7.31.26-4.21.75-8.4,1.15-12.59.45-.64.22-1.35.18-2.03.02-2.53.36-5.05-.07-7.57-.04-.06-.09-.12-.14-.18l-.06-.08c-.07-.1-.15-.19-.22-.28-2.33-2.7-5.02-5.02-7.69-7.36-2.87-2.5-5.9-4.69-9.67-5.74-1.34-.37-2.43.17-3.52.56-.9.32-.44,1.43-.43,2.17.02,1.66-.25,3.19-.88,4.77-1.53,3.86-4.58,5.72-8.37,6.41-3.69.67-6.58-1.05-8.73-3.95-.59-.8-.88-.81-1.73-.38-2.45,1.25-4.91,1.29-7.2-.5-1.55-1.22-2.34-2.92-3.06-4.67-2.84,1.38-5.19,1.37-7.69-.04-2.8-1.57-5.09-5.25-3.86-9.13.74-2.31,1.81-4.43,2.98-6.53.24-.43.76-.81.51-1.47-.6.03-1.29-.28-1.73.21-.85.97-2.01.89-2.93.63-3.97-1.14-8.08-.6-12.09-1.19-.43-.43-.95-.21-1.44-.18-3.13-.19-6.25-.2-9.38,0l-.84.03Zm-59.28,68.04c-.79.83-.13,2.39-.28,3.62-.15,1.22.21,1.63,1.52,1.59,12.45-.35,24.9-.63,37.35-.93,12.66-.3,25.31-.59,37.97-.91,3.54-.09,7.08-.02,10.63-.21,6.4-.33,12.82-.3,19.23-.4,1.9-.03,3.81,0,5.71,0s2.2-.29,2.41-2.16c.07-.6.09-1.2.23-1.78.25-1.08,0-1.48-1.23-1.49-3.55-.05-7.08.3-10.63.35-16.22.22-32.45.59-48.67.91v.25c-3.21,0-6.41-.05-9.62.01-13.72.26-27.44.55-41.16.85-1.18.03-2.73-.47-3.46.3ZM3.51,157.05h-.04c-.1-1.59-.18-3.17,0-4.75h-.01c-.23-1.92.47-3.71.88-5.5.76-3.29,1.99-6.47,3.52-9.47,1.58-3.08,2.78-6.29,4.01-9.51.79-2.07.66-4.18.35-6.19-.66-4.42-2.04-8.75-2.46-13.18-.23-2.44.18-5.05.09-7.56-.13-3.64,1.03-6.99,1.96-10.37.81-2.97,2.61-5.56,4.72-7.84,1.9-2.06,3.57-4.32,5.64-6.24,2.64-2.46,5.73-4.22,8.82-6.01,4.4-2.56,7.89-6.17,11.34-9.83,2.24-2.38,3.25-5.32,4.38-8.32,2.96-7.83,6.14-15.56,10.7-22.68,2.28-3.56,5.08-6.4,8.55-8.65,4.63-3.02,9.22-6.13,14.61-7.7,2.67-.78,5.42-1.05,8.17-1.22,5.19-.33,10.35-.07,15.41,1.26,3.55.93,6.92,2.45,10.52,3.28,3.57.82,7.18.73,10.8.69,3.59-.04,6.99-1.02,10.38-2.02,2.52-.74,4.63-2.33,6.66-3.98,4.34-3.53,9.03-6.48,14.34-8.33,2.32-.81,4.76-1.13,7.14-1.66,2.76-.61,5.57-.8,8.37-.97,4.97-.29,9.75.86,14.44,2.37,1.95.62,3.86,1.35,5.77,2.07,2.19.82,4.13,1.99,5.85,3.48,2.98,2.56,6.38,3.49,10.25,3.58,3.06.06,6.1-.13,9.15-.13,5.84-.01,11.02,1.67,15.49,5.58,3.04,2.66,5.3,5.74,6.64,9.54.36,1.02.88,1.99,2.46,1.83,4.03-.42,8.04-.87,11.98-1.96,3.77-1.04,7.32-2.59,10.91-4.08,2.88-1.2,5.84-2.19,8.84-3.05,4.23-1.2,8.51-2.13,12.8-3.05,5.27-1.14,10.58-1.3,15.93-.57,1.99.27,4.02.35,5.99.7,3.79.68,7.53,1.58,11.32,2.22,3.62.62,7.18,1.62,10.79,2.16,3.07.45,6.21.69,9.35.64,5.2-.08,10.39.39,15.43,1.63,6.23,1.53,12.01,4.11,15.85,9.55,2.52,3.58,4.12,7.66,5.08,11.95.98,4.39,1.86,8.8,2.36,13.26.39,3.47.47,6.96,1.17,10.4,1.28,6.19,4.82,10.49,10.54,13.04,1.79.81,3.66,1.45,5.45,2.25,5.57,2.49,10.05,6.56,14.57,10.47,3.25,2.83,6.05,6.18,8.19,10,1.84,3.3,3.13,6.73,3.43,10.58.44,5.64-.47,11.04-2.05,16.41-1.23,4.15-3.07,8.06-4.83,11.98-2.67,5.97-1.58,11.24,1.93,16.39,5.09,7.47,8.27,15.76,9.97,24.6.49,2.51.76,5.12.65,7.66-.28,6.93-2.59,12.99-7.57,18.12-3.04,3.13-6.16,6.38-7.96,10.52-1.54,3.51-2.48,7.23-3.42,10.94-.92,3.63-2.12,7.16-3.58,10.61-1.02,2.44-2.04,4.87-3.72,6.96-2.99,3.71-6.88,6.24-11.06,8.37-1.99,1.01-4.08,1.84-6.14,2.73-2.81,1.22-5.8,1.85-8.8,2.36-4.65.8-9.35,1.2-14.06,1.58-6.57.54-13.1-.1-19.64-.04-1.35,0-2.71-.09-4.03.26l-.08-.06-.08.07c-2.36.38-4.58,1-6.72,2.22-1.59.91-3.32,1.65-5.15,2.55,1.81.77,3.63.81,5.35,1.2,2.51.56,5.08.75,7.67.66,2.05-.07,2.27.14,2.38,2.23.11,2.08.03,4.17.33,6.25.41,2.81.94,5.62,1.07,8.44.12,2.71.92,5.3.86,8.08-.06,2.8.29,5.65.31,8.49.01.56.25.71.81.79,2.84.38,4.11,1.9,4.18,4.77.03,1.22.15,2.45.72,3.56.2.4.25.8.05,1.12-.24.39-.3.84-.16,1.15.96,2.09-.13,4.34.56,6.46.35,1.07.78,2.13.69,3.32-.06.75-.27,1.36-.81,1.86-4.15,3.88-8.29,7.77-12.44,11.65-2.66,2.48-5.35,4.94-8,7.44-.81.76-1.72,1.4-2.48,2.23-.75.8-1.81,1.13-3.03.81-1.16-.31-2.33.23-3.53.19-12.46-.43-24.93-.8-37.4-1.16-1.29-.03-2.58.06-3.87.14-.91.06-1.77-.03-2.62-.36v-.07s-.01.07-.01.07c-2.95-.23-5.88.09-8.83.03-.01-.09.07-.26-.14-.18-.02,0,0,.12,0,.18-1.87-.75-3.85-.4-5.75-.38-1.34.02-2.69.03-4.03.08-.03-.07-.05-.15-.08-.22-.02.07-.04.15-.06.22-.42-.48-1.01-.33-1.54-.35-4.48-.14-8.96-.28-13.44-.37-1.38-.03-2.77.12-4.15.15-.47.01-1.01.19-1.35-.34v-.06s-.01.05-.01.05h.01c-4.36-.2-8.73.15-13.09-.25-.06-.09-.1-.23-.22-.07-2.48-.1-4.95-.21-7.43-.31v-.06s0,.06,0,.06c-2.86-.23-5.71.11-8.56.04.07-.25-.07-.33-.28-.28-.14.03-.25.13-.09.28-2.03-.68-4.11-.38-6.17-.35-1.17.02-2.36.34-3.49-.22-.06-.14-.15-.12-.24-.02-7-.18-13.99-.55-21-.64-6.3-.08-12.58-.89-18.9-.88-7.46.02-14.93-.08-22.39-.3-1.76-.06-3.53-.4-5.33-.36-25.3.63-50.6,1.23-75.91,1.83-.54.02-1.11-.04-1.57.35-.29-.39-.57-.42-.85.01-12.6-.14-25.18.42-37.78.62l-.02-.1-.02.09c-2.3-.45-4.22-2.68-4.21-5.08,0-2.85.03-5.71.21-8.55.08-1.39.65-2.65,1.99-3.46,8.43-5.09,17.5-8.95,26.22-13.49.94-.49,1.85-1.06,2.91-1.33.51-.13,1.07-.37.55-1.15-.55-.82-.55-1.79-.57-2.75-.09-4.25-.62-8.46-1.37-12.63-.58-3.19-.64-6.43-1.21-9.61-.42-2.33-.94-4.65-1.29-7.01-.38-2.55-.68-5.1-.46-7.68.07-.8.38-1.74,1.07-2.16,2.15-1.31,3.41-3.46,5.13-5.16,2.05-2.02,4.27-3.81,6.53-5.57.74-.57,1.45-1.2,2.16-1.82s.4-1.06-.35-1.21c-.86-.17-1.74-.21-2.62-.29-3.33-.27-6.63-.7-9.94-1.15-2.91-.39-5.84-.64-8.7-1.27-2.73-.61-5.39-1.47-8.03-2.42-3-1.09-5.66-2.79-8.25-4.54-2.02-1.37-3.73-3.21-5.54-4.89-4.43-4.08-5.91-9.48-7.23-14.99-.89-3.74-.78-7.52-.54-11.35.25-3.9,1.38-7.46,3.06-10.92,2.13-4.42,5.6-7.95,8.05-12.16.8-1.37,1.47-2.78,2.08-4.23.48-1.12.38-2.32-.2-3.44-1.71-3.29-3.42-6.57-5.08-9.88-1.6-3.19-2.47-6.64-3.54-10.02-.79-2.53-.96-5.16-1.44-7.73-.09-.5.07-1.05.11-1.57h.05Zm3.91,72.86c1.3,4.61,3.42,8.54,7.31,11.59,4.31,3.38,8.89,6.01,14.21,7.33,3.51.87,7.1,1.28,10.67,1.83,2.61.41,5.26.59,7.89.88,4.4.22,8.81.15,13.21,0,2.55-.17,5.06-.66,7.61-.9,4.18-.39,8.28-1.05,12.54-.61,5.01.51,8.91,2.66,11.87,6.58,2.95,3.9,7.17,5.15,11.66,5.45,4.1.27,8.25.1,12.34.68,4.62.65,8.64,2.4,11.15,6.68.9,1.55,1.84,3.11,3.24,4.29,1.02.86,2.08,1.7,3.54,1.65,1.99.57,3.98.48,5.97-.02,2.7-.3,5.06-1.54,7.21-3.03,5.74-3.96,12.06-4.16,18.59-3.08,3.53.58,6.96,1.68,10.53,2.06,5.06.53,9.92.28,14.29-2.9,4.09-2.97,8.12-6,12.13-9.07,5.73-4.38,12.02-7.44,19.46-7.06,5.2.27,10.29,1.33,15.07,3.47,6.75,3.02,12.94,7.1,19.36,10.72,4.82,2.72,9.4,5.87,14.78,7.51,4.32,1.32,8.72,2.07,13.23,2.21,1.7-.01,3.4.3,5.08-.22h.01c1.38.01,2.75-.07,4.14-.27,7.86-1.08,15.27-3.44,21.99-7.75,4.08-2.61,8.27-5.03,12.65-7.11,3.12-1.48,6.36-2.48,9.83-2.69,2.36,0,4.73,0,7.11.02,5.77.11,11.55.36,17.33-.01,2.44-.27,4.88-.52,7.32-.82,6.99-.87,13.56-2.97,19.69-6.48,4.74-2.72,8.19-6.42,10.02-11.65,1.3-3.74,2.64-7.46,3.52-11.31,1.75-7.68,4.93-14.57,10.68-20.11.97-.94,1.81-2.01,2.69-3.04,3.29-3.81,4.85-8.35,4.92-13.26.04-3.17-.5-6.39-1.29-9.51-1.73-6.82-4.43-13.22-8.36-19.08-2.73-4.08-4.7-8.48-4.65-13.46.03-3.91,1.58-7.56,3.14-11.04,2.49-5.55,4.7-11.08,5.32-17.23.51-5.08.16-9.85-2.69-14.18-5.77-8.76-13.47-15.25-23.21-19.16-11.73-4.7-16.06-12.86-16.85-23.78-.17-2.37-.37-4.74-.67-7.09-.53-4.1-1.31-8.17-2.41-12.15-2.4-8.7-6.49-13.43-15.69-15.61-3.71-.89-7.46-1.39-11.26-1.57-1.37-.24-2.76-.16-4.14-.13-1.54-.01-3.09-.03-4.63-.05-1.23-.15-2.47-.24-3.69-.47-2.9-.53-5.8-1.12-8.69-1.7-3.38-.68-6.74-1.43-10.13-2.02-3.5-.61-7.03-1.05-10.55-1.56-2.4-.44-4.81-.49-7.22,0-2.7-.15-5.32.35-7.94.92-6.22,1.35-12.41,2.81-18.34,5.15-3.56,1.4-6.98,3.13-10.69,4.14-5.27,1.44-10.63,2.32-16.09,2.82-5.35.49-10.72.81-16.05,1.65-3.56.56-7.13,1-10.66,1.75-9.63,2.05-17.1,7.83-23.46,14.8-6.1,6.68-10.67,14.48-12.73,23.52-.93,4.04-1.89,8.07-2.2,12.21-.57,2.2-.25,4.43-.26,6.64,0,1.22-.27,2.47.28,3.65.6,2.03.12,3.53-1.26,3.89-1.78.46-3.32-.46-3.85-2.39-.19-.66-.24-1.37-.32-2.06-.12-1.01-.22-2.03-.33-3.05.01-2.21.03-4.41.04-6.62.44-.6-.11-1.19.01-1.81.54-2.88.98-5.77,1.54-8.65.79-4.05,1.78-8.11,3.55-11.81,4.77-9.98,11.15-18.65,20.14-25.49,8.2-6.22,17.42-9.01,27.32-10.2,3.48-.42,6.97-.89,10.49-.98.44-.01,1.22-.08.76-1.08-2.79-6.01-7.16-9.97-13.89-10.97-1.72-.44-3.45-.24-5.17-.02-3.29.09-6.56.29-9.85-.2-3.29-.48-6.58-1.13-9.1-3.37-4.53-4.02-10.05-5.7-15.69-7.04-4.97-1.19-10.01-.92-15.07-.14-7.52,1.15-14.08,4.23-19.86,9.12-3.08,2.61-6.57,4.5-10.48,5.54-2.91.78-5.91,1.14-8.88,1.64-2.4,0-4.81,0-7.21-.02-3.58-.37-7.09-.98-10.51-2.19-4.1-1.44-8.18-3.04-12.64-2.96-2.51-.46-5.01-.46-7.52,0-2.23-.03-4.41.21-6.56.88-4.98,1.57-9.2,4.51-13.5,7.31-1.91,1.24-3.55,2.78-4.86,4.63-4.63,6.55-7.97,13.74-10.55,21.3-1.6,4.7-3.38,9.22-6.94,12.92-4.61,4.79-9.6,8.99-15.4,12.3-5.64,3.22-9.81,8.05-12.83,13.73-1.7,3.18-2.09,6.83-2.16,10.45-.32,1.53-.31,3.06,0,4.59-.13,4.46,1.33,8.67,2.05,12.99.56,3.32.81,6.62-.18,9.89-1.49,4.9-3.87,9.43-5.93,14.1-1.17,2.63-2.07,5.42-2.19,8.37-.63,2.08-.24,4.2-.22,6.3-.21.52.22.92.24,1.42.19,4.68,1.9,8.97,3.46,13.29,1.3,3.62,3.43,6.86,5.23,10.24,2.25,4.2,1.82,8.04-.46,11.99-2.06,3.56-4.43,6.89-6.83,10.21-2.8,3.87-4.48,8.15-4.8,12.93-.35,1.43-.32,2.86,0,4.29.02,2.63.46,5.18,1.18,7.72Zm336.75,95.02c.67-.61.68-1.25.6-2.01-.24-2.07-.45-4.13-.72-6.58-1.92,3.09-4.18,5.55-6.28,8.12-3.53,4.31-6.68,8.95-10.67,12.86-1.34,1.32-1.51,2.47-.78,4.1.23-.18.43-.32.6-.49,5.75-5.33,11.48-10.69,17.25-16Zm-7.24-8.03c1.6-1.85,2.95-3.86,4.28-5.98-2.08-.28-2.18-.37-3.45.82-5.93,5.52-12.83,9.76-19.3,14.56-2.19,1.63-4.76,2.56-7.19,3.74-2.76,1.35-5.77,2.18-8.29,4.13,6.39-.16,12.79-.34,19.18-.49.44-.02.77-.19,1.05-.5.88-.95,1.82-1.87,2.6-2.9,3.52-4.62,7.33-8.99,11.12-13.38Zm-.17-12.74c.97-.7,1.31-1.27,1.22-2.69-.31-4.78-.74-9.56-.97-14.34-.13-2.57-.68-5.07-.87-7.61-.14-1.89-.71-1.06-1.46-.45-5.18,4.25-10.33,8.54-15.59,12.7-1.14.91-1.55,1.84-1.35,3.15.15.97.27,1.95.55,2.88,1.61,5.42,3.43,10.77,4.73,16.38.42-.25.78-.42,1.08-.66,4.11-3.27,8.39-6.32,12.66-9.36Zm-143.3,24.97h40.18c-.22-.33-.47-.49-.74-.56-5.99-1.53-11.9-3.32-18.17-3.71-4.33-.27-8.57-.26-12.78.7-3,.69-5.87,1.76-8.49,3.57Zm-29.19-42.1c3.18-3.09,4.86-7.12,7.36-10.6-2.87-1.02-5.66-1.29-8.43-1.71-.11-.27-.32-.25-.55-.18-1.72-.13-3.44-.12-5.16,0-.31-.08-.6-.05-.83.2-2.15.1-3.71,1.47-5.65,2.39,5.2,2.54,9.1,6.39,13.26,9.9Zm-138.83,42.15c34.34-.71,68.51-1.41,103.16-2.13-1.94-1.73-3.66-2.99-5.58-3.95-3.92-1.97-7.84-3.97-11.83-5.8-10.34-4.77-21.25-7.09-32.61-7.38-2.49-.07-4.98.07-7.47.25-3.87.27-7.72.75-11.58,1.05-.45.03-1.02.02-1.28.6-.57,1.23-1.73,1.75-2.85,2.3-9.5,4.7-19,9.4-28.49,14.1-.47.23-1.01.35-1.47.96Zm63.79-67.26c.15-.29.03-.56-.18-.82-2.22-2.77-4.64-5.22-8.54-5.29-.24-.21-.52-.26-.82-.17-1.42-.17-2.84-.14-4.27-.02-.3-.04-.62-.2-.84.17-2.57.21-5.14.33-7.68.69-.76.1-1.75-.11-2.32.69-1.06,1.47-2.64,2.25-4.11,3.19-1.77,1.14-3.52,2.31-5.3,3.48.4.56.8.42,1.09.36,2.02-.38,4.07-.64,6.1-.97,5.7-.93,11.4-1.79,17.2-1.77,2.98,0,5.92.43,8.88.64.26.02.62.16.79-.18Z"
        fill="#090608"
    />
    <path
        d="m74.25,267.49c-.12.29-.37.31-.64.28.09-.37.34-.39.64-.28Z"
        fill="#bccdeb"
    />
    <path
        d="m56.56,73.08c1.33.18,2.17,1.17,2.02,2.83-.15,1.72.63,2.74,1.96,3.54,2.42,1.47,5.02,2.42,7.85,2.67.77.02,1.48-.12,2.19-.43,2.17-.92,3.6-.43,4.84,1.54.97,1.56,1.57,1.76,3.31,1.24,1.29-.38,2.44-1.16,3.84-1.2,1.38-.05,2.51.27,3,1.69.45,1.3-.02,2.82-1.36,3.46-2.64,1.26-5.3,2.58-8.43,1.82-1.09-.26-2.24-.45-2.98-1.26-1.1-1.2-2.38-1.13-3.84-1.24-5.37-.4-10.27-2.1-14-6.2-1.58-1.75-2.12-3.93-1.42-6.28.42-1.44,1.69-2.35,3.02-2.18Z"
        fill="#ddabd0"
    />
    <path
        d="m67.76,51.91c-1.24-.59-1.81-2.62-1.07-4.24,1.15-2.52,2.75-4.78,4.86-6.58,2.93-2.49,5.99-4.8,9.5-6.46,4.15-1.96,8.57-2.93,13.06-3.64.99-.15,1.96-.45,2.82-.3,1.54-.04,2.92.02,3.68,1.43,1.09,2-.41,4.08-2.95,4.28-5.82.46-11.47,1.68-16.59,4.59-3.42,1.94-6.82,4.01-8.92,7.56-.25.43-.52.86-.72,1.31-.89,1.99-2.21,2.74-3.67,2.05Z"
        fill="#ddabd0"
    />
    <path
        d="m64.95,211.98c-.01,1.69-.02,3.37-.02,5.06-.55-1.69-.42-3.37.02-5.06Z"
        fill="#ddabd0"
    />
    <path
        d="m59.54,118.29c1.05-.96,2.33-1.01,3.51-.53,1.05.43,1.42,1.44,1.3,2.62-.07.69-.43,1.13-.9,1.49-1.63,1.28-2.33,2.97-1.66,4.9.68,1.93,2.6,2.55,4.36,2.74,2.96.32,4.08,1.76,4.48,4.3.38,2.42,1.39,4.44,3.53,5.84,1.35.88,1.74,2.71,1.07,4.16-.61,1.32-1.76,1.48-3.03,1.39-.92-.06-1.26-.92-1.92-1.35-2.77-1.8-4.17-4.52-5.01-7.57-.26-.95-.7-1.38-1.65-1.64-4.39-1.2-7.42-4.97-7.41-9.91.12-2.05,1.2-4.49,3.33-6.44Z"
        fill="#ddabd0"
    />
    <path
        d="m51.78,345.95c.28-.43.56-.4.85-.01-.29,0-.57,0-.85.01Z"
        fill="#3c6bb1"
    />
    <path
        d="m194.54,180.9c4.36,13.84,15.68,21.88,29.5,22.87,2.88.21,5.75-.38,8.51-1.15,11.82-3.26,19.54-10.75,22.84-22.64,1.74-6.27,1.33-12.47-.76-18.58-1.83-5.33-5.02-9.76-9.25-13.43-3.28-2.84-7.05-4.84-11.19-6.13-2.31-.72-4.74-.76-7.09-1.23-1.51-.28-3.03-.27-4.54-.02-9.04.72-16.49,4.5-22.25,11.55-3.9,4.79-6.23,10.33-6.91,16.38-.46,4.12-.14,8.31,1.14,12.38Zm-110.57-3.93c.86,15.21,13.72,30.62,33.17,30.72,9.51.09,18.31-3.59,25.06-11.25,6.49-7.36,9.08-16.23,7.87-26.12-.92-7.53-3.98-14-9.31-19.34-7.81-7.84-17.41-10.61-28.2-9.41-13.85,1.53-29.8,14.04-28.59,35.4Zm-35.62-83.01c-.47-1.32.14-3.02,1.32-3.44,1.61-.56,2.96.18,3.58,1.63.96,2.26,2.41,4.25,4.36,5.75.86.67,1.69,1.37,2.53,2.07,2.38,2.01,5.1,3.04,8.2,3.51,3.37.5,6.3-.02,8.87-2.26.4-.35.64-.3.99.04.76.72,1.51,1.47,2.35,2.1,4.91,3.69,10.35,5.43,16.51,4.23,1.41-.27,2.55-1.16,3.5-2.21,1.07-1.19,2.11-2.42,2.83-3.87.95-1.95,2.15-2.49,3.78-1.79,1.75.76,2.25,2.86,1.34,4.46-2.76,4.85-6.35,8.76-12.31,9.53h-4.53c-2.91-.16-5.64-1.07-8.31-2.18-.36-.15-.78-.47-1.11-.21-.38.28-.04.69.05,1.07,1.89,8.07,3.75,16.15,5.62,24.22.66,2.87,1.33,5.73,1.98,8.6.07.3.09.6.45.82,6.82-6.21,14.82-9.86,24.11-10.51h.01c1.85,0,3.69,0,5.55,0,15.41,1.62,26.45,9.4,32.99,23.46.73,1.55,1.28,3.18,1.79,4.82.26.85.46,1,1.26.49,3.3-2.09,6.87-3.49,10.72-4.25.91-.18,1.9.11,2.75-.44,1.9.03,3.8.07,5.7.1,2.62.53,5.27.88,7.75,2.02,1.41.65,2.82,1.28,4.06,2.2,1,.74,1.25.49,1.52-.61,1.72-7.11,5.26-13.18,10.5-18.28,5.5-5.33,12.19-8.33,19.55-9.98,1.12-.25,2.35-.28,3.53-.42h6.03c2.01.42,4.04.75,6.03,1.27,6.05,1.61,11.54,4.23,15.96,8.84,1.82,1.9,3.89,3.56,5.42,5.97,2.61-3.71,5.68-6.78,8.71-9.85,2.79-2.83,5.97-5.29,9.1-7.75,8.37-6.58,17.37-12.08,27.45-15.68,4.58-1.63,9.28-2.64,14.15-2.25,3.69.29,6.98,1.54,8.88,5.09,1.09,2.04,1.34,4.27,1.06,6.52-.3,2.47-.94,4.87-2.07,7.12-.65,1.32-1.7,1.83-3.17,1.71-1.32-.11-1.88-.92-2.35-1.99-.22-.51-.27-.92-.05-1.4.97-2.06,1.52-4.25,1.95-6.48.52-2.64-1.61-4.75-4.83-4.91-5.48-.28-10.51,1.37-15.42,3.48-10.11,4.34-19.1,10.44-27.34,17.68-3.8,3.35-7.32,6.97-10.47,10.94-.31.39-.55.94-.96,1.14-2.03,1.02-1.47,2.48-.78,3.99,1.37,3.01,2.21,6.15,2.42,9.45.02.28.2.55.3.83v7.53c-.53,1.82-.65,3.73-1.18,5.57-3.85,13.37-12.25,22.23-25.64,26.33-2.27.69-4.58,1.03-6.88,1.5-2.5,0-5.01-.01-7.52-.01-8.65-1.09-16.13-4.62-22.36-10.73-4.94-4.85-8.22-10.7-9.98-17.35-.74-2.81-1.23-5.72-1.04-8.67.04-.71-.15-1.16-.82-1.56-.81-.48-1.46-1.2-2.21-1.79-2.65-2.04-5.71-3.04-8.97-3.52-2.12-.49-4.25-.47-6.38-.02-4.72.38-8.77,2.37-12.47,5.22-.41.32-.45.69-.46,1.17-.03,2.23-.05,4.48-.29,6.68-.59,5.49-2.2,10.72-5.1,15.49-1.41,2.34-2.92,4.59-4.97,6.48-2.9,2.67-5.51,5.64-9.07,7.56-4.86,2.62-9.91,4.5-15.45,4.92-.38.03-.75.21-1.13.31-2.2,0-4.41,0-6.62-.01-2.11-.46-4.27-.59-6.37-1.19-11.67-3.36-20.2-10.43-25.49-21.37-1.93-3.98-3.19-8.22-3.55-12.6-.77-9.18,1.31-17.72,6.47-25.43.61-.91.72-1.7.46-2.77-1.5-6.23-2.87-12.48-4.32-18.72-1.21-5.19-2.48-10.37-3.7-15.56-.48-2.06-.95-4.12-1.35-6.19-.12-.66-.42-.88-1-.75-7.82,1.71-14.32-.76-19.87-6.25-2.6-2.57-5.25-5.09-6.55-8.65Z"
        fill="#090608"
    />
    <path
        d="m19.99,222.75c4.51-.71,8.78,0,12.85,2.07,2.86,1.46,5.07,3.57,6.43,6.47.49,1.05.93,1.25,2.09.98,5.25-1.23,10.5-1.42,15.59.79,1.08.47,2.09,1.05,2.26,2.37.34,2.51-1.58,3.91-4.15,3.05-1.08-.36-2.18-.7-3.26-1.08-1.08-.39-2.18-.13-3.28-.24-2.77.07-5.46.25-8.02,1.63-1.93,1.05-3.72.24-4.77-1.76-.53-1.01-1.01-2.06-1.46-3.11-1.33-3.06-3.92-4.45-6.9-5.49-2.3-.81-4.63-.45-6.94-.58-1.25-.07-2.67-1.35-2.7-2.49-.04-1.08,1.13-2.43,2.26-2.61Z"
        fill="#090608"
    />
    <path
        d="m49.07,193.6c.48,1.58.12,3.21.22,4.81-.6-1.58-.2-3.21-.22-4.81Z"
        fill="#ddabd0"
    />
    <path
        d="m60.71,251.53c-4.4.16-8.81.23-13.21,0,.37-.37.84-.23,1.28-.23,3.55,0,7.1,0,10.65,0,.43,0,.9-.14,1.28.22Z"
        fill="#ddabd0"
    />
    <path
        d="m45.39,116.21c1.07-1.65,2.45-2.15,3.77-1.39,1.2.69,1.52,2.41.71,3.98-1.33,2.57-2.73,5.09-3.62,7.88-1.59,5.02-1.12,8.23,2.75,11.77,2.1,1.93,4.72,2.32,7.54,1.78,1.15-.23,2.39-.26,3.57-.12,1.7.21,2.5,3.04,1.43,5.03-1.09,2.02-2.3,3.97-2.96,6.2-.6,2.07-.8,4.21-.49,6.31.4,2.76,2.5,3.98,4.99,4.7,1.24.36,2.52.81,2.76,2.34.37,2.35-.81,3.54-3.26,3.38-4.08-.27-8.73-3.92-9.82-7.84-.44-1.58-.6-3.23-.47-4.65-.01-2.98.38-5.65,1.57-8.14.36-.77.24-.99-.59-1.13-1.59-.26-3.13-.67-4.63-1.34-3.76-1.7-6.14-4.58-7.82-8.28-1.74-3.82-1.06-7.48.11-11.24.96-3.07,2.57-5.8,4.09-8.59.12-.22.24-.44.37-.65Z"
        fill="#090608"
    />
    <path
        d="m32.55,130.34c.19,4.29,1.15,8.53,4.47,11.74.5.49,1.12.85,1.6,1.35,1.14,1.16,1.39,2.86.7,4.3-2.5,5.19-1.66,9.98,2.49,14.17.96.96,1.94,1.85,1.8,3.43-.19,2.09-2.18,3.31-3.96,2.22-2.05-1.24-3.46-3.18-4.71-5.15-1.51-2.38-3.03-6.34-2.78-10.12-.15-1.62.16-3.33.91-4.94.3-.65.08-.99-.34-1.43-3.88-4.01-5.32-8.97-5.7-14.41-.46-6.43,1.2-12.31,4.24-17.9.69-1.26,1.66-2.24,2.83-3.03,1.22-.81,2.27-.44,3.19.54.95,1.02.84,2.18.05,3.13-3.86,4.71-5.05,10.28-4.79,16.1Z"
        fill="#ddabd0"
    />
    <path
        d="m395.11,185.67c.9.88,2.52,1.21,2.94,2.15.43.97-.54,2.39-.43,3.15.03,4.51,2,7.41,4.94,9.87,1.27,1.07,2.53.97,3.86.49,1.31-.46,1.74-1.69,1.73-2.87,0-1.17-.43-2.37-1.83-2.74-1.53-.41-2.72-2.01-2.95-3.57-.25-1.75.95-2.98,1.34-4.49.54-2.09.2-3.61-1.99-4.36-1.03-.35-2.13-.65-3.1-1.3-2.43-1.62-4.89-5.86-2.43-9.44.84-1.22,1.54-2.57,2.85-3.43,1.09-.72.71-1.91.61-2.9-.06-.64-.6-1.13-1.35-1.19-1.63-.13-3.17-.13-4.24,1.48-.31.47-.42,1.03-.78,1.42-5.25,5.65-4.22,12.84.83,17.73Zm-21.3-93.4c.94,1.85,1.22,3.71.84,5.79-.35,1.97-1.37,3.64-1.97,5.48-.7,2.15-.25,3.39,1.73,4.31,2.72,1.27,4.87,3.05,6.11,5.87,2.16,4.9,4.2,9.74,1.29,15.13-1.18,2.19-.44,3.67,1.87,4.82,1.48.75,2.57,1.86,3.42,3.25,1.4,2.27,1.76,4.85,2.16,7.41.31,1.96.55,3.86-.48,5.82-.74,1.41.22,2.88,1.75,3.44,1.67.61,3.09,0,3.86-1.79,1.04-2.41.98-4.9.64-7.48-.71-5.4-1.9-10.54-6.33-14.26-.63-.53-.69-1.1-.42-1.87.55-1.56.84-3.19.7-4.71.16-3.27-.79-6.17-1.88-9.01-1.5-3.9-3.29-7.67-7.06-9.93-1.18-.71-1.18-1.38-.78-2.53,1.28-3.7,1.34-7.42-.21-11.08-.49-1.15-1.38-2.09-1.71-3.31-.41-1.48-1.54-1.77-2.82-1.6-1.31.17-1.95,1.03-2.08,2.36-.16,1.53.75,2.66,1.37,3.89Zm-33.22,88.4c.58.07,1.15-.23,1.68-.63,1.43-1.09,2.89-2.13,4.27-3.27,4.16-3.38,6.83-7.46,6.08-13.14-.23-1.77-1.29-3.07-2.71-3.07-1.52-.01-2.47,1.16-2.4,3.13.06,1.88-.03,3.7-1.1,5.33-.91,1.39-2.14,2.5-3.42,3.53-1.48,1.18-3.04,2.25-4.49,3.47-.98.83-1.14,1.98-.57,3.14.5,1.02,1.37,1.55,2.66,1.51Zm-8.59-125.93c1.46,1.29,2.91,2.59,4.44,3.8,2.81,2.22,3.63,5.39,3.43,8.59-.2,3.15-1.15,6.28-2.44,9.24-1.06,2.42.46,4.97,3.13,5.05,4.85.13,8.82,2.29,12.8,4.75,5.66,3.5,7.59,11.5,3.75,17.29-1.69,2.55-.85,4.46,2.13,5.37.89.28,1.82.36,2.67.83,4.28,2.35,5.8,6.29,6.32,10.82.31,2.64-.46,5.07-1.64,7.35-2.75,5.36-2.24,6.08,2.75,8.81,1.54.84,2.95,1.86,3.79,3.51,1.14,2.28,2.06,4.62,2.32,7.18,0,1.8.01,3.6.01,5.4-.34,3.17-1.62,6-3.09,8.79-.91,1.72-.49,3.07,1.1,4.02,1.22.73,2.84.29,3.78-1.18,2.58-4.02,3.93-8.45,4.21-13.2.16-2.94-.33-5.79-1.17-8.61-1.34-4.49-3.38-8.45-7.76-10.69-1.04-.53-.97-1.03-.55-1.97,1.26-2.82,2.17-5.71,2.01-8.91-.34-7.31-3.2-13.06-9.81-16.62-.59-.32-.76-.51-.51-1.22,1.06-2.91,1.56-5.86,1.03-9-.75-4.51-2.56-8.39-6.2-11.24-4.17-3.25-8.64-5.94-13.96-6.86-.37-.06-.79-.16-.62-.62.73-1.93.89-4,1.52-5.95.43-1.51.43-3.02.01-4.52-.68-3.33-1.49-6.58-4.02-9.11-2.28-2.28-4.98-4.05-7.37-6.19-.72-.64-2.77-.48-3.35.14-.95,1.03-.94,2.19-.24,3.3.39.63.97,1.15,1.53,1.65Zm-7.81,177.03c2.76.58,5.5.76,8.32.32,4.99-.76,9.55-2.43,13.4-5.8,1.73-1.51,3.43-3.04,5.18-4.53.56-.47,1.13-.9,2.01-.53,2.94,1.25,5.96,1.69,9.19,1.28,3.19-.41,6.31-.92,9.23-2.31,4.52-2.13,7.88-5.63,10.88-9.46,2.43-3.1,4.07-6.63,4.18-10.7v-.6c-.01-2.16-.72-3.11-2.33-3.15-1.87-.04-2.69.91-2.79,3.09-.11,2.24-.84,4.27-2.05,6.18-1.92,3.05-4.36,5.68-7.31,7.64-5.39,3.58-11.23,4.98-17.57,2.44-2.26-.91-4.4-.54-6.28,1.09-2.34,2.03-4.58,4.19-7.09,5.98-4.75,3.4-10.06,4.68-15.88,3.42-1.56-.34-3.34.66-3.62,1.95-.4,1.89.6,3.29,2.53,3.69Zm-3.29-123.52c.59.03,1.18.18,1.77.28,6.62,1.16,11.96,7.86,11.61,14.56-.08,1.67,1.15,3.22,2.73,3.43,1.17.15,2.55-.85,2.85-2.16.54-2.32.6-4.62-.34-6.89-1.12-2.69-2.53-5.16-4.41-7.43-3.67-4.46-8.42-6.53-13.36-6.92-2.98,0-4.26.87-4.31,2.47-.04,1.65,1.11,2.51,3.46,2.66Zm-3.19,142.9c1.32.41,2.6.37,3.61-1.66,2.13-4.28,5.66-6.66,10.52-6.92,2.4,0,4.81.02,7.21.03,3.71.32,7.3,1.11,10.8,2.41,2.14.8,3.56.31,4.77-1.57,2.29-3.58,5.6-5.92,9.3-7.8,1.83-.93,3.77-1.49,5.85-1.46h5.66c1.54.05,2.67,1.04,3.95,1.69,1.51.76,3.12.37,4.04-1.04.32-.5.5-1.09.77-1.62,2.7-5.17,5.98-9.72,12.01-11.36.92-.25,1.8-.62,2.55-1.23,1.31-1.08,1.5-2.89.47-4.3-.89-1.22-2.85-1.63-3.98-.69-.88.72-1.85,1.11-2.87,1.48-2.78,1-5.19,2.54-7.18,4.74-1.87,2.09-3.65,4.25-5.1,6.66-.26.44-.37.95-1.2.62-3.75-1.46-7.64-1.15-11.46-.53-6.56,1.05-11.73,4.61-16.02,9.52-.66.75-1.14.92-2.13.63-6.4-1.85-12.89-2.85-19.57-1.59-6.1,1.15-10.35,4.68-13.2,10.06-.75,1.41-.14,3.51,1.2,3.93Zm-2.57-77.07c-1.29-.08-2.19.95-2.23,2.23-.06,2.34,1.53,3.75,3.86,3.48,4-.47,7.11-2.62,9.84-5.34,1.54-1.53,2.24-3.61,2.55-5.77.17-1.19.56-1.98,1.92-2.36,2.12-.6,4.03-1.74,5.74-3.15,2.65-2.19,4.22-4.91,4.06-8.65.22-1.01-.12-2.19-.36-3.33-.29-1.39-.95-2.7-1.42-4.06-.61-1.75-1.95-2.49-3.49-1.84-.93.39-2.17,2.03-1.45,3.63.53,1.17,1.07,2.34,1.22,3.64.28,2.41.23,4.69-2.02,6.29-1.69,1.2-3.52,2.1-5.55,2.51-3.28.65-3.91,1.38-4.06,4.68-.13,2.85-1.2,5.17-3.84,6.62-1.51.83-2.97,1.53-4.77,1.42Zm-26.18-94.9c.58,1.11,1.66,1.67,2.92,1.32,1.26-.34,2.05-1.23,2.1-2.6.03-.7-.04-1.38-.2-2.08-.27-1.16-.76-2.28-.69-3.51.33-5.05,4.46-7.99,8.53-8.29,1.22-.08,2.44-.19,3.53-1.01,1.6-1.2,1.08-2.85,1.16-4.39v-.6c-.02-1.61-.33-3.55.97-4.54,2.21-1.69,4.62-3.35,7.74-2.72,1.65.34,2.73-.27,3.16-1.72.58-2.01-.89-3.72-3.35-3.92-2.39-.18-4.47.86-6.63,1.62-4.96,1.73-7.51,5.23-7.57,10.46-.01,1-.53,1.15-1.24,1.3-3.56.72-6.47,2.55-8.86,5.25-3.73,4.21-4,10.73-1.57,15.43Zm-11.43,111.03c1.51,4.59,4.33,8.22,8.36,10.84,3.99,2.6,8.42,4.05,13.11,4.88,3.55.63,6.89.11,10.02-1.53,1.21-.64,1.84-.51,2.74.43,5.7,5.94,12.83,7.19,20.61,5.99,4.55-.7,8.54-2.78,12.32-5.31.5-.33.88-.69,1.58-.19,3.05,2.19,6.65,2.66,9.62,3.04,3.13-.04,5.55-.43,7.9-1.25,5.53-1.94,9.64-5.39,11.76-10.97.65-1.71-.05-3.5-1.53-4.03-1.96-.7-3.8.02-4.18,1.94-.64,3.24-2.81,5.05-5.45,6.51-4.21,2.32-8.57,2.63-13.08.94-.87-.33-1.62-.74-2.27-1.4-2.19-2.24-3.39-2.34-5.97-.45-5.16,3.76-10.68,6.37-17.3,5.65-3.37-.36-6.54-1.17-9.04-3.65-1.07-1.06-2.15-2.1-3.22-3.16-1.56-1.54-2.98-1.73-4.86-.61-.56.33-1.06.75-1.62,1.08-1.92,1.13-4.03,1.82-6.23,1.46-4.35-.69-8.53-1.95-12.42-4.16-2.93-1.67-4.59-4.31-5.72-7.23-.73-1.88-1.44-2.75-3.41-2.35-1.23.26-2.17,2.14-1.72,3.53Zm-10.78-119.73c1.3,3.58,3.85,5.59,7.26,6.75,1.44.48,3.47-.62,3.75-1.91.4-1.87-.27-2.71-2.3-3.19-1.16-.27-2.32-.8-2.89-1.94-1.44-2.85-2.44-6.58.35-9.52.88-.92,1.75-1.82,2.7-2.68,3.84-3.45,8.55-4.49,13.44-5.02,2.08-.22,3.56-1.48,3.72-3.59.06-.74-.04-1.5.04-2.25.44-3.93,2.66-7.77,8.07-8.03h5.13c1.01.22,1.94-.28,2.92-.36.86-.07,1.51-.78,1.63-1.72.33-2.46-.78-3.69-3.27-3.66-.35,0-.72.09-1.05,0-2.67-.74-5.4-.38-7.96.17-6.46,1.41-10.63,6.44-11.21,13.03-.06.69-.26.9-.95.99-5.89.75-11.06,2.98-15.43,7.12-4.73,4.49-6.22,9.58-3.95,15.81Zm-17.96,183.18c2.85,2.08,6.09,2.87,9.54,3.06,4.15.21,7.87-1.05,11.36-3.17.51-.3.84-.46,1.37.14,3.04,3.42,6.89,5.01,11.91,4.83,3.47.5,6.61-1.52,9.81-3.23,1.48-.8,1.65-2.49.67-3.88-1.16-1.63-2.93-1.86-5-.39-3.77,2.66-9.25,2.09-11.62.29-1.02-.78-1.7-1.81-2.44-2.81-1.88-2.59-3.46-2.85-6-.94-2.98,2.23-6.17,3.87-10.04,3.76-2.45-.07-4.69-.7-6.81-1.98-1.53-.92-3.15-.61-3.88.55-.9,1.42-.53,2.55,1.13,3.77Zm1.43-136.25c.81.91,1.9,1.04,2.87.5,1.37-.76,2.81-.88,4.31-.97,2.77-.17,5.43.53,7.69.91,2.12.02,3.1-.67,3.33-2.01.28-1.63-.42-2.79-2.11-3.25-4.4-1.19-8.83-1.37-13.29-.37-1.28.29-2.29,1.01-3.04,2.05-.79,1.09-.62,2.18.24,3.14Zm20.04,113.89c-4.83,7.5-15.71,7.35-21.15,2.72-1.98-1.68-3.54-3.72-3.49-6.5.03-1.28-.4-2.19-1.58-2.57-1.22-.4-2.23.09-3.06,1.06-1.19,1.42-.92,2.99-.39,4.49,3.59,10.13,13.19,13.62,22.36,12.11,3.97-.65,7.24-2.69,10.18-5.68,1.46,2.61,3.66,4.18,6.27,5.01,3.91,1.26,7.93,1.29,11.95.36,5.59-1.3,10.44-3.8,14.26-8.26,1.22-1.42,1.92-3.06,2.95-4.53.75-1.09,1.11-2.16,1.08-3.45-.05-1.64-.78-2.62-2.14-2.71-2.38-.18-3.84.52-3.83,2.22.01,2.77-1.83,4.54-3.49,5.99-4.9,4.28-10.68,6.41-17.32,5.28-2.81-.48-4.81-1.64-5.49-4.75-.38-1.73-1.17-3.06-3.09-3.35-1.76-.27-2.8.77-3.68,2.07-.11.17-.23.32-.34.49Zm-28.98-151.03c2.9,2.14,4.67,5,5.57,8.45.64,2.45,2.11,3.32,4.59,2.7,2.18-.55,4.4-1.01,6.64-.85,2.88.21,5.67,1.02,8.49,1.66,2.45.55,4.7,1.67,7.04,2.52,1.91.69,3.43-.04,3.96-1.76.44-1.44-.22-2.67-1.97-3.57-3.63-1.85-7.55-2.84-11.5-3.69-3.76-.81-7.54-1.44-11.38-.38-.51.14-.99.06-1.25-.52-1.24-2.76-2.99-5.14-5.23-7.2-1.75-1.6-3.48-3.14-5.53-3.35-1.96-.03-3.33.9-3.52,2.09-.25,1.51.48,2.55,2.25,2.97.71.17,1.26.51,1.84.93Zm-18.15,49.08c.98,1.25,2.25,1.6,3.78,1.15,2.36-.69,3.87-3.54,3.94-6.88,0-.4.05-.8,0-1.2-.41-3.15-3.41-4.77-5.9-3.14-2.72,1.8-4.36,6.79-1.82,10.07Zm-7.26-61.12c2.09-3.61,4.97-5.88,9.41-5.73,1.77.06,3.42.56,5.13.88,2.56.48,4.51-1.23,4.03-3.72-.31-1.6-.23-3.11.03-4.68.48-2.93,1.95-4.64,4.47-5.08,1.92.01,3.83.01,5.75.01.76.23,1.41-.33,2.16-.29,1.21.07,1.97-.41,2.07-1.75.16-2.28-.47-2.64-1.86-3-1.13-.29-2.34-.29-3.51-.41-1.64-.24-3.29-.43-4.94-.01-3.59.44-6.34,2.13-8.13,5.33-1.07,1.9-1.45,4.02-1.94,6.08-.21.91-.42,1.06-1.28,1-4.31-.28-8.4.23-11.95,3.11-3.21,2.61-4.84,6.3-6.87,9.7-.92,1.54.49,3.31,2.33,3.42,1.72.11,2.87-.66,3.67-2.07.52-.9.9-1.89,1.43-2.79Zm-6.72,24.2c.43.98,1.03,1.97,2.05,1.91,1.13-.06,2.53-.19,2.89-1.79.13-.59.63-1,1.08-1.41,2.29-2.08,5.04-2.51,8.04-2.47,5.62.09,10.13,2.35,13.61,6.68,1.75,2.19,3.24,4.57,4.57,7.03,1.5,2.75,3.24,3.6,6.78,2.37.92-.32,1.81-.82,2.84-.72,1.89,0,3.78.01,5.66.01,2.88.13,5.45,1.1,7.77,2.79.81.59,1.59,1.22,2.46,1.71,1.43.79,3.06.42,3.88-.78.79-1.17.52-2.89-.7-3.9-6.66-5.55-14.24-7.05-22.58-4.95-1.01.25-1.45.11-1.95-.81-1.26-2.33-2.79-4.49-4.41-6.59-3.51-4.55-8.27-7.19-13.8-8.09-3.25-.52-6.63-.29-9.97.66-3.76,1.08-6.4,3.2-8.2,6.56-.33.63-.3,1.14-.02,1.79Zm-14.66-20.19c-.03,2.32.9,3.68,2.22,3.83,1.41.15,2.53-.8,2.85-2.46,1-5.16,2.91-9.87,7.03-13.37,2.82-2.39,5.64-4.8,9.65-4.95,1.24-.05,2.42-1.35,2.26-2.53-.27-2.08.56-3.53,2.11-4.77.58-.46,1.09-1.03,1.6-1.58,1.01-1.09,1.18-2.73.41-3.68-.86-1.06-2.79-1.4-3.93-.5-2.43,1.92-4.86,3.88-5.8,7.04-.16.53-.42.81-.96,1.01-5.17,1.83-9.09,5.34-12.4,9.55-2.97,3.79-4.05,8.39-5.04,12.41Zm-12.6,22.46c-.18,2.34.14,4.61.59,6.87.25,1.29.75,2.38,2.34,2.47,2.31.13,3.46-1.37,2.92-3.87-.79-3.69-.99-7.38-.06-11.08.43-1.72-.28-2.91-1.87-3.34-1.46-.4-2.53.21-3.03,1.9-.68,2.3-1.12,4.66-.89,7.05Zm-7.81,163.53c.02,1.17,1.23,2.29,2.51,2.38.84.05,1.7,0,2.79,0,.9-.1,2.04.09,3.19-.18,3.48-.78,6.29-2.68,8.87-5.03,2.32-2.12,4.66-4.2,7.72-5.28,1.65-.58,3.26-1.3,4.81-2.1,2.05-1.06,2.2-3.42.35-4.76-.99-.71-2.1-.48-3.16-.14-5.39,1.69-10.02,4.57-13.97,8.66-2.39,2.48-5.33,3.98-8.95,3.73-.74-.05-1.48-.07-2.23.19-1.23.41-1.95,1.21-1.93,2.52Zm-2.45-45.13c-.46.14-.93-.15-1.12-.5-.2-.39.36-.53.59-.73,1.78-1.47,3.6-2.87,5.36-4.36,1.06-.91,1.29-2.86.56-3.79-.86-1.08-2.39-1.21-3.76-.21-1.9,1.39-3.76,2.83-5.61,4.28-.99.78-1.8,1.75-2.34,2.89-1.14,2.41-.83,4.24,1.17,6.04,1.71,1.52,3.8,1.99,6.01,1.79,1.34-.11,1.85.31,1.63,1.19-.25,1.9.36,3.17,1.04,4.37,1.18,2.09,3.62,3.08,5.93,2.52,4.19-1.01,8.27-5.63,8.79-9.94.2-1.6-.93-2.82-2.57-2.93-1.75-.12-2.53.95-3.06,2.33-.65,1.67-1.56,3.13-2.99,4.23-.28.21-.57.47-.95.32-.45-.18-.22-.59-.24-.91-.07-1.24.27-2.44.48-3.65.26-1.47.35-2.97-1-3.96-1.18-.87-2.61-.7-3.83-.07-1.31.67-2.74.68-4.09,1.09Zm-24.34-175.06c.04,2.11,1.92,3.29,3.77,2.51,1.45-.61,2.4-1.77,3.46-2.82,1.81-1.79,3.91-2.93,6.46-3.12,1.77-.13,2.85-1.06,3.4-2.69.23-.66.42-1.33.65-1.99,1.31-3.81,3.86-6.09,7.96-6.46,1.42-.13,2.25-1.06,2.26-2.49,0-1.72-1.77-2.98-3.95-2.58-4.45.82-8.16,2.94-10.19,7.08-1.16,2.35-2.35,3.92-5.14,4.62-3.41.85-5.73,3.69-8.11,6.21-.46.49-.63,1.13-.57,1.73Zm-9.92,86c.07,1.62.79,3.13,2.22,3.56,1.34.4,2.96.63,4.39-.48,1.96-1.53,2.41-3.57,2.43-5.84v-.75c0-2.12-1.2-3.88-2.88-4.19-2.55-.48-4.5.49-5.26,2.77-.53,1.59-.98,3.21-.9,4.93Zm-4.61-26.53c1.02.48,2.49-.06,3.24-1.48,1.23-2.29,3.04-3.18,5.56-2.88.99.06,2,.01,2.97.21,2.32.46,4.05,1.76,5.17,3.89.7,1.34,1.93,1.82,3.3,1.3,1.07-.4,1.78-1.16,1.85-2.47.05-1.11-.25-2.02-.9-2.91-1.86-2.56-4.33-4.41-7.36-5-4.26-.83-8.59-.97-12.29,1.98-1.21.95-2.32,2.04-2.82,3.58-.48,1.49.12,3.24,1.28,3.78Zm-14.6,130.7c.14,1.79,1.28,2.57,3.45,2.23.55-.09,1,.04,1.44.21,1.91.74,3.51,1.92,4.8,3.51,1.48,1.82,2.62,2.16,4.82,1.29,2.48-.99,4.99-1.09,7.59-.48,2.99.7,5.76,1.95,8.58,3.11,1.08.44,2.24.65,3.26-.16,2.02-1.6,1.52-4.08-1.03-5.15-1.61-.67-3.23-1.33-4.85-1.98-4.43-1.77-8.97-2.42-13.62-1.14-1.04.29-1.61.05-2.36-.62-2.34-2.1-5.02-3.58-8.24-3.88h-.6c-1.75.05-3.36,1.57-3.24,3.06Zm-17.32-139.24c1.24.15,2.04-.59,2.65-1.54.46-.73.2-1.57.19-2.35-.07-3.18.56-6.26,2.66-8.64,3.96-4.53,9.17-6.75,15.13-7.27,1.69,0,3.39-.01,5.08-.01,3.34.11,6.57.71,9.57,2.25,2.69,1.4,4.34.83,5.51-1.94.57-1.9.12-3.84.24-5.75-.07-1.52.7-2.77,1.41-4,3.61-6.3,9.46-8.56,16.34-8.9,1.72,0,3.44,0,5.15,0,.55,0,1.1.04,1.65.04,2.46.04,3.16-.64,3.81-3.05.21-.75.16-1.51.45-2.28,1.81-4.73,5.29-7.66,9.9-9.38,3.14-1.17,6.35-2.1,9.64-2.75,1.58-.31,2.62-1.67,2.43-3.09-.22-1.62-1.09-2.31-2.85-2.33-3.38-.04-6.47,1.18-9.6,2.18-7.26,2.31-12.58,6.74-15.21,14.07-.67.46-1.44.22-2.17.31-1.07.11-2.19-.33-3.2.29-.48.13-.93.28-1.45.31-3.29.19-6.49.91-9.48,2.31-7.44,3.46-11.88,9.2-13.02,17.45-2.72-.73-5.53-1.18-8.38-1.52-4.24-.51-8.43-.21-12.32,1.14-7.81,2.69-14.43,6.9-16.13,15.95-.4,2.12-.92,4.24-.21,6.36.35,1.04.96,1.99,2.21,2.15Zm-1.96,155.13c.67,1.15,2.11,1.69,3.39.95,2.59-1.5,5.37-1.63,8.24-1.58,4.8.1,8.65,1.65,10.93,6.26,1.46,2.97,3.63,3.19,6.32,1.16,2.79-2.09,5.96-3.29,9.37-3.55,2.9.22,5.53.76,7.82,2.61,1.24,1,2.41,2.09,3.63,3.11.66.56,1.36.79,2.18.61,2.38-.5,3.18-2.97,1.57-4.88-1.22-1.46-2.87-2.42-4.34-3.59-3.19-2.54-6.85-3.58-10.88-3.56-3.86,0-7.3,1.4-10.6,3.19-.79.42-1.11.4-1.62-.38-1.63-2.51-3.94-4.21-6.77-5.19-3.77-1.3-7.64-1.83-11.58-1.15-2.39.42-4.77,1.02-6.77,2.56-1.24.96-1.58,2.26-.89,3.43Zm-5.03-120.07c.96.65,2.03.37,3.25.46,4.51-.09,8.86-1.32,12.77-3.95,2.55-1.7,4.75-3.81,6.55-6.29.95-1.31.74-3.11-.29-3.94-1.19-.96-2.77-.8-3.99.46-.79.83-1.49,1.74-2.28,2.57-3.98,4.16-8.9,6.09-14.62,5.99-1.29-.02-2.21.47-2.58,1.6-.41,1.24.05,2.33,1.19,3.1Zm-18.94-56.92c.61,1.2,1.55,2.09,3.11,1.67,1.97-.53,2.91-2.04,2.03-4.01-1.34-2.99-.37-5.37,1.41-7.69,2.97-3.87,6.71-6.78,11.33-8.28s9.33-2.03,13.21,1.86c1.58,1.59,4.74.92,5.41-1.19.42-1.33,1.14-2.55,1.95-3.7,3.09-4.44,7.07-7.52,12.62-8.16,2.9,0,5.8-.02,8.7-.02.88.08,1.74-.02,2.64.26,1.45.44,3.09-.64,3.35-1.96.29-1.47-.52-2.69-2.12-3.09-1.96-.48-3.96-.7-5.98-.66-.11-.16-.21-.44-.32-.44-2-.07-4.02-.38-6,.15-.53.11-1.05.24-1.58.32-4.48.66-8.47,2.39-11.84,5.46-1.91,1.73-3.53,3.69-4.87,5.88-.31.52-.51.84-1.24.45-4.31-2.35-8.89-2.45-13.49-1.25-8.2,2.13-14.46,6.9-18.47,14.39-1.75,3.27-1.52,6.72.15,10.01Zm-7.15-15.2c1.46.69,2.78-.06,3.67-2.05.2-.45.47-.88.72-1.31,2.1-3.55,5.5-5.62,8.92-7.56,5.12-2.91,10.77-4.13,16.59-4.59,2.54-.2,4.04-2.28,2.95-4.28-.76-1.41-2.14-1.47-3.68-1.43-.86-.15-1.83.15-2.82.3-4.49.71-8.91,1.68-13.06,3.64-3.51,1.66-6.57,3.97-9.5,6.46-2.11,1.8-3.71,4.06-4.86,6.58-.74,1.62-.17,3.65,1.07,4.24Zm.63,30.21c-2.83-.25-5.43-1.2-7.85-2.67-1.33-.8-2.11-1.82-1.96-3.54.15-1.66-.69-2.65-2.02-2.83-1.33-.17-2.6.74-3.02,2.18-.7,2.35-.16,4.53,1.42,6.28,3.73,4.1,8.63,5.8,14,6.2,1.46.11,2.74.04,3.84,1.24.74.81,1.89,1,2.98,1.26,3.13.76,5.79-.56,8.43-1.82,1.34-.64,1.81-2.16,1.36-3.46-.49-1.42-1.62-1.74-3-1.69-1.4.04-2.55.82-3.84,1.2-1.74.52-2.34.32-3.31-1.24-1.24-1.97-2.67-2.46-4.84-1.54-.71.31-1.42.45-2.19.43Zm-12.18,42.61c0,4.94,3.02,8.71,7.41,9.91.95.26,1.39.69,1.65,1.64.84,3.05,2.24,5.77,5.01,7.57.66.43,1,1.29,1.92,1.35,1.27.09,2.42-.07,3.03-1.39.67-1.45.28-3.28-1.07-4.16-2.14-1.4-3.15-3.42-3.53-5.84-.4-2.54-1.52-3.98-4.48-4.3-1.76-.19-3.68-.81-4.36-2.74-.67-1.93.03-3.62,1.66-4.9.47-.36.83-.8.9-1.49.12-1.18-.25-2.19-1.3-2.62-1.18-.48-2.46-.43-3.51.53-2.13,1.95-3.21,4.39-3.33,6.44Zm-7.86-30.77c1.3,3.56,3.95,6.08,6.55,8.65,5.55,5.49,12.05,7.96,19.87,6.25.58-.13.88.09,1,.75.4,2.07.87,4.13,1.35,6.19,1.22,5.19,2.49,10.37,3.7,15.56,1.45,6.24,2.82,12.49,4.32,18.72.26,1.07.15,1.86-.46,2.77-5.16,7.71-7.24,16.25-6.47,25.43.36,4.38,1.62,8.62,3.55,12.6,5.29,10.94,13.82,18.01,25.49,21.37,2.1.6,4.26.73,6.37,1.19,2.21.49,4.42.47,6.62.01.38-.1.75-.28,1.13-.31,5.54-.42,10.59-2.3,15.45-4.92,3.56-1.92,6.17-4.89,9.07-7.56,2.05-1.89,3.56-4.14,4.97-6.48,2.9-4.77,4.51-10,5.1-15.49.24-2.2.26-4.45.29-6.68,0-.48.05-.85.46-1.17,3.7-2.85,7.75-4.84,12.47-5.22,2.13,0,4.26.01,6.38.02,3.26.48,6.32,1.48,8.97,3.52.75.59,1.4,1.31,2.21,1.79.67.4.86.85.82,1.56-.19,2.95.3,5.86,1.04,8.67,1.76,6.65,5.04,12.5,9.98,17.35,6.23,6.11,13.71,9.64,22.36,10.73,2.51.48,5.02.45,7.52.01,2.3-.47,4.61-.81,6.88-1.5,13.39-4.1,21.79-12.96,25.64-26.33.53-1.84.65-3.75,1.18-5.57.47-2.51.46-5.02,0-7.53-.1-.28-.28-.55-.3-.83-.21-3.3-1.05-6.44-2.42-9.45-.69-1.51-1.25-2.97.78-3.99.41-.2.65-.75.96-1.14,3.15-3.97,6.67-7.59,10.47-10.94,8.24-7.24,17.23-13.34,27.34-17.68,4.91-2.11,9.94-3.76,15.42-3.48,3.22.16,5.35,2.27,4.83,4.91-.43,2.23-.98,4.42-1.95,6.48-.22.48-.17.89.05,1.4.47,1.07,1.03,1.88,2.35,1.99,1.47.12,2.52-.39,3.17-1.71,1.13-2.25,1.77-4.65,2.07-7.12.28-2.25.03-4.48-1.06-6.52-1.9-3.55-5.19-4.8-8.88-5.09-4.87-.39-9.57.62-14.15,2.25-10.08,3.6-19.08,9.1-27.45,15.68-3.13,2.46-6.31,4.92-9.1,7.75-3.03,3.07-6.1,6.14-8.71,9.85-1.53-2.41-3.6-4.07-5.42-5.97-4.42-4.61-9.91-7.23-15.96-8.84-1.99-.52-4.02-.85-6.03-1.27-2.01-.41-4.02-.4-6.03,0-1.18.14-2.41.17-3.53.42-7.36,1.65-14.05,4.65-19.55,9.98-5.24,5.1-8.78,11.17-10.5,18.28-.27,1.1-.52,1.35-1.52.61-1.24-.92-2.65-1.55-4.06-2.2-2.48-1.14-5.13-1.49-7.75-2.02-1.89-.67-3.79-.46-5.7-.1-.85.55-1.84.26-2.75.44-3.85.76-7.42,2.16-10.72,4.25-.8.51-1,.36-1.26-.49-.51-1.64-1.06-3.27-1.79-4.82-6.54-14.06-17.58-21.84-32.99-23.46-1.85-.35-3.69-.34-5.55,0h-.01c-9.29.65-17.29,4.3-24.11,10.51-.36-.22-.38-.52-.45-.82-.65-2.87-1.32-5.73-1.98-8.6-1.87-8.07-3.73-16.15-5.62-24.22-.09-.38-.43-.79-.05-1.07.33-.26.75.06,1.11.21,2.67,1.11,5.4,2.02,8.31,2.18,1.51.39,3.02.43,4.53,0,5.96-.77,9.55-4.68,12.31-9.53.91-1.6.41-3.7-1.34-4.46-1.63-.7-2.83-.16-3.78,1.79-.72,1.45-1.76,2.68-2.83,3.87-.95,1.05-2.09,1.94-3.5,2.21-6.16,1.2-11.6-.54-16.51-4.23-.84-.63-1.59-1.38-2.35-2.1-.35-.34-.59-.39-.99-.04-2.57,2.24-5.5,2.76-8.87,2.26-3.1-.47-5.82-1.5-8.2-3.51-.84-.7-1.67-1.4-2.53-2.07-1.95-1.5-3.4-3.49-4.36-5.75-.62-1.45-1.97-2.19-3.58-1.63-1.18.42-1.79,2.12-1.32,3.44Zm-7.53,42.73c1.68,3.7,4.06,6.58,7.82,8.28,1.5.67,3.04,1.08,4.63,1.34.83.14.95.36.59,1.13-1.19,2.49-1.58,5.16-1.57,8.14-.13,1.42.03,3.07.47,4.65,1.09,3.92,5.74,7.57,9.82,7.84,2.45.16,3.63-1.03,3.26-3.38-.24-1.53-1.52-1.98-2.76-2.34-2.49-.72-4.59-1.94-4.99-4.7-.31-2.1-.11-4.24.49-6.31.66-2.23,1.87-4.18,2.96-6.2,1.07-1.99.27-4.82-1.43-5.03-1.18-.14-2.42-.11-3.57.12-2.82.54-5.44.15-7.54-1.78-3.87-3.54-4.34-6.75-2.75-11.77.89-2.79,2.29-5.31,3.62-7.88.81-1.57.49-3.29-.71-3.98-1.32-.76-2.7-.26-3.77,1.39-.13.21-.25.43-.37.65-1.52,2.79-3.13,5.52-4.09,8.59-1.17,3.76-1.85,7.42-.11,11.24Zm-13.37,43.25c2.89,6.63,8.05,10.48,14.95,12.09.86.2.87.5.89,1.12.09,2.53-.21,5.03.51,7.56,2.1,7.38,6.19,11.11,14.01,11.8.66.06.84.22.83.87-.05,1.48.07,2.92.43,4.4,1.33,5.47,4.57,9.28,9.49,11.89,5.38,2.86,10.56,2,15.67-.65,1.28-.67,1.82-2.02,1.4-3.32-.41-1.31-1.33-1.87-2.74-1.78-.87.05-1.65.19-2.45.53-2.57,1.09-5.17,1.9-7.98.67-3.69-1.62-6.57-3.94-7.53-8.08,0-1.69.01-3.37.02-5.06.2-4.21-1.42-5.88-5.6-5.5-1.29.12-2.62.18-3.96-.21-3.96-1.17-5.43-4.19-6.1-7.86-.1-1.6.26-3.23-.22-4.81-.18-.33.12-.55.19-.82,1.08-4.11.15-5.69-3.57-6.09-3.12-.35-6-1.29-8.52-3.14-3.76-2.77-7.86-8.93-5.15-15.3.56-1.31.01-2.46-1.23-3.1-.98-.5-2.73-.04-3.4.97-.99,1.49-1.02,3.24-1.3,4.92-.4,1.41-.42,2.82.02,4.23.34,1.59.68,3.17,1.34,4.67Zm-2.03,26.29c1.69,4.35,4.61,7.3,9.33,8.23.47.1,1.06.03,1.36.73,1.95,4.57,5.7,6.11,10.39,6.08,1.38-.01,2.13-.7,2.55-1.88.69-1.98-.9-3.72-3.51-3.85-2.12-.11-3.88-1.16-4.29-3.38-.52-2.85-1.2-3.25-4.18-3.24-.73-.07-1.56.06-2.41-.23-3.16-1.08-5.63-5.33-4.56-8.74.28-.91.56-1.84-.15-2.7-.6-.71-1.3-1.25-2.31-1.08-1.39.23-2.25,1.11-2.59,2.41-.66,2.58-.6,5.16.37,7.65Zm1.61-74.73c.38,5.44,1.82,10.4,5.7,14.41.42.44.64.78.34,1.43-.75,1.61-1.06,3.32-.91,4.94-.25,3.78,1.27,7.74,2.78,10.12,1.25,1.97,2.66,3.91,4.71,5.15,1.78,1.09,3.77-.13,3.96-2.22.14-1.58-.84-2.47-1.8-3.43-4.15-4.19-4.99-8.98-2.49-14.17.69-1.44.44-3.14-.7-4.3-.48-.5-1.1-.86-1.6-1.35-3.32-3.21-4.28-7.45-4.47-11.74-.26-5.82.93-11.39,4.79-16.1.79-.95.9-2.11-.05-3.13-.92-.98-1.97-1.35-3.19-.54-1.17.79-2.14,1.77-2.83,3.03-3.04,5.59-4.7,11.47-4.24,17.9Zm-9.3,93.86c.03,1.14,1.45,2.42,2.7,2.49,2.31.13,4.64-.23,6.94.58,2.98,1.04,5.57,2.43,6.9,5.49.45,1.05.93,2.1,1.46,3.11,1.05,2,2.84,2.81,4.77,1.76,2.56-1.38,5.25-1.56,8.02-1.63,1.1.11,2.2-.15,3.28.24,1.08.38,2.18.72,3.26,1.08,2.57.86,4.49-.54,4.15-3.05-.17-1.32-1.18-1.9-2.26-2.37-5.09-2.21-10.34-2.02-15.59-.79-1.16.27-1.6.07-2.09-.98-1.36-2.9-3.57-5.01-6.43-6.47-4.07-2.07-8.34-2.78-12.85-2.07-1.13.18-2.3,1.53-2.26,2.61Zm-1.86-119.19v-4.59c.07-3.62.46-7.27,2.16-10.45,3.02-5.68,7.19-10.51,12.83-13.73,5.8-3.31,10.79-7.51,15.4-12.3,3.56-3.7,5.34-8.22,6.94-12.92,2.58-7.56,5.92-14.75,10.55-21.3,1.31-1.85,2.95-3.39,4.86-4.63,4.3-2.8,8.52-5.74,13.5-7.31,2.15-.67,4.33-.91,6.56-.88h7.52c4.46-.08,8.54,1.52,12.64,2.96,3.42,1.21,6.93,1.82,10.51,2.19,2.4.44,4.81.42,7.21.02,2.97-.5,5.97-.86,8.88-1.64,3.91-1.04,7.4-2.93,10.48-5.54,5.78-4.89,12.34-7.97,19.86-9.12,5.06-.78,10.1-1.05,15.07.14,5.64,1.34,11.16,3.02,15.69,7.04,2.52,2.24,5.81,2.89,9.1,3.37,3.29.49,6.56.29,9.85.2,1.72,0,3.45,0,5.17.02,6.73,1,11.1,4.96,13.89,10.97.46,1-.32,1.07-.76,1.08-3.52.09-7.01.56-10.49.98-9.9,1.19-19.12,3.98-27.32,10.2-8.99,6.84-15.37,15.51-20.14,25.49-1.77,3.7-2.76,7.76-3.55,11.81-.56,2.88-1,5.77-1.54,8.65-.12.62.43,1.21-.01,1.81-.49,2.21-.42,4.41-.04,6.62.11,1.02.21,2.04.33,3.05.08.69.13,1.4.32,2.06.53,1.93,2.07,2.85,3.85,2.39,1.38-.36,1.86-1.86,1.26-3.89-.01-3.43-.02-6.86-.02-10.29.31-4.14,1.27-8.17,2.2-12.21,2.06-9.04,6.63-16.84,12.73-23.52,6.36-6.97,13.83-12.75,23.46-14.8,3.53-.75,7.1-1.19,10.66-1.75,5.33-.84,10.7-1.16,16.05-1.65,5.46-.5,10.82-1.38,16.09-2.82,3.71-1.01,7.13-2.74,10.69-4.14,5.93-2.34,12.12-3.8,18.34-5.15,2.62-.57,5.24-1.07,7.94-.92h7.22c3.52.51,7.05.95,10.55,1.56,3.39.59,6.75,1.34,10.13,2.02,2.89.58,5.79,1.17,8.69,1.7,1.22.23,2.46.32,3.69.47,1.5.54,3.05.2,4.58.21,1.4-.01,2.79-.02,4.19-.03,3.8.18,7.55.68,11.26,1.57,9.2,2.18,13.29,6.91,15.69,15.61,1.1,3.98,1.88,8.05,2.41,12.15.3,2.35.5,4.72.67,7.09.79,10.92,5.12,19.08,16.85,23.78,9.74,3.91,17.44,10.4,23.21,19.16,2.85,4.33,3.2,9.1,2.69,14.18-.62,6.15-2.83,11.68-5.32,17.23-1.56,3.48-3.11,7.13-3.14,11.04-.05,4.98,1.92,9.38,4.65,13.46,3.93,5.86,6.63,12.26,8.36,19.08.79,3.12,1.33,6.34,1.29,9.51-.07,4.91-1.63,9.45-4.92,13.26-.88,1.03-1.72,2.1-2.69,3.04-5.75,5.54-8.93,12.43-10.68,20.11-.88,3.85-2.22,7.57-3.52,11.31-1.83,5.23-5.28,8.93-10.02,11.65-6.13,3.51-12.7,5.61-19.69,6.48-2.44.3-4.88.55-7.32.82-.13-.07-.26-.19-.39-.19-5.61.01-11.23.04-16.85.07-2.4.02-4.81-.39-7.2.11-3.47.21-6.71,1.21-9.83,2.69-4.38,2.08-8.57,4.5-12.65,7.11-6.72,4.31-14.13,6.67-21.99,7.75-1.39.2-2.76.28-4.14.27h-.01c-1.7.1-3.41-.27-5.08.22-4.51-.14-8.91-.89-13.23-2.21-5.38-1.64-9.96-4.79-14.78-7.51-6.42-3.62-12.61-7.7-19.36-10.72-4.78-2.14-9.87-3.2-15.07-3.47-7.44-.38-13.73,2.68-19.46,7.06-4.01,3.07-8.04,6.1-12.13,9.07-4.37,3.18-9.23,3.43-14.29,2.9-3.57-.38-7-1.48-10.53-2.06-6.53-1.08-12.85-.88-18.59,3.08-2.15,1.49-4.51,2.73-7.21,3.03-1.99.01-3.98.01-5.97.02-1.46.05-2.52-.79-3.54-1.65-1.4-1.18-2.34-2.74-3.24-4.29-2.51-4.28-6.53-6.03-11.15-6.68-4.09-.58-8.24-.41-12.34-.68-4.49-.3-8.71-1.55-11.66-5.45-2.96-3.92-6.86-6.07-11.87-6.58-4.26-.44-8.36.22-12.54.61-2.55.24-5.06.73-7.61.9-.38-.36-.85-.22-1.28-.22-3.55,0-7.1,0-10.65,0-.44,0-.91-.14-1.28.23-2.63-.29-5.28-.47-7.89-.88-3.57-.55-7.16-.96-10.67-1.83-5.32-1.32-9.9-3.95-14.21-7.33-3.89-3.05-6.01-6.98-7.31-11.59-.72-2.54-1.16-5.09-1.18-7.72v-4.29c.32-4.78,2-9.06,4.8-12.93,2.4-3.32,4.77-6.65,6.83-10.21,2.28-3.95,2.71-7.79.46-11.99-1.8-3.38-3.93-6.62-5.23-10.24-1.56-4.32-3.27-8.61-3.46-13.29-.02-.5-.45-.9-.24-1.42.48-2.09.08-4.2.22-6.3.12-2.95,1.02-5.74,2.19-8.37,2.06-4.67,4.44-9.2,5.93-14.1.99-3.27.74-6.57.18-9.89-.72-4.32-2.18-8.53-2.05-12.99Z"
        fill="#f3d2e6"
    />
    <path
        d="m27.39,166.12c.67-1.01,2.42-1.47,3.4-.97,1.24.64,1.79,1.79,1.23,3.1-2.71,6.37,1.39,12.53,5.15,15.3,2.52,1.85,5.4,2.79,8.52,3.14,3.72.4,4.65,1.98,3.57,6.09-.07.27-.37.49-.19.82.02,1.6-.38,3.23.22,4.81.67,3.67,2.14,6.69,6.1,7.86,1.34.39,2.67.33,3.96.21,4.18-.38,5.8,1.29,5.6,5.5-.44,1.69-.57,3.37-.02,5.06.96,4.14,3.84,6.46,7.53,8.08,2.81,1.23,5.41.42,7.98-.67.8-.34,1.58-.48,2.45-.53,1.41-.09,2.33.47,2.74,1.78.42,1.3-.12,2.65-1.4,3.32-5.11,2.65-10.29,3.51-15.67.65-4.92-2.61-8.16-6.42-9.49-11.89-.36-1.48-.48-2.92-.43-4.4.01-.65-.17-.81-.83-.87-7.82-.69-11.91-4.42-14.01-11.8-.72-2.53-.42-5.03-.51-7.56-.02-.62-.03-.92-.89-1.12-6.9-1.61-12.06-5.46-14.95-12.09-.66-1.5-1-3.08-1.34-4.67,0-1.41-.01-2.82-.02-4.23.28-1.68.31-3.43,1.3-4.92Z"
        fill="#090608"
    />
    <path
        d="m27.64,196.17c1.01-.17,1.71.37,2.31,1.08.71.86.43,1.79.15,2.7-1.07,3.41,1.4,7.66,4.56,8.74.85.29,1.68.16,2.41.23,2.98-.01,3.66.39,4.18,3.24.41,2.22,2.17,3.27,4.29,3.38,2.61.13,4.2,1.87,3.51,3.85-.42,1.18-1.17,1.87-2.55,1.88-4.69.03-8.44-1.51-10.39-6.08-.3-.7-.89-.63-1.36-.73-4.72-.93-7.64-3.88-9.33-8.23-.97-2.49-1.03-5.07-.37-7.65.34-1.3,1.2-2.18,2.59-2.41Z"
        fill="#ddabd0"
    />
    <path
        d="m26.09,171.04c.01,1.41.02,2.82.02,4.23-.44-1.41-.42-2.82-.02-4.23Z"
        fill="#ddabd0"
    />
    <path
        d="m15.6,335.4c.73-.77,2.28-.27,3.46-.3,13.72-.3,27.44-.59,41.16-.85,3.21-.06,6.41-.01,9.62-.01v-.25c16.22-.32,32.45-.69,48.67-.91,3.55-.05,7.08-.4,10.63-.35,1.23,0,1.48.41,1.23,1.49-.14.58-.16,1.18-.23,1.78-.21,1.87-.51,2.15-2.41,2.16s-3.81-.03-5.71,0c-6.41.1-12.83.07-19.23.4-3.55.19-7.09.12-10.63.21-12.66.32-25.31.61-37.97.91-12.45.3-24.9.58-37.35.93-1.31.04-1.67-.37-1.52-1.59.15-1.23-.51-2.79.28-3.62Z"
        fill="#3c6bb1"
    />
    <path
        d="m15.87,101.58v4.59c-.31-1.53-.32-3.06,0-4.59Z"
        fill="#3c6bb1"
    />
    <path
        d="m13.98,346.47l.02.1s-.03-.01-.04-.01l.02-.09Z"
        fill="#3c6bb1"
    />
    <path d="m14,346.57h-.04s.03,0,.04,0Z" fill="#3c6bb1" />
    <path
        d="m9.62,151.52c-.14,2.1.26,4.21-.22,6.3-.02-2.1-.41-4.22.22-6.3Z"
        fill="#ddabd0"
    />
    <path
        d="m6.24,217.9v4.29c-.32-1.43-.35-2.86,0-4.29Z"
        fill="#3c6bb1"
    />
    <polygon
        points="3.41 157.04 3.47 157.04 3.51 157.05 3.46 157.05 3.41 157.04"
        fill="#3c6bb1"
    />
</svg>