    <svg
      id="Capa_1"
      data-name="Capa 1"
      xmlns="http://www.w3.org/2000/svg"
      viewBox="0 0 235.2 172.43"
    >
      <path
        d="m170.24,18.47c2.82-.62,5.62-1.39,8.56-1.28,3.25.12,6.27.97,9.28,2.2,2.6,1.06,4.82,2.59,6.66,4.57,2.45,2.64,4.29,5.73,5.42,9.19.21,1.56.99,2.95,1.42,4.44.31,1.7,1.07,3.27,1.42,4.96.62,2.96,1.57,5.85,2.19,8.82.25,1.21.69,2.39.73,3.66.16,1.38.59,2.73.49,4.14-.02.33.21.6.63.39.26,3.67,1.04,7.22,2.47,10.63.09,1.43,1.03,2.4,1.83,3.46,0,0,.03.04.03.04.06.39.32.62.68.74.11.17.23.34.34.51-.05.16,0,.23.18.18,1.17.82,2.08,1.92,3.38,2.62,2.14,1.15,4.23,2.35,6.62,2.92.76.46,1.52.92,2.45.94,2.85.2,5.45,1.11,7.53,3.08.85.8,1.56,1.86,1.45,3.19-.21,1.75-.56,3.47-.99,5.17-.06.05-.12.1-.17.15-.54-.28-.72.2-.94.49-.52.7-1.01,1.43-1.51,2.14-.24.31-.67.5-.64.99-.57.34-1.3.55-1.2,1.46-.49.55-1,1.08-1.29,1.76-2.09,1.61-3.26,3.97-4.83,6-.08.11-.06.3-.09.45-2.48,2.57-3.83,5.91-5.98,8.71-.16.21-.2.51-.3.77-1.21,1.34-2.28,2.76-2.75,4.55-.94.54-1,.61-1.14,1.58-1.33,2.18-2.66,4.36-3.99,6.53-.12.24-.25.49-.37.73-.44.29-.63.72-.71,1.21,0,0-.03.04-.03.04-.87.97-1.86,1.87-2.2,3.21,0,0-.03.03-.03.03-1.46.9-2.24,2.4-3.21,3.73-2.43,2.49-4.8,5.06-7.32,7.46-3.01,2.88-6.25,5.49-9.58,8.01-1.93,1.47-3.94,2.85-5.98,4.11-2.26,1.39-4.8,2.36-7.33,3.23-3.66,1.26-7.37,2.25-11.26,2.66-2.03.21-4.1-.15-6.09.48-.24,0-.48,0-.72,0-2.92-.11-5.83-.42-8.75-.3-.92-.23-1.72-.75-2.64-1.04-1.18-.37-2.39-.29-3.55-.63-1.47-.16-2.84-.65-4.21-1.16.38-.28,1.06-.57-.01-.83-.55-.14-1.1-.29-1.65-.43-.81-.21-1.45-.87-2.34-.84-.56-.23-1.22-.26-1.61-.81-.04-.98-.83-.92-1.48-1.05-.52-.43-1.07-.79-1.7-1.03-.26-.64-.29-1.5-1.34-1.39-.28-.24-.61-.43-.83-.72-1.06-1.38-2.69-2.27-3.42-3.93-.09-.41-.1-.85-.5-1.29-.09.46-.16.81-.23,1.15-.19-.24-.37-.49-.56-.73-.57-1.84-1.22-3.63-3.13-4.56,0-.08-.03-.14-.11-.16.34-.6-.29-1-.38-1.51-.16-.9-.65-2.16-1.34-2.43-.87-.35-1.02-.94-1.25-1.52-.29-.73-.62-1.43-1-2.11-.3-.9-.39-1.96-1.63-2.14-.22-.39-.53-.75-.63-1.17-.62-2.62-2.15-4.82-3.29-7.2-.13-.28-.2-.73-.64-.61-.32.09-.5.49-.49.78.02.86-.49,1.43-.92,2.06-.24.36-.57.73-.37,1.24-.38.32-.48.78-.61,1.23-.8.63-1.26,1.47-1.49,2.45-.33.52-.66,1.04-.98,1.56-.97,1.52-2.27,2.85-2.71,4.68,0,0-.03.05-.03.05-1.23.72-1.44,2.22-2.41,3.13-.69.48-1.02,1.28-1.61,1.84.08.07.16.14.24.21-.52.85-1.44,1.44-1.65,2.49-.44,1.18-1.43,1.9-2.29,2.73-1.06,1.03-2.12,2.08-2.94,3.32-.15.05-.35.06-.44.16-1.89,2.11-3.95,4.04-6,5.99-2.71,2.33-5.61,4.42-8.76,6.11-4.63,2.48-9.5,4.39-14.62,5.56-1.63.37-3.35.33-5.02.47-2.98-.28-5.97-.22-8.96-.11-2.73-.49-5.36-1.36-8-2.19-.23-.07-.47-.12-.71-.19-.11-.76-.64-1.04-1.7-.92-1.34-.21-2.52-.92-3.79-1.32-.47-.85-1.21-1.38-2.33-1.66-.96-.45-1.93-.9-2.89-1.35-.29-.52-.63-.96-1.33-.66-.44-.82-1.42-.93-2.01-1.52-2.54-2.54-5.1-5.07-7.5-7.74-.65-.72-1.64-.96-2.1-1.87-.42-.83-.98-1.58-1.48-2.37,0-.79-.17-1.37-1.16-.95-.21-1.42-1.37-2.45-1.57-3.88-.08-.58-.47-.99-1.01-1.31-.52-.31-.95-.84-.99-1.44-.06-.89-.45-1.66-.66-2.48-.11-.9-.8-1.49-1.22-2.23-.1-.52-.59-.78-.68-1.39-.3-2.01-.69-4.01-.79-6.05-.01-.3.08-.66-.33-.82-.21,1.06.08,2.16-.32,3.2-.41-1.4-.24-2.83-.26-4.25-.04-3.66-.02-7.31-.03-10.97.2-.05.41-.1.49-.33.06.03.11.07.17.09.02,0,.08-.04.09-.07.41-2.18.66-4.37.44-6.59.02-.09.05-.18.07-.27.15-.02.27-.06.17-.25.12-1.57,1.07-2.92,1.24-4.48,1.2-2.55,1.83-5.29,2.76-7.94.24-.3.34-.65.37-1.02.23-.25.55-.46.67-.75,1.34-3.11,3.42-5.8,4.94-8.8.56-1.12,1.51-1.95,1.98-3.11,2.33-3.16,4.56-6.4,7.34-9.21.67-.31,1.18-.76,1.45-1.47,1.08-.85,2.1-1.79,3.15-2.68,2.53-2.12,5.12-4.15,7.84-6.02,5.49-3.78,11.54-6.36,17.82-8.52,2.71-.93,5.48-1.54,8.29-2.03.51.08.91-.08,1.21-.51,2.91-.73,5.88-1.07,8.86-1.45,6.89-.88,13.8-.37,20.7-.49.6,0,1.21,0,2.05,0-1.09-1.25-1.74-2.52-2.83-3.44-.06-1.3-.58-2.4-1.42-3.39-.25-.29-.35-.7-.84-.38-.69-.54-1.02-1.31-1.31-2.1.1-.27-.06-.6-.24-.56-.56.1-.21.67-.41.99-.38-.69-.76-1.38-1.14-2.07.26-1.26-.91-1.8-1.39-2.69-.07-.14-.38.19-.5.4-.38-.6-.68-1.24-.85-1.94.15-1.66.09-1.74-1.11-1.57-.32-1.7-.41-3.41-.35-5.13.02-.48-.04-.71-.62-.78-.83-.09-1.67-.26-2.4-.72.97-.71-.1-1.09-.22-1.65-.34-1.66,0-3.34.82-4.76.58-1,1.87-1.07,3.01-1.02.29.01.58-.03.86-.04,2.09-.12,3.92.82,5.8,1.51.77.28,1.51.45,2.32.53,5.3.54,9.85-1.78,14.45-3.81,2-.88,3.88-2.04,5.78-3.16,3.81-2.26,7.18-5.1,10.71-7.74,3.66-2.74,7.24-5.63,11.87-6.77,4.6-1.13,8.65-.14,12.31,2.66,3.67,2.81,6.19,6.47,7.9,10.76.66,1.66,1.29,3.28,1.42,5.07-.05.34-.18.72.38.77.04.16.07.31.11.47-.05.62-.07,1.21.71,1.41.49,2.51.45,2.41,2.89,1.37,2.65-1.12,5.18-2.59,8.06-3.15,1.47-.24,2.88-.69,4.21-1.36ZM35.86,74.02c-.09.04-.19.07-.28.11.04.06.07.12.11.18-.29.46-.45,1.03-1.05,1.23-.07-.03-.15-.11-.2-.09-2.82,1.12-4.68,3.43-6.62,5.57-.58.64-1.11,1.29-1.82,1.79-.75.54-1.36,1.15-1.25,2.18-.43.51-.49,1.27-1.12,1.64-.25-.05-.34.02-.23.28-.09.09-.17.17-.26.26-1.37.39-1.64,1.48-1.72,2.69-.08.12-.15.24-.23.35-1.34.51-1.64.94-1.93,2.74-.85.52-.62,1.56-1.09,2.27-1.13-.08-1.26.05-1.47,1.51-.16.61-.03,1.27-.39,1.84-.71.33-.71,1.07-.95,1.67-.03.16-.07.32-.1.48-1,.21-1.65,1.43-1.53,2.87-.1.6-.2,1.2-.3,1.81-.52.74-1.39,1.35-.94,2.46-.02,1.6-.37,3.15-.76,4.7-.88-.71-1.31-.3-1.3.63.03,1.78.18,3.55.27,5.33.03,2.43.21,4.87.03,7.3-.1,1.44-.16,2.89.1,4.32-.34,1.23.33,1.91,1.33,2.39.11,1.96,1.46,3.55,1.64,5.49-.03.05-.05.1-.08.15.05-.02.09-.04.14-.05.08.18.16.37.23.55.28.42.41,1.07,1.17.74.17.37.33.74.5,1.11-.23.22-.22.39.11.49.12.16.25.31.37.47.01.52.4.9.52,1.4.12.47.55.89,1.2.61.73,1.24.96,2.79,2.28,3.66.1.7.64.88,1.21,1.03.08,1.28,1.3,1.46,2.04,2.1.62.92,1.12,1.98,2.43,2.1.49.49,1.06.85,1.75,1l-.03.07.06-.05c.11.32.38.45.66.56-.14.82.48.83,1,.95.1.06.21.12.31.18l-.03.05.05-.04c.82.71,1.84.91,2.84,1.19.43,1.48,1.85,1.3,2.91,1.72.96.55,2.05.65,3.1.89.25,1.4,1.5.9,2.31,1.23.26,0,.52,0,.78.01,2.47.51,4.75,1.82,7.38,1.6,1.41-.12,2.84.16,4.15-.74,1.02-.7,2.42-.35,3.52-.95.52.07,1.04.07,1.52-.19.59.25,1.12,0,1.73-.09-.32-.3-.56-.54-.81-.77.76-.16,1.52-.38,2.29-.47.62-.08,1.25-.03,1.59-.69,1.02,0,1.87-.68,2.89-.76.34-.03.59-.55.27-1,.18-.09.37-.19.55-.28l.03.06-.02-.06c1.12-.26,2.08-.74,2.87-1.65,1.01-1.17,2.59-1.51,3.82-2.38.42-.2,1.06-.2.89-.95.31-.1.65-.19.74-.55.18-.78.84-1.03,1.43-1.37,1.08-1.05,2.19-2.08,3.24-3.16.94-.98,2-1.9,2.07-3.42.24-.22.58-.4.69-.67.44-1.06,1.88-1.37,1.97-2.67,1.46-.3,1.88-1.46,2.21-2.7l.66-.95c.52-.59,1.05-1.19,1.57-1.78.27-1.49,1.31-2.6,1.93-3.91.56-.36,1.21-.65,1.21-1.47.25-.74.48-1.49,1.06-2.07.83-.01,1.29-.89,1.1-2.09.77-.41.89-1.2,1.14-1.91.22-.63.17-1.37.7-1.89.16.02.44.07.45.04.4-1.2,1.67-1.96,1.7-3.34.07-.35.15-.71.22-1.06.67.12,1.18-.15,1.46-.74.38-.81.68-1.65,1.01-2.47.3-.39.45-.83.5-1.31.61-.13,1.3-.14,1.35-1.01.3-.31.42-.71.54-1.11.48-.29,1.06-.52.76-1.28.36-.15.65-.37.79-.75.72-.37,1.48-.7,1.3-1.74.4-.46.8-.91,1.21-1.37.73.06.96-.43,1.12-1.01.6-.17.6-.94,1.15-1.16.03-.01.09-.04.09-.04-.02-.07-.05-.13-.07-.2.73-.22,1.22-.75,1.65-1.34l.02.03-.03-.02c.46-.47.91-.94,1.37-1.4.97-.22,1.56-.86,1.94-1.73.18-.09.37-.17.55-.26.69-.16,1.23-.48,1.44-1.2.67-.24,1.65,0,1.77-1.15.02-.14.39-.35.61-.35.82,0,1.46-.5,2.18-.75.63-.33,1.26-.65,1.89-.98.37,0,.74,0,1.11,0,.72-.03,1.3-.18.98-1.12,1.74-.36,3.57-.28,5.21-1.1.66-.04.94-.23,1.18-.79.67-.03,1.35-.05,2.02-.08.03.12.03.12,0,0,2.18-.05,4.36-.09,6.54-.14,1.05.08,2.09.21,3.14-.02.61.11,1.21.12,1.82.02.31.2.63.07.95.03.51.01,1.17.17,1.3-.49.12-.61-.63-.59-.97-.87-.03-.02-.08-.02-.11-.03,0-1.26-1.06-1.73-1.82-2.43-.81-.68-1.35-1.57-1.87-2.46-.06-.59-.36-.95-.97-1.02-.26-1.02-.9-1.83-1.43-2.71h0c-.07-.41-.14-.8-.21-1.2h.05s-.05,0-.05,0c-.03-.11-.07-.23-.1-.34-.21-.83-.72-.72-1.28-.4-.19-1.02-.03-2.17-.63-3.02-.78-1.1-1.05-2.27-1.12-3.55.07-.33.1-.66-.15-.93-1.05-1.13-3.72-.54-4.35.95-.43.09-.87.17-1.3.26-.53-.09-1.06-.15-1.56.09-1.32.65-2.74.74-4.17.87-1.31.11-2.5-.16-3.67-.67-.27-.39-.66-.41-1.09-.38-1.03.09-2.02-.14-3.02-.33-.26-.33-.27-.94-.74-.99-1.62-.16-2.81-1.3-4.27-1.8-.09-.03-.22.04-.33.06-.26-.11-.52-.21-.78-.32,0-.72.13-1.56-1.08-1.05-1.24-.76-2.43-1.63-3.91-1.91.27-1.51-1.1-1.52-1.89-2.06-.19-.15-.38-.3-.58-.46-.6-1.21-1.68-1.93-2.77-2.63-.77.21-1.55.41-2.32.63-.14.04-.35.17-.37.28-.31,1.76-1.72,1.44-2.9,1.54-1.74.16-3.37-.73-5.11-.55.77-.72,1.74-.51,2.67-.52-1.61-.68-3.24-.94-4.94-.74-.2.02-.43.02-.38.33-.19-.07-.37-.2-.56-.2-4.02,0-8.05.02-12.07.03-2.88-.35-5.72.29-8.57.45-1.04.06-1.84.69-2.71,1.18-.69-.08-1.38-.2-1.99.27-.11-.39-.39-.37-.63-.19-.27.2-.41.49-.02.75-.91.31-1.85.37-2.81.36-1.07-.01-2.13.17-3.11.66-1.23-.28-.47.76-.74,1.11-1.81-.12-3.35.69-4.94,1.37-1.06-.45-1.86.27-2.96.53.58.23,1,.3,1.27.64-1.1.66-2.58.28-3.54,1.3-.59.24-1.18.48-1.77.73-.29.12-.54.26-.28.63-.79.67-1.81.87-2.7,1.32-.91.42-1.94.69-2.42,1.72l-.55.6c-.23-.29-.36-.11-.48.1-.12.08-.23.17-.35.25Zm63.84-43.58c-.97.51-2.01.46-3,.56-1.44.15-2.88.21-4.32.37-1.21.13-1.72.83-1.25,1.7.49.9,1.05,1.77,1.64,2.6.81,1.13,1.69,2.21,2.52,3.32,1.33,1.75,2.57,3.58,3.99,5.25,1.77,2.1,3.49,4.32,5.59,6.05,3.14,2.58,5.99,5.55,9.64,7.52,2.56,1.37,4.83,3.28,7.72,4.02,2.16.55,4.42.81,6.31-.46,1.52-1.02,3.26-1.74,4.55-3.09.61-.64,1.41-1.02,2.23-1.32,2.99-1.09,6.46-.44,7.99,2.77.95,1.99,1.11,4.17,2.12,6.15.73,1.42.95,3.1,1.86,4.57,1.22,1.96,2.07,4.14,3.19,6.19,1.64,2.99,4.06,5,6.61,6.99,1.6,1.25,3.5,2.01,5.24,3.01,2.41,1.39,4.97,1.98,7.65,1.96,3.7-.03,7.09-1.33,10.35-2.97,1.26-.64,2.49-1.46,3.74-2.02,2.48-1.11,4.71-2.62,7.1-3.86,1.18-.61,2.44-1.06,3.55-1.83,1.26-.88,2.76-.73,4.22-.74.61,0,1.46.01,1.27-.88-.19-.9-.04-1.84-.29-2.69-.55-1.87-1.31-3.64-1.73-5.59-.41-1.88-1.18-3.71-1.27-5.69-.06-1.28.1-2.69-.59-3.76-.89-1.39-.8-2.87-.92-4.36-.04-.45.03-.91-.19-1.34-.65-1.31-.97-2.72-1.29-4.13-.23-1.04-.09-2.28-.63-3.1-.65-1-.67-2.1-1.11-3.07-1.1-2.43-.51-5.45-2.66-7.5-.1-.1-.08-.32-.12-.48-.56-2.29-2.29-3.8-4-5.04-1.51-1.09-3.49-1.51-5.47-1.74-3.68-.42-7.03,1.14-10.56,1.46-1.15.1-1.46,1.3-2.49,1.39-1.62.14-2.98.92-4.45,1.58-2.33,1.05-4.38,2.49-6.51,3.81-1.92,1.19-3.85,1.32-5.92,1.08-.42-.05-.83-.17-1.25-.41-1.61-.96-2.43-2.29-2.8-4.14-.46-2.26-1.28-4.47-1.4-6.76-.1-1.81.07-3.5-.68-5.32-.85-2.07-.93-4.41-2.25-6.42-.86-1.3-1.68-2.46-3.18-2.99-.51-.18-.94-.5-1.32-.9-.59-.61-2.27-.73-2.82-.13-.64.7-1.45.93-2.31,1.05-.65.08-1.1.43-1.62.79-.97.67-1.56,1.84-2.76,2.2-.58.17-.97.59-1.43.93-1.62,1.18-2.98,2.67-4.77,3.67-1.01.56-2.14,1.23-2.88,1.99-1.1,1.13-2.41,1.78-3.7,2.41-1.38.68-2.62,1.57-3.92,2.34-1.25.73-2.9.79-3.77,2.16-2.16.18-3.95,1.65-6.14,1.76-.83.04-1.65.21-2.31.67.17.57.68.01,1.03.4Zm101.45,44.74c-.17.28-.31.4-.29.49.35,1.57.34,3.29,1.84,4.39.27.2.64.46.49.79-.33.71-.17,1.47-.37,2.19-.62,2.23-2.35,3.46-4.17,4.52-.94.55-1.78,1.47-2.76,1.69-1.67.38-3.1,1.36-4.3,2.24-2,1.47-4.76,1.66-6.25,3.85-2.05.25-3.7,1.81-5.85,1.8-.48,0-1.27.08-1.39.35-.62,1.42-1.97,1.16-2.97,1.21-3.31.14-6.63.07-9.95,0-.73-.01-1.6.02-2.14-.69-.91-1.22-2.56-1.27-3.46-.11-.43.56-1,.99-1.61,1.35-1.1.65-2.3.89-3.56.89-2.57-.01-5.23.36-7.67-.39-1.84-.57-3.61-.74-5.47-.73-2.66.02-5.16,1.14-7.83,1.2-.71.02-1.61-.27-2.14.34-.62.72-1.4.78-2.2.96-.88.2-1.89.23-2.6.69-2.15,1.39-4.46,2.49-6.43,4.23-1.42,1.25-2.94,2.36-4.15,3.85-1.08,1.33-2.47,2.44-3.42,3.85-.98,1.45-1.88,2.95-3.02,4.3-.32.38-.61.85-.44,1.34.18.54.76.5,1.19.43,2.54-.45,3.84,1.24,4.97,3,.86,1.33,1.86,2.58,2.48,4.05.5,1.19,1.54,2.05,2.06,3.19,1.17,2.54,2.69,4.9,4.14,7.26,1.05,1.71,2.35,3.34,3.55,4.98,2.18,2.97,4.89,5.16,8.15,6.73,2.46,1.19,4.81,2.65,7.62,2.98.74.09,1.5.14,2.2.34,2.41.71,4.82,1.28,7.38,1.06.88-.07,1.69-.35,2.54-.51,3.61-.68,7.34-.54,10.82-2.14,2.16-.99,4.46-1.59,6.59-2.8,1.7-.97,3.31-2.03,4.96-3.07,2.28-1.43,4.14-3.27,6.16-4.98,2.14-1.81,4.07-3.81,6.09-5.71,2.35-2.2,4.34-4.68,6.35-7.12,2.26-2.73,4.45-5.58,6.06-8.81.6-1.21,1.37-2.36,2.17-3.49,1.09-1.53,1.73-3.36,2.83-4.97,1.17-1.71,2.2-3.55,3.26-5.35,1.17-1.99,2.62-3.78,3.96-5.63,1.25-1.72,2.55-3.43,3.94-5.06.55-.64,1.09-1.34,1.39-2.18.18-.51.17-.85-.35-1.13-2.2-1.21-4.55-2.11-6.9-2.95-1.27-.45-2.3-1.25-3.29-1.97-2.47-1.78-4.09-4.51-6.49-6.43-.45-.36-.73-.97-.88-1.61-.2-.87-.53-1.71-.86-2.74Zm-29.35,13.95c-1.5-.45-3.02-.33-4.55-.09,1.49.47,3.02.36,4.55.09Zm-62.29,31.96c-.67-.09-1.08-.44-1.65-.23.34.91.78,1.13,1.65.23Z"
        fill="#030405"
      />
      <path
        d="m9.19,149.21c.5.79,1.06,1.54,1.48,2.37.46.91,1.45,1.15,2.1,1.87,2.4,2.67,4.96,5.2,7.5,7.74.59.59,1.57.7,2.01,1.52.02.09.03.19.05.28-2.52-.21-3.93-2.21-5.57-3.68-2.11-1.89-4.22-3.82-6.03-6.05-.95-1.17-1.85-2.32-2.35-3.74.3-.03.59-.07.8-.31Z"
        fill="#e2a0c8"
      />
      <path
        d="m81.34,19.9c-.29.02-.58.05-.86.04-1.15-.04-2.43.03-3.01,1.02-.83,1.42-1.16,3.1-.82,4.76.11.55,1.19.94.22,1.65-1.5-.91-2.04-2.41-1.63-4.49.08-.4.17-.81.19-1.21.07-1.58.95-2.43,2.57-2.45.78,0,1.57,0,2.35,0,.5,0,.91.09,1,.68Z"
        fill="#e2a0c8"
      />
      <path
        d="m13.56,83.14c-.47,1.16-1.41,2-1.98,3.11-1.52,3-3.6,5.69-4.94,8.8-.13.29-.45.5-.67.75-.34-.24-.31-.57-.15-.88,1.05-2.01,2.11-4.01,3.16-6.02.23-.43.48-.88.58-1.35.24-1.18.87-2.06,1.85-2.72.2-.13.21-.33.27-.52.3-.9.9-1.34,1.88-1.18Z"
        fill="#e2a0c8"
      />
      <path
        d="m103.33,129.14c-.2-.51.13-.88.37-1.24.43-.64.94-1.2.92-2.06,0-.28.17-.69.49-.78.44-.12.51.33.64.61,1.13,2.38,2.66,4.58,3.29,7.2.1.42.42.78.63,1.17-.06.2-.11.4-.17.6-1.61-1.1-1.9-2.95-2.49-4.58-.32-.89-.9-1.62-1.12-2.83-.74,1.13-1.28,2.11-2.57,1.92Z"
        fill="#e2a0c8"
      />
      <path
        d="m43.02,171c2.99-.11,5.98-.16,8.96.11-.66,1.05-1.61,1.39-2.82,1.29-1.65-.13-3.34.23-4.94-.49-.48-.22-1-.34-1.2-.92Z"
        fill="#e2a0c8"
      />
      <path
        d="m3.79,139.15c.21.83.6,1.6.66,2.49.04.6.47,1.14.99,1.44.54.32.93.72,1.01,1.31.2,1.43,1.36,2.46,1.57,3.88-.05.19-.1.37-.15.56-.76-.2-1.12-.79-1.39-1.45-.73-1.81-1.3-3.7-2.79-5.11-.34-.32-.37-.81-.26-1.28.39-.56,0-1.27.35-1.84Z"
        fill="#e2a0c8"
      />
      <path
        d="m111.3,136.18c.38.68.71,1.38,1,2.11.23.58.38,1.17,1.25,1.52.69.28,1.18,1.54,1.34,2.43.09.52.72.92.38,1.51-.65.01-1.19-.28-1.36-.87-.59-1.98-2.21-3.31-3.09-5.1-.22-.45-.45-.89-.34-1.42.27-.07.54-.13.81-.2Z"
        fill="#e2a0c8"
      />
      <path
        d="m.46,131.87c.4-1.03.11-2.13.32-3.2.41.15.31.52.33.82.1,2.04.49,4.04.79,6.05.09.61.58.87.68,1.39-.04.14-.08.28-.12.43-.62,0-.83-.31-1.07-.91-.61-1.48-1.16-2.94-.92-4.58Z"
        fill="#e2a0c8"
      />
      <path
        d="m5.59,96.82c-.92,2.65-1.55,5.39-2.76,7.94-.82-.49-.15-1.15-.07-1.64.12-.71.41-1.41.47-2.14.12-1.45,1.26-2.47,1.61-3.83.07-.29.44-.33.74-.33Z"
        fill="#e2a0c8"
      />
      <path
        d="m208.17,128.63c1.33-2.18,2.66-4.36,3.99-6.53.28,0,.57,0,.86,0,.02,1.72-1.48,2.56-2.24,3.83-.43.73-1.15,1.27-1.51,2.09-.18.42-.56.72-1.1.61Z"
        fill="#e2a0c8"
      />
      <path
        d="m233,93.04c.43-1.7.78-3.43.99-5.17.45-.08.69.23.87.54.9,1.52-.17,4.14-1.87,4.63Z"
        fill="#e2a0c8"
      />
      <path
        d="m153.34,163.53c.24,0,.48,0,.72,0,.16.57.65.4,1.03.43.52.04,1.08-.09,1.66.47-2.9.59-5.69.2-8.49.16.74-.71,1.67-.55,2.56-.64.84-.09,1.8.43,2.52-.42Z"
        fill="#e2a0c8"
      />
      <path
        d="m119.81,149.35c.74,1.66,2.36,2.55,3.42,3.93.22.28.55.48.83.71-.04.18-.09.36-.13.54-1.25-.3-2.32-.84-2.78-2.14-.27-.78-1.13-1.05-1.49-1.77-.18-.36-.52-.64-.44-1.1.2-.06.39-.12.59-.17Z"
        fill="#e2a0c8"
      />
      <path
        d="m213.3,120.52c.47-1.79,1.54-3.21,2.75-4.55-.23,2.16-.75,4.17-2.72,5.47,0-.31-.02-.61-.03-.92Z"
        fill="#e2a0c8"
      />
      <path
        d="m80.39,158.98c2.05-1.95,4.11-3.88,6-5.99.09-.1.29-.11.44-.16.08.31,0,.6-.22.79-1.71,1.43-2.86,3.37-4.55,4.83-.52.45-1.01.67-1.67.53Z"
        fill="#e2a0c8"
      />
      <path
        d="m138.4,161.55c1.15.35,2.37.27,3.55.63.92.28,1.72.81,2.64,1.04-.25.37-.58.18-.89.14-1.54-.2-3.07-.48-4.61-.58-1.02-.07-1.11-.45-.69-1.22Z"
        fill="#e2a0c8"
      />
      <path
        d="m115.39,143.93c1.91.93,2.56,2.71,3.13,4.56-1.59-.48-3.34-3.02-3.13-4.56Z"
        fill="#e2a0c8"
      />
      <path
        d="m222.33,106.49c.03-.15,0-.34.09-.45,1.57-2.03,2.74-4.39,4.83-6,.21.99-.57,1.51-1.1,2.07-.91.95-1.61,2.03-2.24,3.16-.37.65-.82,1.12-1.58,1.23Z"
        fill="#e2a0c8"
      />
      <path
        d="m1.36,109.75c.22,2.22-.03,4.41-.44,6.59,0,.03-.07.07-.09.07-.06-.02-.12-.06-.17-.09-.13-.66.34-1.44-.37-1.99.05-1.23.12-2.45.14-3.68.01-.65.18-1.05.93-.89Z"
        fill="#e2a0c8"
      />
      <path
        d="m87.18,43.55c.49-.31.59.1.84.38.84.99,1.35,2.09,1.42,3.39-1.28-.72-1.81-1.98-2.38-3.21.04-.19.08-.38.13-.56Z"
        fill="#e73c38"
      />
      <path
        d="m97.54,139.06c.44-1.83,1.74-3.16,2.71-4.68-.04,2.1-1.26,4.22-2.71,4.68Z"
        fill="#e2a0c8"
      />
      <path
        d="m95.09,142.24c.98-.91,1.19-2.41,2.41-3.13-.66,1.64-.73,3.64-2.73,4.46.11-.44.21-.89.32-1.33Z"
        fill="#e2a0c8"
      />
      <path
        d="m170.24,18.47c-1.33.67-2.74,1.12-4.21,1.36,1.13-1.48,2.59-1.95,4.21-1.36Z"
        fill="#e2a0c8"
      />
      <path
        d="m201.61,137.59c.98-1.32,1.75-2.82,3.21-3.73-.76,1.51-1.25,3.26-3.21,3.73Z"
        fill="#e2a0c8"
      />
      <path
        d="m23.61,163.37c.96.45,1.93.9,2.89,1.35-.04.31-.08.63-.11.94-1.58.08-2.31-1.06-3.07-2.14.1-.05.2-.1.3-.15Z"
        fill="#e2a0c8"
      />
      <path
        d="m2.45,137.35c.04-.14.08-.29.12-.43.42.74,1.11,1.33,1.22,2.23-.36.56.04,1.28-.35,1.84-.67-1.12-.73-2.41-.98-3.64Z"
        fill="#e73c38"
      />
      <path
        d="m207.04,59.55c-.42.21-.65-.06-.63-.39.09-1.42-.33-2.76-.49-4.14.88.6,1.16,1.49,1.17,2.48.01.68.23,1.37-.05,2.05Z"
        fill="#e2a0c8"
      />
      <path
        d="m201.58,37.58c-.43-1.49-1.21-2.88-1.42-4.44.16.03.37,0,.47.08.66.55,1.27,3.42.94,4.35Z"
        fill="#e2a0c8"
      />
      <path
        d="m82.19,37.52c.12-.21.43-.53.5-.4.48.89,1.65,1.43,1.39,2.69-1.16-.09-1.67-.71-1.89-2.29Z"
        fill="#e2a0c8"
      />
      <path
        d="m111.3,136.18c-.27.07-.54.13-.81.2-.33-.58-.66-1.16-.99-1.75.06-.2.11-.4.17-.6,1.24.19,1.33,1.24,1.63,2.14Z"
        fill="#e73c38"
      />
      <path
        d="m26.38,165.67c.04-.31.07-.63.11-.94,1.12.29,1.86.82,2.33,1.67-.89,0-1.6-.57-2.44-.72Z"
        fill="#e73c38"
      />
      <path
        d="m92.07,146.78c.22-1.05,1.13-1.64,1.65-2.49.22-.11.43-.23.65-.34-.03,1.3-1.1,2.61-2.3,2.83Z"
        fill="#e2a0c8"
      />
      <path
        d="m204.85,133.82c.34-1.34,1.32-2.24,2.2-3.21,0,1.57-.85,2.56-2.2,3.21Z"
        fill="#e2a0c8"
      />
      <path
        d="m87.18,43.55c-.04.19-.08.38-.13.56-1.33-.09-1.49-1.21-1.88-2.13.39.03.43-.41.7-.54.29.79.62,1.56,1.31,2.1Z"
        fill="#e2a0c8"
      />
      <path
        d="m230.38,95.83c.5-.72.99-1.44,1.51-2.14.22-.3.4-.78.94-.49-.72.97-1.1,2.25-2.45,2.64Z"
        fill="#e73c38"
      />
      <path
        d="m132.53,159.14c.55.14,1.1.29,1.65.43,1.07.26.39.55.01.83-.7.23-1.11-.38-1.65-.58,0-.23,0-.45-.01-.68Z"
        fill="#e73c38"
      />
      <path
        d="m132.53,159.14c0,.23,0,.45.01.68-1.26.23-1.96-.41-2.35-1.52.89-.03,1.54.63,2.34.84Z"
        fill="#e2a0c8"
      />
      <path
        d="m211.34,73.64c-.8-1.05-1.74-2.03-1.83-3.46,1.27.8,1.42,2.2,1.83,3.46Z"
        fill="#e2a0c8"
      />
      <path
        d="m94.37,143.95c-.22.11-.43.23-.65.34-.08-.07-.16-.14-.24-.21.59-.57.92-1.37,1.61-1.84-.11.44-.22.89-.32,1.33-.14.13-.27.26-.41.38Z"
        fill="#e73c38"
      />
      <path
        d="m32.62,167.71c1.06-.12,1.59.16,1.7.92-.79.11-1.58.21-1.7-.92Z"
        fill="#e73c38"
      />
      <path
        d="m155.08,21.6c-.78-.2-.76-.8-.71-1.41.74-.46.49-1.31.85-1.95.01,1.12.29,2.25-.15,3.36Z"
        fill="#e2a0c8"
      />
      <path
        d="m213.3,120.52c0,.31.02.61.03.92-.11.22-.21.44-.32.66-.29,0-.57,0-.86,0,.15-.97.2-1.04,1.14-1.58Z"
        fill="#e73c38"
      />
      <path
        d="m225.02,81.6c-.93-.02-1.69-.48-2.45-.94.65-.58,1.88-.11,2.45.94Z"
        fill="#e2a0c8"
      />
      <path
        d="m7.87,148.82c.05-.19.1-.38.15-.56.99-.41,1.17.16,1.16.95-.21.24-.5.28-.8.31-.17-.23-.34-.47-.52-.7Z"
        fill="#e73c38"
      />
      <path
        d="m123.93,154.54c.04-.18.09-.36.13-.54,1.04-.11,1.08.75,1.34,1.4-.08.04-.16.08-.24.13-.41-.33-.82-.66-1.22-.98Z"
        fill="#e73c38"
      />
      <path
        d="m80.22,34.01c1.21-.16,1.26-.09,1.11,1.57-1.04-.06-1.38-.6-1.11-1.57Z"
        fill="#e2a0c8"
      />
      <path
        d="m101.23,132.81c.23-.98.69-1.82,1.49-2.45-.23.98-.42,1.98-1.49,2.45Z"
        fill="#e2a0c8"
      />
      <path
        d="m60.66,52.71c-.3.42-.7.58-1.21.51-.37-.32-.86-.12-1.33-.24.84-.58,1.48-.64,2.54-.27Z"
        fill="#e2a0c8"
      />
      <path
        d="m125.15,155.52c.08-.04.16-.08.24-.13.63.25,1.18.61,1.69,1.03.05.17.09.34.14.52-1-.03-1.68-.52-2.08-1.42Z"
        fill="#e2a0c8"
      />
      <path
        d="m22.34,72.46c-.27.7-.78,1.16-1.45,1.47-.22-1.18.25-1.69,1.45-1.47Z"
        fill="#e2a0c8"
      />
      <path
        d="m228.54,98.28c-.11-.9.63-1.11,1.2-1.46.18.96-.25,1.42-1.2,1.46Z"
        fill="#e2a0c8"
      />
      <path
        d="m.29,114.32c.71.56.24,1.33.37,1.99-.08.23-.29.27-.49.32,0,0-.04.06-.04.06,0,0-.06-.04-.06-.04,0-.07.01-.15.02-.23.07-.71.14-1.41.21-2.12Z"
        fill="#e73c38"
      />
      <path
        d="m127.23,156.94c-.05-.17-.09-.35-.14-.52.65.14,1.44.07,1.49,1.05-.6.19-.81-.58-1.35-.54Z"
        fill="#e73c38"
      />
      <path
        d="m23.61,163.37c-.1.05-.2.1-.3.15-.33-.18-.65-.35-.98-.53-.02-.09-.04-.19-.05-.28.71-.3,1.04.14,1.33.66Z"
        fill="#e73c38"
      />
      <path
        d="m119.81,149.35c-.2.06-.39.12-.59.17-.05-.11-.09-.21-.14-.31.07-.34.14-.69.23-1.15.39.44.41.88.5,1.29Z"
        fill="#e73c38"
      />
      <path
        d="m85.87,41.45c-.27.13-.31.56-.7.54-.02-.05,0-.09.05-.11.19-.32-.15-.89.41-.99.18-.03.34.29.24.56Z"
        fill="#e73c38"
      />
      <path
        d="m207.08,130.58c.08-.5.27-.93.71-1.21,0,.54.02,1.1-.71,1.21Z"
        fill="#e2a0c8"
      />
      <path
        d="m212.05,74.42c-.36-.13-.61-.35-.68-.74.58-.08.77.2.68.74Z"
        fill="#e2a0c8"
      />
      <path
        d="m154.26,19.72c-.55-.05-.42-.43-.38-.77.58.03.51.38.38.77Z"
        fill="#e2a0c8"
      />
      <path
        d="m212.56,75.11c-.17.05-.22-.02-.18-.18.06.06.12.12.18.18Z"
        fill="#e2a0c8"
      />
      <path
        d="m1.6,109.24c.1.19-.02.23-.17.25.06-.08.11-.17.17-.25Z"
        fill="#e2a0c8"
      />
      <path
        d="m.09,116.44c0,.08-.01.15-.02.23-.02-.06-.05-.11-.07-.17,0-.01.06-.04.09-.06Z"
        fill="#e2a0c8"
      />
      <path
        d="m90.84,129.62c-.63,1.31-1.66,2.42-1.93,3.91-1.41-.18-1.47.82-1.57,1.79-.22.32-.44.63-.66.95-.78.15-2.02,1.66-2.21,2.7-.09,1.3-1.53,1.61-1.97,2.67-.11.27-.45.45-.69.67-.07-.03-.18-.1-.2-.08-1.67,1.81-3.02,3.89-4.81,5.59-.3.29-.59.6-.29,1.06-.59.33-1.25.59-1.43,1.37-.09.36-.43.45-.74.54-.53.1-1.11.15-.89.95-1.23.87-2.81,1.22-3.82,2.38-.79.91-1.75,1.39-2.87,1.65,0,0,0,0,0,0-.18.09-.37.19-.55.28-1.02.25-1.76,1.21-2.95,1.08-.26-.03-.39.37-.21.68-.35.66-.98.61-1.59.69-.77.1-1.53.31-2.28.47-.66-.09-.88.29-.92.87-.48.26-1,.27-1.52.19-1.89,0-3.79-.09-5.67.05-2.39.18-4.76.3-7.14-.04-.72-.1-1.51-.32-2.25.07-.26,0-.52,0-.77-.01.24-.47.17-.77-.41-.86-.64-.1-1.27-.24-1.9-.36-1.05-.24-2.14-.34-3.1-.89.06-.26.35-.65.07-.76-.97-.38-1.81-1.19-2.98-.96-1-.27-2.02-.48-2.84-1.19,0,0-.02-.02-.02-.02-.1-.06-.21-.12-.31-.17.24-.92-.3-1.03-1.01-.95-.28-.11-.56-.24-.66-.56,0,0-.03-.03-.03-.03-.68-.16-1.25-.52-1.75-1-.28-1.25-1.3-2.13-2.43-2.1-.75-.64-1.96-.82-2.04-2.1-.08-.72-.39-1.17-1.21-1.03-1.32-.87-1.55-2.42-2.28-3.66-.03-1.14-.88-1.57-1.72-2.01-.12-.16-.25-.31-.37-.47.25-.23.12-.37-.11-.49-.17-.37-.33-.74-.5-1.11.02-.89-.17-1.45-1.17-.74-.08-.18-.16-.37-.23-.55,0,0,.01-.08.01-.08h-.07c-.18-1.95-1.52-3.54-1.64-5.49-.09-1.33-.13-2.68-.46-4.1-.52.56-.27,1.17-.38,1.7-.14.74-.33-.05-.49,0-.26-1.44-.21-2.88-.1-4.32.18-2.44,0-4.87-.03-7.3.68.1.78-.38.89-.86.39-1.69.3-3.39.13-5.1.39-1.54.74-3.09.76-4.69.58-.72,1.4-1.35.94-2.46.1-.6.2-1.2.3-1.8.61.33.89,0,1.15-.51.39-.75.23-1.58.38-2.37.03-.16.07-.32.1-.47.69-.35,1-.91.95-1.68.35-.57.23-1.23.39-1.84.98-.02,1.37-.63,1.47-1.51.47-.7.24-1.75,1.09-2.27.7-.44,1.85-2.07,1.93-2.74.08-.12.15-.24.23-.35.57-.9,1.15-1.79,1.72-2.69.09-.09.17-.17.26-.26.09,0,.19,0,.29.01-.02-.1-.03-.19-.05-.29.63-.37.69-1.13,1.12-1.64,2.34-.64,2.75-3.28,4.6-4.49.48-.32.74-1.23,1.43-1.56,1.61-.78,2.45-2.41,3.86-3.4.59-.2.76-.77,1.05-1.23.07,0,.16.02.2-.01.09-.09.1-.2-.02-.28.12-.08.23-.17.35-.25.22.25.38.21.48-.1.18-.2.36-.4.55-.6.48.17,1.02-.06,1.27-.28.45-.39,1.53-.38,1.16-1.44.89-.45,1.91-.65,2.7-1.32.86-.18,1.8-.24,2.04-1.36.96-1.03,2.45-.64,3.54-1.3.79-.06,1.41-.38,1.7-1.17,1.58-.68,3.13-1.49,4.94-1.37.65.3,1.21-.06,1.45-.51.23-.42-.6-.23-.72-.6.98-.48,2.04-.67,3.11-.66.96.01,1.9-.05,2.81-.36.33-.05.5-.3.65-.56.61-.46,1.3-.35,1.99-.27,2.44.2,4.87.06,7.27-.35,1.14-.2,2.33.12,3.43-.38.39-.18.98-.21.58-.89,4.02-.01,8.05-.03,12.07-.03.19,0,.37.13.56.2.95.13,1.54,1.26,2.65.93,1.74-.18,3.38.71,5.11.55,1.17-.11,2.59.22,2.9-1.54.02-.11.23-.24.37-.28.77-.22,1.54-.42,2.32-.63.36,2.09.49,2.21,2.77,2.63.19.15.38.3.57.46-.22,1.21.35,1.83,1.89,2.06,1.47.28,2.67,1.15,3.91,1.91-.26.98.35,1.08,1.08,1.05.26.11.52.21.77.32.31.49.29,1.37.92,1.45,1.56.19,2.86,1.18,4.42,1.28,1,.19,1.99.41,3.02.33.43-.04.82,0,1.08.38-.21.28-.55.49-.55.9,2.53.55,6.81.61,9.03.1.65-.15,1.37-.32.92-1.29.43-.09.87-.17,1.3-.26.68.34,1.15.02,1.61-.47.8-.87,1.16-.86,1.68.23.38.8.73.56,1.21.22.06,1.28.33,2.45,1.12,3.55.61.85.45,2,.63,3.02.07.52.36.94.67,1.48.22-.44.19-.9.62-1.08.03.11.07.23.1.34,0,0,0,0,0,0,.07.4.14.79.2,1.19,0,0-.09.02-.09.02h.09c.53.87,1.17,1.68,1.43,2.7.07.58-.12,1.42.97,1.02.53.9,1.06,1.79,1.87,2.46.11,1.28,1.06,2.42.65,3.79-.61.1-1.22.09-1.82-.02.02-.04.05-.07.06-.11,0-.03-.01-.1-.03-.1-.78-.14-1.55-.31-2.34-.39-.39-.04-.96-.13-.84.62-2.18.05-4.36.09-6.54.14,0,0,0,0,0,0-.67.03-1.35.05-2.02.08-.72-.11-1.44-.15-2.24.14.35.36.88.23,1.06.65-1.64.82-3.47.74-5.21,1.1-.94-.16-1.21.27-.98,1.12-.37,0-.74,0-1.11,0-1.56-.23-1.61-.2-1.89.98-.73.25-1.36.75-2.18.75-.21,0-.59.21-.61.35-.12,1.14-1.09.91-1.77,1.15-1.16-.41-.93.84-1.45,1.2-.18.09-.37.17-.55.26-1.54-.42-1.32,1.13-1.94,1.73-.46.47-.91.94-1.37,1.4,0,0,.01-.01.01-.01-.43.59-.92,1.12-1.65,1.34-.11-.1-.22-.09-.25.05,0,.05.15.13.23.19-.56.22-.55.99-1.15,1.16-.59.09-.98.41-1.12,1.01-.4.46-.8.91-1.21,1.37-.47-.14-.71.32-1.08.46-.67.24-.69.76-.21,1.29-.14.38-.44.59-.79.74-.37.36-.88.63-.76,1.28-.12.4-.24.8-.54,1.11-.78-.11-1.22.25-1.35,1.01-.05.48-.2.92-.49,1.31-1.1.74-1.66,1.95-2.55,2.87-.04.05.05.22.08.34-.07.35-.15.71-.22,1.06-.59.02-1.33.23-1.29.79.08,1.02-.51,1.7-.87,2.51-.53.52-.48,1.26-.7,1.89-.25.72-.37,1.51-1.13,1.91-.37.7-.73,1.39-1.1,2.09-.57.58-.81,1.33-1.06,2.07-1.14-.24-1.5.2-1.21,1.47Zm-20.5-15.28c.06.07.11.14.17.2-.14.45.08.6.49.6.16.08.32.15.48.23.02.37.21.39.49.24,1.18-.26,2.33.24,3.51.13.4.19.67.09.81-.33,1.95-1.44,2.26-3.32,1.49-5.49.3-1.02-.28-1.47-1.12-1.76-1.47-.16-2.92-.59-4.42-.33-1.25-.2-1.61.94-2.33,1.54-.78.65-1.11,3.45-.44,4.22.05.06.22.01.34.01.12.17.24.35.36.52-.05.15-.06.27.16.21Zm-28.82.77c-.1.12-.2.24-.29.36-1.56-.06-1.69.15-1.2,1.9-.04.7-.12,1.39-.11,2.09.02,2.18.11,4.36-.05,6.54v.02c-.08.26-.14.52-.21.77-.36-.35-.76-.95-1.2-.16-.61,1.11-.06,2.92,1.04,3.67.08.31.17.62.25.94-.5.58.04.73.39.97.64.35,1.25.81,1.93,1.04,1.16.39,2.43.85,3.54.06.67-.47,1.35-.9,2.05-1.33,1.36-.77,1.62-1.41,1.53-3.87.05-2.54-.26-5.08.14-7.61,1.4-.2,1.66-.62,1.34-2.18.03-.44.05-.87.08-1.31,1.04-1.5,1.46-3.19,1.43-5,.13-.65.26-1.3.39-1.95.17.13.33.03.42-.09,1.17-1.5,1.81-3.25,2.37-5.04.08-.79.38-1.45.91-2.07,1.53-1.8,3.14-3.51,4.94-5.04.11.01.26.08.31.04.18-.17.13-.36-.05-.52.13-.13.25-.26.38-.39.19.08.27.01.25-.19,1.6-1.43,3.02-3.07,4.88-4.2,1.44.22,1.9-.1,2.29-1.57.6-.25,1.16-.61,1.73-.9,1.15-.6,2-1.65,3.29-2.05.9-.28,1.89,0,2.72-.55,1.51-.4,3.06-.76,3.75-2.42.29-.42.64-.81.74-1.33.44-.37.43-.7-.04-.98l.03-1.8c.15-.31.2-.56-.3-.44,0-.56-.4-.88-.74-1.25-.24-.58-.52-1.09-1.27-.61-.27-.11-.55-.22-.82-.34.8-.62.27-.96-.32-1.06-1.27-.21-2.56-.27-3.76.49.59.14,1.18.14,1.77.15.56,0,1.18-.17,1.56.46-.92.74-1.89-.09-2.86.1-1.19.23-2.49,0-3.59.61-.94.52-1.92.88-2.94,1.16-.84-.1-1,.28-.69.98-.98.56-2.21.61-3.04,1.48-.22-.08-.33-.03-.24.23-.93.83-1.89,1.63-3.15,1.94-.4.1-.77.29-1.06.61-1.52,1.64-3.2,3.11-4.93,4.52-.5-.1-.67.07-.46.55-.32.18-.65.35-.97.53-.74.07-2.18,1.66-2.24,2.47-1.08.92-1.56,2.3-2.5,3.32-1.22-.16-1.37.61-1.33,1.54-.15.57-.54,1.02-.8,1.52-.91,1.74-2.53,3.12-2.68,5.25-.8-.3-1.35-.19-1.41.8-.09,1.32-.71,2.49-1.04,3.75-.1.39-.27.79.05,1.16-.4,1.02-.3,2.07-.19,3.12-.01.37-.02.73-.03,1.1Zm32.25,11.82c-.04-.8.41-1.8-.25-2.36-.6-.52-.95-1.11-1.27-1.76-.24-.49-.56-.83-1.08-.92-1.51-.28-3.02-.46-4.52.06-.85.19-1.32.8-1.68,1.53-.75,2.21-.66,4.45-.25,6.7-.26,1.26.44,1.71,1.54,1.82,1.46.84,2.94,1.19,4.49.22.52.14,1.07.29,1.45-.19.22-.27.04-.61-.28-.79,0-.3.15-.52.36-.71,1.75-.63,2-1.07,1.61-2.77-.06-.27-.09-.55-.13-.83Z"
        fill="#e2a0c8"
      />
      <path
        d="m99.7,30.43c-.34-.39-.86.17-1.03-.4.65-.46,1.48-.63,2.31-.67,2.19-.11,3.98-1.58,6.14-1.76.86-1.37,2.52-1.43,3.77-2.16,1.3-.77,2.54-1.66,3.92-2.34,1.29-.63,2.6-1.28,3.7-2.41.74-.77,1.87-1.43,2.88-1.99,1.79-1,3.15-2.49,4.77-3.67.46-.34.85-.76,1.43-.93,1.2-.36,1.78-1.52,2.76-2.2.52-.36.97-.71,1.62-.79.86-.11,1.67-.34,2.31-1.05.55-.6,2.24-.48,2.82.13.38.4.81.72,1.32.9,1.51.54,2.32,1.69,3.18,2.99,1.32,2,1.4,4.34,2.25,6.42.75,1.82.58,3.52.68,5.32.13,2.29.95,4.51,1.4,6.76.38,1.85,1.19,3.18,2.8,4.14.42.25.84.37,1.25.41,2.07.24,4,.11,5.92-1.08,2.13-1.32,4.18-2.76,6.51-3.81,1.47-.66,2.83-1.44,4.45-1.58,1.03-.09,1.33-1.28,2.49-1.39,3.54-.32,6.88-1.88,10.56-1.46,1.98.23,3.97.64,5.47,1.74,1.71,1.24,3.44,2.75,4,5.04.04.16.02.38.12.48,2.15,2.05,1.56,5.07,2.66,7.5.44.97.45,2.07,1.11,3.07.54.82.39,2.06.63,3.1.32,1.41.64,2.83,1.29,4.13.22.43.15.89.19,1.34.12,1.49.03,2.96.92,4.36.69,1.07.53,2.48.59,3.76.09,1.98.86,3.8,1.27,5.69.42,1.95,1.18,3.72,1.73,5.59.25.85.1,1.78.29,2.69.19.89-.66.88-1.27.88-1.45.01-2.96-.14-4.22.74-1.11.77-2.37,1.22-3.55,1.83-2.39,1.24-4.62,2.75-7.1,3.86-1.25.56-2.47,1.38-3.74,2.02-3.26,1.64-6.65,2.95-10.35,2.97-2.68.02-5.24-.57-7.65-1.96-1.74-1.01-3.64-1.76-5.24-3.01-2.55-1.99-4.97-4-6.61-6.99-1.12-2.05-1.97-4.23-3.19-6.19-.91-1.47-1.13-3.14-1.86-4.57-1.02-1.98-1.18-4.16-2.12-6.15-1.53-3.22-5-3.86-7.99-2.77-.81.3-1.61.68-2.23,1.32-1.29,1.36-3.04,2.07-4.55,3.09-1.89,1.27-4.15,1.02-6.31.46-2.88-.74-5.16-2.65-7.72-4.02-3.66-1.96-6.5-4.93-9.64-7.52-2.1-1.73-3.81-3.95-5.59-6.05-1.42-1.68-2.66-3.5-3.99-5.25-.84-1.11-1.72-2.19-2.52-3.32-.6-.83-1.15-1.7-1.64-2.6-.47-.87.04-1.58,1.25-1.7,1.44-.15,2.88-.22,4.32-.37.99-.1,2.03-.05,3-.56Z"
        fill="#e73c38"
      />
      <path
        d="m201.15,75.17c.33,1.03.66,1.87.86,2.74.15.64.43,1.25.88,1.61,2.4,1.92,4.02,4.65,6.49,6.43.99.71,2.02,1.51,3.29,1.97,2.35.84,4.7,1.74,6.9,2.95.52.29.53.63.35,1.13-.3.84-.84,1.54-1.39,2.18-1.39,1.63-2.69,3.34-3.94,5.06-1.34,1.85-2.79,3.64-3.96,5.63-1.06,1.8-2.09,3.64-3.26,5.35-1.1,1.61-1.74,3.44-2.83,4.97-.8,1.13-1.57,2.28-2.17,3.49-1.61,3.23-3.8,6.07-6.06,8.81-2.01,2.44-4,4.92-6.35,7.12-2.03,1.9-3.95,3.9-6.09,5.71-2.02,1.71-3.88,3.54-6.16,4.98-1.65,1.04-3.26,2.1-4.96,3.07-2.14,1.22-4.44,1.81-6.59,2.8-3.49,1.61-7.21,1.46-10.82,2.14-.85.16-1.65.44-2.54.51-2.56.22-4.97-.35-7.38-1.06-.71-.21-1.47-.26-2.2-.34-2.8-.33-5.16-1.79-7.62-2.98-3.26-1.58-5.97-3.76-8.15-6.73-1.21-1.64-2.51-3.27-3.55-4.98-1.45-2.36-2.97-4.72-4.14-7.26-.53-1.14-1.57-2.01-2.06-3.19-.62-1.48-1.62-2.73-2.48-4.05-1.14-1.77-2.43-3.45-4.97-3-.42.07-1.01.11-1.19-.43-.17-.49.12-.96.44-1.34,1.13-1.35,2.04-2.85,3.02-4.3.95-1.41,2.34-2.51,3.42-3.85,1.21-1.49,2.73-2.6,4.15-3.85,1.97-1.74,4.28-2.84,6.43-4.23.72-.46,1.72-.49,2.6-.69.8-.18,1.58-.24,2.2-.96.53-.61,1.43-.33,2.14-.34,2.67-.06,5.17-1.18,7.83-1.2,1.85-.01,3.62.17,5.47.73,2.43.75,5.1.38,7.67.39,1.26,0,2.46-.24,3.56-.89.61-.36,1.18-.8,1.61-1.35.9-1.16,2.55-1.11,3.46.11.53.71,1.4.67,2.14.69,3.32.07,6.64.13,9.95,0,1-.04,2.35.22,2.97-1.21.12-.27.91-.35,1.39-.35,2.14,0,3.79-1.55,5.85-1.8,1.49-2.2,4.25-2.39,6.25-3.85,1.21-.88,2.63-1.86,4.3-2.24.98-.22,1.81-1.14,2.76-1.69,1.81-1.06,3.55-2.29,4.17-4.52.2-.72.04-1.48.37-2.19.15-.32-.22-.59-.49-.79-1.5-1.09-1.48-2.82-1.84-4.39-.02-.09.12-.21.29-.49Zm-62.03,66.65c.41,0,.85.09,1.24-.02.9-.24,2.1-.3,2.38-1.26.23-.81.47-1.64.68-2.46.18-.69.11-1.3-.11-2.02-.34-1.12-.9-1.99-1.57-2.95-1.37-1.92-2.14-4.22-3.32-6.29-1.06-1.85-1.87-4.01-1.63-6.42.26-2.55-1.39-4.37-3.85-4.89-2.4-.51-5.45,1.57-5.31,3.94.15,2.61-.69,5.42,1.12,7.82.13.18.11.48.16.72.22,1.12.39,2.26,1.51,2.93.35.21.38.6.41.99.15,1.73,1.25,3.11,1.8,4.7.06.18.22.37.39.47.84.53,1.35,1.45,1.7,2.22.91,2.01,2.52,2.41,4.4,2.52Zm16.21-11.99c.62-2.65-1.72-4.43-2.05-6.83-.01-.1-.14-.22-.24-.27-.87-.43-.99-1.2-1-2.07,0-.57-.15-1.14-.27-1.7-.48-2.12-.54-4.38-2.85-5.68-1.17-.66-2.27-.77-3.4-.35-1.21.44-2.23,1.16-2.47,2.64-.33,2.05-.37,4.11-.21,6.17.08,1.05-.04,2.29.75,3.07,1.42,1.42,1.41,3.45,2.35,5.08.56.97.82,2.08,1.7,2.92,1.35,1.28,3.8,1.9,5.48,1.23,1.94-.77,2.51-2.26,2.21-4.23Z"
        fill="#e73c38"
      />
      <path
        d="m41.67,160.14c.73-.39,1.52-.18,2.25-.07,2.39.34,4.75.22,7.14.04,1.88-.14,3.78-.04,5.67-.05-1.11.6-2.5.25-3.52.95-1.31.9-2.74.62-4.15.74-2.63.22-4.92-1.09-7.38-1.6Z"
        fill="#e73c38"
      />
      <path
        d="m75.15,60.26c.41.68-.19.72-.58.89-1.1.5-2.29.18-3.43.38-2.4.42-4.84.55-7.27.35.86-.48,1.66-1.12,2.71-1.18,2.86-.16,5.69-.8,8.57-.45Z"
        fill="#e73c38"
      />
      <path
        d="m34.64,75.54c-1.41.99-2.25,2.63-3.86,3.4-.69.33-.95,1.25-1.43,1.56-1.85,1.22-2.26,3.85-4.6,4.49-.11-1.03.5-1.65,1.25-2.18.7-.5,1.24-1.16,1.82-1.79,1.94-2.14,3.8-4.45,6.62-5.57.05-.02.13.06.2.09Z"
        fill="#e73c38"
      />
      <path
        d="m130.96,71.02c.45.97-.28,1.14-.92,1.29-2.22.51-6.5.45-9.03-.1,0-.41.34-.62.55-.9,1.17.51,2.37.79,3.67.67,1.43-.13,2.85-.22,4.17-.87.5-.25,1.03-.19,1.56-.09Z"
        fill="#e73c38"
      />
      <path
        d="m11.74,112.56c.17,1.7.25,3.41-.13,5.1-.11.48-.21.97-.89.86-.1-1.78-.24-3.56-.27-5.33-.02-.93.42-1.33,1.3-.63Z"
        fill="#e73c38"
      />
      <path
        d="m76.5,148.88c-.29-.46,0-.78.29-1.06,1.79-1.7,3.14-3.79,4.81-5.59.02-.02.13.05.2.08-.07,1.52-1.13,2.44-2.07,3.42-1.05,1.09-2.16,2.11-3.24,3.16Z"
        fill="#e73c38"
      />
      <path
        d="m117.46,70.6c-1.57-.09-2.87-1.08-4.42-1.28-.63-.08-.6-.96-.92-1.45.11-.02.24-.09.33-.06,1.46.5,2.65,1.63,4.27,1.8.47.05.48.66.74.99Z"
        fill="#e73c38"
      />
      <path
        d="m136.76,70.74c-.48.34-.83.58-1.21-.22-.52-1.09-.88-1.1-1.68-.23-.46.49-.93.81-1.61.47.64-1.49,3.31-2.08,4.36-.95.25.27.21.6.15.93Z"
        fill="#e73c38"
      />
      <path
        d="m90.43,61.36c-1.11.32-1.7-.81-2.65-.93-.05-.31.18-.31.38-.33,1.7-.19,3.33.07,4.94.74-.94.01-1.91-.2-2.67.52Z"
        fill="#e73c38"
      />
      <path
        d="m145.03,89.24c.4-1.37-.55-2.51-.65-3.79.76.7,1.82,1.17,1.82,2.43-.07.47-.14.93-.21,1.4-.32.04-.64.16-.95-.03Z"
        fill="#e73c38"
      />
      <path
        d="m15.27,100.73c-.15.78.01,1.61-.38,2.37-.26.5-.54.84-1.15.51-.12-1.44.53-2.66,1.53-2.87Z"
        fill="#e73c38"
      />
      <path
        d="m10.85,130.14c.17-.05.35.74.49,0,.1-.53-.15-1.14.38-1.7.33,1.42.38,2.76.46,4.1-1-.49-1.67-1.16-1.33-2.39Z"
        fill="#e73c38"
      />
      <path
        d="m103.9,62.08c-2.29-.42-2.41-.54-2.77-2.63,1.1.7,2.17,1.42,2.77,2.63Z"
        fill="#e73c38"
      />
      <path
        d="m32.56,156.3c1.17-.23,2.01.59,2.98.96.29.11-.01.5-.07.76-1.06-.42-2.48-.24-2.91-1.72Z"
        fill="#e73c38"
      />
      <path
        d="m98.42,115.82c-.03-.12-.12-.29-.08-.34.89-.92,1.45-2.14,2.55-2.87-.34.83-.64,1.67-1.02,2.48-.28.59-.79.86-1.46.74Z"
        fill="#e73c38"
      />
      <path
        d="m106.36,64.6c-1.54-.23-2.11-.85-1.89-2.06.79.54,2.16.55,1.89,2.06Z"
        fill="#e73c38"
      />
      <path
        d="m96.04,120.18c.36-.81.94-1.49.87-2.51-.04-.57.7-.77,1.29-.79-.04,1.38-1.31,2.14-1.71,3.34-.01.03-.29-.02-.45-.04Z"
        fill="#e73c38"
      />
      <path
        d="m63.04,157.83c-.18-.31-.05-.71.21-.68,1.18.12,1.93-.83,2.95-1.08.32.45.07.97-.27,1-1.02.09-1.86.77-2.89.76Z"
        fill="#e73c38"
      />
      <path
        d="m84.47,138.96c.19-1.04,1.43-2.55,2.21-2.7-.32,1.24-.74,2.39-2.21,2.7Z"
        fill="#e73c38"
      />
      <path
        d="m23.5,150.28c1.13-.04,2.16.84,2.43,2.1-1.32-.12-1.81-1.18-2.43-2.1Z"
        fill="#e73c38"
      />
      <path
        d="m49.64,66.2c-.3.79-.91,1.11-1.7,1.17-.27-.34-.68-.4-1.26-.64,1.11-.26,1.91-.98,2.96-.53Z"
        fill="#e73c38"
      />
      <path
        d="m21.19,90.22c-.08.67-1.23,2.31-1.93,2.74.29-1.8.59-2.23,1.93-2.74Z"
        fill="#e73c38"
      />
      <path
        d="m171.81,89.13c-1.53.27-3.05.38-4.55-.09,1.53-.24,3.05-.36,4.55.09Z"
        fill="#e73c38"
      />
      <path
        d="m39.66,71.35c.37,1.06-.71,1.05-1.16,1.44-.25.21-.79.45-1.27.28.48-1.03,1.51-1.29,2.43-1.72Z"
        fill="#e73c38"
      />
      <path
        d="m38.58,158.91c.63.12,1.26.26,1.9.36.59.09.65.39.41.86-.81-.33-2.07.18-2.32-1.23Z"
        fill="#e73c38"
      />
      <path
        d="m16.25,141.48c.84.45,1.69.88,1.72,2.01-.65.28-1.09-.14-1.2-.61-.12-.5-.5-.88-.52-1.4Z"
        fill="#e73c38"
      />
      <path
        d="m104.83,107.15c-.47-.52-.46-1.05.21-1.29.37-.13.61-.59,1.08-.46.19,1.04-.58,1.37-1.3,1.74Z"
        fill="#e73c38"
      />
      <path
        d="m140.06,89.24c-.12-.74.45-.65.84-.62.78.08,1.56.25,2.34.39.02,0,.03.07.03.1,0,.04-.04.07-.06.11-1.05.23-2.09.1-3.14.02Z"
        fill="#e73c38"
      />
      <path
        d="m112.63,98.91c.62-.61.4-2.16,1.94-1.73-.39.87-.98,1.51-1.94,1.73Z"
        fill="#e73c38"
      />
      <path
        d="m18.17,95.23c-.11.88-.49,1.49-1.47,1.51.22-1.46.34-1.59,1.47-1.51Z"
        fill="#e73c38"
      />
      <path
        d="m23.14,87.17c-.57.9-1.15,1.8-1.72,2.69.08-1.21.35-2.3,1.72-2.69Z"
        fill="#e73c38"
      />
      <path
        d="m90.84,129.62c-.29-1.27.07-1.71,1.21-1.47,0,.82-.65,1.11-1.21,1.47Z"
        fill="#e73c38"
      />
      <path
        d="m13.44,105.4c.46,1.11-.35,1.74-.94,2.46-.46-1.11.42-1.72.94-2.46Z"
        fill="#e73c38"
      />
      <path
        d="m130.31,90.25c-.18-.42-.71-.3-1.06-.65.79-.29,1.51-.25,2.24-.14-.24.56-.52.75-1.18.79Z"
        fill="#e73c38"
      />
      <path
        d="m111.35,67.56c-.73.03-1.34-.07-1.08-1.05,1.2-.51,1.08.33,1.08,1.05Z"
        fill="#e73c38"
      />
      <path
        d="m55.31,63.72c.12.38.94.18.72.6-.24.45-.81.81-1.45.51.27-.35-.49-1.39.74-1.11Z"
        fill="#e73c38"
      />
      <path
        d="m58.24,159.86c.03-.58.26-.95.92-.87.24.24.49.47.81.77-.6.1-1.14.35-1.73.09Z"
        fill="#e73c38"
      />
      <path
        d="m145.98,89.27c.07-.47.14-.93.21-1.4.04.01.09.01.11.03.34.28,1.09.27.97.87-.13.66-.79.5-1.3.49Z"
        fill="#e2a0c8"
      />
      <path
        d="m139.79,77.71c-.42.18-.4.64-.62,1.08-.3-.54-.59-.95-.67-1.48.57-.32,1.07-.43,1.28.4Z"
        fill="#e73c38"
      />
      <path
        d="m93.11,126.07c.37-.7.74-1.4,1.1-2.09.19,1.2-.27,2.08-1.1,2.09Z"
        fill="#e73c38"
      />
      <path
        d="m87.34,135.31c.1-.96.16-1.97,1.57-1.79-.52.6-1.05,1.19-1.57,1.79Z"
        fill="#e73c38"
      />
      <path
        d="m121.12,93.46c.28-1.18.33-1.21,1.89-.98-.63.33-1.26.65-1.89.98Z"
        fill="#e73c38"
      />
      <path
        d="m124.13,92.48c-.23-.86.04-1.28.98-1.12.32.94-.26,1.09-.98,1.12Z"
        fill="#e73c38"
      />
      <path
        d="m44.4,68.67c-.24,1.12-1.19,1.17-2.04,1.36-.26-.36,0-.51.28-.63.59-.25,1.18-.49,1.77-.73Z"
        fill="#e73c38"
      />
      <path
        d="m109.52,121.09c-.86.91-1.3.68-1.65-.23.57-.21.98.14,1.65.23Z"
        fill="#e73c38"
      />
      <path
        d="m14.11,138.67c1-.71,1.19-.15,1.17.74-.75.32-.89-.32-1.17-.74Z"
        fill="#e73c38"
      />
      <path
        d="m115.12,96.92c.51-.36.29-1.62,1.45-1.2-.21.72-.76,1.05-1.45,1.2Z"
        fill="#e73c38"
      />
      <path
        d="m101.38,111.3c.13-.76.57-1.12,1.35-1.01-.05.88-.75.88-1.35,1.01Z"
        fill="#e73c38"
      />
      <path
        d="m28.38,153.97c.71-.08,1.24.03,1.01.95-.52-.12-1.15-.13-1.01-.95Z"
        fill="#e73c38"
      />
      <path
        d="m142.5,82.98c-1.1.4-.9-.44-.97-1.02.61.07.92.42.97,1.02Z"
        fill="#e73c38"
      />
      <path
        d="m16.31,98.58c.05.77-.26,1.33-.95,1.68.24-.6.23-1.34.95-1.68Z"
        fill="#e73c38"
      />
      <path
        d="m20.25,147.15c.81-.14,1.13.31,1.21,1.03-.56-.16-1.11-.34-1.21-1.03Z"
        fill="#e73c38"
      />
      <path
        d="m73.44,151.75c-.22-.8.37-.85.89-.95.17.76-.47.75-.89.95Z"
        fill="#e73c38"
      />
      <path
        d="m107.33,104.04c.14-.6.53-.92,1.12-1.01-.16.58-.39,1.06-1.12,1.01Z"
        fill="#e73c38"
      />
      <path
        d="m103.27,109.18c-.12-.65.39-.92.76-1.28.3.76-.28.99-.76,1.28Z"
        fill="#e73c38"
      />
      <path
        d="m61.88,62.15c-.15.26-.32.51-.65.56-.38-.26-.25-.55.03-.75.24-.18.52-.2.63.19Z"
        fill="#e73c38"
      />
      <path
        d="m15.77,140.52c.23.12.36.26.11.49-.33-.1-.34-.27-.11-.49Z"
        fill="#e73c38"
      />
      <path
        d="m36.69,73.67c-.11.31-.27.35-.48.1.13-.2.26-.39.48-.1Z"
        fill="#e73c38"
      />
      <path
        d="m23.63,86.64c.02.1.03.19.05.29-.1,0-.19,0-.29-.01-.11-.25-.01-.33.23-.28Z"
        fill="#e73c38"
      />
      <path
        d="m35.86,74.02c.13.08.12.19.02.28-.04.03-.13,0-.2.01-.04-.06-.07-.12-.11-.18.09-.04.19-.07.28-.11Z"
        fill="#e73c38"
      />
      <path
        d="m109.61,101.88c-.08-.07-.24-.15-.23-.19.03-.14.14-.14.25-.05.02.07.05.13.07.2,0,0-.06.03-.09.04Z"
        fill="#e73c38"
      />
      <path
        d="m13.82,138.02h.07s-.01.09-.01.09c-.05.02-.09.04-.14.05.03-.05.05-.1.08-.15Z"
        fill="#e73c38"
      />
      <polygon
        points="29.7 155.09 29.72 155.11 29.67 155.14 29.7 155.09"
        fill="#e73c38"
      />
      <polygon
        points="66.74 155.79 66.75 155.78 66.76 155.85 66.74 155.79"
        fill="#e73c38"
      />
      <polygon
        points="27.68 153.38 27.72 153.41 27.65 153.45 27.68 153.38"
        fill="#e73c38"
      />
      <polygon
        points="140.1 79.25 140 79.27 140.09 79.24 140.1 79.25"
        fill="#e73c38"
      />
      <polygon
        points="111.27 100.3 111.26 100.31 111.29 100.33 111.27 100.3"
        fill="#e73c38"
      />
      <polygon
        points="139.89 78.05 139.9 78.05 139.94 78.04 139.89 78.05"
        fill="#e73c38"
      />
      <path
        d="m133.51,89.38s0,0,0,0c.02.12.02.12,0,0Z"
        fill="#e73c38"
      />
      <path
        d="m78.37,78.34c.27.11.55.22.82.33.45.14.62.88,1.27.61.34.36.73.69.74,1.24-.12.29.06.38.3.44,0,.6-.02,1.2-.03,1.8-.12.33-.17.66.04.98-.1.53-.45.91-.74,1.33-1.18.62-2.42,1.08-3.67,1.54-.58.22-.07.59-.08.89-.83.54-1.82.27-2.72.55-1.29.4-2.14,1.45-3.29,2.05-.57.3-1.13.65-1.73.9-1.29-.24-1.62.91-2.29,1.57-1.86,1.13-3.28,2.77-4.88,4.2-.09-.03-.18-.06-.27-.09,0,.09.01.18.02.27-.13.13-.25.26-.38.39-.37.01-.38.21-.26.49-1.8,1.53-3.41,3.24-4.94,5.04-.53.63-.82,1.29-.91,2.07-.56-.13-.95.2-1.18.6-.82,1.41-1.13,3-1.61,4.54-.13.65-.26,1.3-.39,1.95-.47.07.02.91-.67.81-.78-.11-.9.62-.92,1.02-.05,1.05-.26,2.13.16,3.16-.03.44-.05.87-.08,1.31-.93.43-1.89.84-1.35,2.18-.4,2.53-.1,5.07-.14,7.6-.98.39-1.81,2.46-1.53,3.87-.69.42-1.38.85-2.05,1.33-1.1.78-2.38.33-3.54-.06-.68-.23-1.29-.69-1.93-1.04.25-.47.06-.77-.39-.97-.08-.31-.17-.62-.25-.93.4-1.15.33-2.33.16-3.51.07-.26.13-.52.2-.77,0,0,.04.01.04.01l-.03-.03c.16-2.18.07-4.36.05-6.54,0-.7.07-1.39.11-2.09.36-.55.6-1.18,1.34-1.43.44-.15,0-.33-.14-.47.1-.12.2-.24.29-.36.03.03.07.05.1.08.02-.03.05-.06.05-.08,0-.37.21-.76-.12-1.09-.12-1.05-.21-2.1.19-3.11.68-.1,1.12-.5,1.22-1.16.23-1.57.63-3.08,1.19-4.56.14-2.13,1.77-3.51,2.68-5.25.27-.51.65-.95.8-1.52.77-.23,1.44-.55,1.34-1.54.94-1.03,1.42-2.4,2.5-3.32,1.03-.57,1.76-1.4,2.24-2.47.32-.18.65-.35.97-.53.36,0,.54-.17.46-.55,1.73-1.42,3.4-2.89,4.93-4.52.29-.31.66-.51,1.06-.61,1.26-.31,2.22-1.1,3.15-1.93.09.01.17.02.26.03l-.02-.26c.83-.87,2.06-.92,3.04-1.48.64-.04.89-.35.69-.99,1.02-.27,2-.64,2.94-1.16,1.1-.61,2.4-.38,3.59-.61.97-.19,1.94.64,2.86-.1.26.15.51.25.75-.04Z"
        fill="#030405"
      />
      <path
        d="m72.3,130.53c-.21.19-.36.41-.36.71-.58.1-.94.47-1.17.99-1.55.96-3.03.62-4.49-.22.53-1.49-.86-1.35-1.54-1.82-.4-2.25-.5-4.49.25-6.7,1.28.28,1.59-.51,1.68-1.53,1.5-.52,3.01-.34,4.52-.06.52.1.83.44,1.08.92.32.65.67,1.24,1.27,1.76.66.56.21,1.56.25,2.36-.02,1.3-.37,2.45-1.46,3.28-.06.04-.02.21-.02.32Z"
        fill="#030405"
      />
      <path
        d="m70.18,114.13c-.12-.17-.24-.35-.36-.52-.72-2.57,1.21-4.02,2.43-5.78,1.5-.27,2.95.17,4.42.32-.19.94.28,1.47,1.12,1.76.76,2.17.46,4.06-1.49,5.49-.4-.21-.65-.04-.82.33-1.17.11-2.33-.39-3.51-.13-.09-.23-.17-.48-.49-.24-.16-.08-.32-.15-.48-.23.2-.5-.03-.64-.49-.6-.06-.07-.11-.14-.17-.2.11-.19.09-.29-.16-.21Z"
        fill="#030405"
      />
      <path
        d="m44.15,105.18c-.56,1.48-.96,2.99-1.19,4.56-.1.65-.54,1.06-1.22,1.16-.32-.38-.15-.77-.05-1.16.33-1.26.95-2.43,1.04-3.75.07-1,.62-1.11,1.41-.8Z"
        fill="#e73c38"
      />
      <path
        d="m50.75,117.03c-.41-1.03-.21-2.11-.16-3.16.02-.4.13-1.13.92-1.02.69.1.21-.75.67-.81.03,1.81-.4,3.49-1.43,5Z"
        fill="#e73c38"
      />
      <path
        d="m52.57,110.08c.48-1.53.79-3.13,1.61-4.54.23-.4.63-.72,1.18-.6-.56,1.79-1.2,3.54-2.37,5.04-.1.12-.25.22-.42.09Z"
        fill="#e73c38"
      />
      <path
        d="m39.66,126.8c.17,1.18.24,2.36-.16,3.51-1.1-.75-1.65-2.56-1.04-3.67.44-.79.83-.19,1.2.16Z"
        fill="#e73c38"
      />
      <path
        d="m72.25,107.83c-1.22,1.76-3.15,3.21-2.43,5.78-.12,0-.29.05-.34-.01-.67-.78-.34-3.57.44-4.22.72-.6,1.08-1.74,2.33-1.54Z"
        fill="#e73c38"
      />
      <path
        d="m47.65,131.99c-.27-1.41.55-3.48,1.53-3.87.08,2.45-.18,3.1-1.53,3.87Z"
        fill="#e73c38"
      />
      <path
        d="m78.37,78.34c-.24.29-.49.19-.75.04-.38-.63-.99-.46-1.55-.46-.59,0-1.18,0-1.77-.15,1.2-.76,2.49-.71,3.76-.49.59.1,1.11.44.32,1.06Z"
        fill="#e73c38"
      />
      <path
        d="m77.02,87.5c0-.3-.5-.67.08-.89,1.25-.46,2.5-.92,3.67-1.54-.7,1.66-2.24,2.02-3.75,2.42Z"
        fill="#e73c38"
      />
      <path
        d="m49.33,120.52c-.54-1.34.42-1.75,1.35-2.18.31,1.56.06,1.98-1.35,2.18Z"
        fill="#e73c38"
      />
      <path
        d="m66.99,92.57c.67-.66,1-1.81,2.29-1.57-.39,1.48-.85,1.79-2.29,1.57Z"
        fill="#e73c38"
      />
      <path
        d="m64.73,130.18c.68.47,2.07.33,1.54,1.82-1.1-.11-1.8-.56-1.54-1.82Z"
        fill="#e73c38"
      />
      <path
        d="m72.3,130.53c0-.11-.04-.28.02-.32,1.09-.83,1.44-1.98,1.46-3.28.04.28.07.56.13.83.39,1.7.14,2.14-1.61,2.77Z"
        fill="#e73c38"
      />
      <path
        d="m41.23,115.47c.13.14.58.32.14.47-.74.25-.98.88-1.34,1.43-.5-1.76-.37-1.96,1.2-1.91Z"
        fill="#e73c38"
      />
      <path
        d="m53.7,91.09c-.48,1.06-1.22,1.9-2.24,2.47.06-.81,1.51-2.39,2.24-2.47Z"
        fill="#e73c38"
      />
      <path
        d="m48.96,96.88c.1.99-.57,1.31-1.34,1.54-.04-.93.11-1.7,1.34-1.54Z"
        fill="#e73c38"
      />
      <path
        d="m66.67,121.95c-.1,1.02-.4,1.82-1.68,1.53.36-.73.83-1.34,1.68-1.53Z"
        fill="#e73c38"
      />
      <path
        d="m77.79,109.92c-.84-.29-1.31-.82-1.12-1.76.84.29,1.42.75,1.12,1.76Z"
        fill="#e73c38"
      />
      <path
        d="m70.76,132.22c.24-.51.59-.88,1.17-.99.32.19.5.52.28.79-.38.49-.94.34-1.45.19Z"
        fill="#e73c38"
      />
      <path
        d="m68.23,80.25c.21.63-.05.94-.69.99-.32-.71-.15-1.08.69-.99Z"
        fill="#e73c38"
      />
      <path
        d="m80.47,79.28c-.65.27-.82-.47-1.27-.61.75-.48,1.03.03,1.27.61Z"
        fill="#e73c38"
      />
      <path
        d="m81.51,83.75c-.21-.32-.16-.65-.04-.98.47.28.48.61.04.98Z"
        fill="#e73c38"
      />
      <path
        d="m39.75,131.24c.45.2.64.5.39.97-.34-.24-.89-.4-.39-.97Z"
        fill="#e73c38"
      />
      <path
        d="m75.48,115.75c.16-.37.41-.55.82-.33-.14.42-.42.53-.82.33Z"
        fill="#e73c38"
      />
      <path
        d="m70.51,114.54c.46-.04.7.1.49.6-.41,0-.64-.15-.49-.6Z"
        fill="#e73c38"
      />
      <path
        d="m41.55,114.01c.33.33.11.72.12,1.09,0,.03-.03.05-.05.08-.03-.02-.07-.05-.1-.08.01-.37.02-.73.03-1.1Z"
        fill="#e73c38"
      />
      <path
        d="m55.13,90.01c.08.38-.09.54-.46.55-.21-.48-.04-.65.46-.55Z"
        fill="#e73c38"
      />
      <path
        d="m61.21,97.84c-.12-.27-.11-.48.26-.49.17.16.22.35.05.52-.05.05-.2-.02-.31-.04Z"
        fill="#e73c38"
      />
      <path
        d="m71.48,115.37c.32-.24.4.01.49.24-.28.15-.47.12-.49-.24Z"
        fill="#e73c38"
      />
      <path
        d="m81.5,80.97c-.24-.06-.41-.15-.3-.44.5-.12.44.13.3.44Z"
        fill="#e73c38"
      />
      <path
        d="m64.51,82.71l.02.26c-.09,0-.17-.02-.26-.03-.09-.25.01-.3.24-.23Z"
        fill="#e73c38"
      />
      <path
        d="m61.85,96.96c0-.09-.01-.18-.02-.27.09.03.18.06.27.09.02.2-.06.27-.25.19Z"
        fill="#e73c38"
      />
      <path
        d="m70.18,114.13c.25-.08.27.02.16.21-.22.06-.21-.06-.16-.21Z"
        fill="#e73c38"
      />
      <polygon
        points="39.87 126.01 39.9 126.04 39.86 126.03 39.87 126.01"
        fill="#e73c38"
      />
      <path
        d="m139.12,141.82c-1.88-.11-3.49-.51-4.4-2.52-.35-.77-.86-1.68-1.7-2.22-.16-.11-.33-.29-.39-.47-.54-1.59-1.65-2.97-1.8-4.7-.03-.39-.06-.78-.41-.99-1.12-.67-1.29-1.81-1.51-2.93-.05-.24-.03-.54-.16-.72-1.81-2.4-.97-5.21-1.12-7.82-.14-2.37,2.91-4.45,5.31-3.94,2.46.52,4.11,2.34,3.85,4.89-.24,2.41.57,4.57,1.63,6.42,1.18,2.07,1.95,4.37,3.32,6.29.68.95,1.23,1.82,1.57,2.95.22.72.29,1.33.11,2.02-.21.83-.45,1.66-.68,2.46-.28.97-1.48,1.02-2.38,1.26-.39.1-.82.02-1.24.02Z"
        fill="#030405"
      />
      <path
        d="m155.34,129.83c.3,1.96-.28,3.46-2.21,4.23-1.68.66-4.13.05-5.48-1.23-.88-.84-1.14-1.95-1.7-2.92-.94-1.63-.92-3.66-2.35-5.08-.79-.79-.67-2.02-.75-3.07-.16-2.06-.11-4.12.21-6.17.23-1.48,1.26-2.2,2.47-2.64,1.13-.41,2.23-.31,3.4.35,2.3,1.3,2.36,3.57,2.85,5.68.13.56.27,1.13.27,1.7.01.87.13,1.63,1,2.07.1.05.22.17.24.27.33,2.4,2.67,4.18,2.05,6.83Z"
        fill="#030405"
      />
    </svg>
